<ttFont>
    <TTGlyph name="A" xMin="-11" yMin="-8" xMax="1208" yMax="1333">
      <contour>
        <pt x="269" y="-8" on="1"/>
        <pt x="183" y="0" on="0"/>
        <pt x="68" y="0" on="1"/>
        <pt x="-11" y="0" on="1"/>
        <pt x="424" y="1219" on="1"/>
        <pt x="453" y="1301" on="0"/>
        <pt x="453" y="1328" on="0"/>
        <pt x="452" y="1331" on="1"/>
        <pt x="453" y="1333" on="1"/>
        <pt x="518" y="1330" on="0"/>
        <pt x="591" y="1330" on="1"/>
        <pt x="651" y="1330" on="0"/>
        <pt x="735" y="1332" on="1"/>
        <pt x="736" y="1330" on="1"/>
        <pt x="734" y="1326" on="0"/>
        <pt x="734" y="1319" on="1"/>
        <pt x="734" y="1300" on="0"/>
        <pt x="764" y="1218" on="1"/>
        <pt x="1208" y="-3" on="1"/>
        <pt x="1188" y="-2" on="0"/>
        <pt x="1161" y="-2" on="1"/>
        <pt x="1161" y="-2" on="0"/>
        <pt x="1109" y="0" on="1"/>
        <pt x="1084" y="0" on="0"/>
        <pt x="1064" y="0" on="1"/>
        <pt x="909" y="0" on="1"/>
        <pt x="815" y="288" on="1"/>
        <pt x="363" y="288" on="1"/>
      </contour>
      <contour>
        <pt x="737" y="528" on="1"/>
        <pt x="586" y="993" on="1"/>
        <pt x="439" y="528" on="1"/>
      </contour>
    </TTGlyph>
    <TTGlyph name="AE" xMin="-15" yMin="-8" xMax="1612" yMax="1338">
      <contour>
        <pt x="279" y="-8" on="1"/>
        <pt x="171" y="0" on="0"/>
        <pt x="64" y="0" on="1"/>
        <pt x="-15" y="0" on="1"/>
        <pt x="687" y="1219" on="1"/>
        <pt x="720" y="1274" on="1"/>
        <pt x="737" y="1300" on="0"/>
        <pt x="737" y="1325" on="0"/>
        <pt x="735" y="1331" on="1"/>
        <pt x="736" y="1333" on="1"/>
        <pt x="800" y="1330" on="0"/>
        <pt x="874" y="1330" on="1"/>
        <pt x="1083" y="1330" on="1"/>
        <pt x="1144" y="1330" on="0"/>
        <pt x="1202" y="1330" on="1"/>
        <pt x="1321" y="1332" on="1"/>
        <pt x="1452" y="1333" on="0"/>
        <pt x="1588" y="1338" on="1"/>
        <pt x="1577" y="1250" on="0"/>
        <pt x="1577" y="1103" on="1"/>
        <pt x="1577" y="1087" on="0"/>
        <pt x="1579" y="1079" on="1"/>
        <pt x="1577" y="1076" on="1"/>
        <pt x="1524" y="1091" on="0"/>
        <pt x="1429" y="1091" on="1"/>
        <pt x="1098" y="1091" on="1"/>
        <pt x="1098" y="836" on="1"/>
        <pt x="1360" y="836" on="1"/>
        <pt x="1470" y="836" on="0"/>
        <pt x="1492" y="842" on="1"/>
        <pt x="1495" y="595" on="1"/>
        <pt x="1447" y="600" on="0"/>
        <pt x="1371" y="600" on="1"/>
        <pt x="1098" y="600" on="1"/>
        <pt x="1098" y="240" on="1"/>
        <pt x="1522" y="240" on="1"/>
        <pt x="1584" y="240" on="0"/>
        <pt x="1608" y="252" on="1"/>
        <pt x="1612" y="251" on="1"/>
        <pt x="1602" y="0" on="1"/>
        <pt x="843" y="0" on="1"/>
        <pt x="845" y="288" on="1"/>
        <pt x="438" y="288" on="1"/>
      </contour>
      <contour>
        <pt x="847" y="528" on="1"/>
        <pt x="851" y="1057" on="1"/>
        <pt x="567" y="528" on="1"/>
      </contour>
    </TTGlyph>
    <TTGlyph name="AEacute" xMin="-15" yMin="-8" xMax="1612" yMax="1805">
      <contour>
        <pt x="279" y="-8" on="1"/>
        <pt x="171" y="0" on="0"/>
        <pt x="64" y="0" on="1"/>
        <pt x="-15" y="0" on="1"/>
        <pt x="687" y="1219" on="1"/>
        <pt x="720" y="1274" on="1"/>
        <pt x="737" y="1300" on="0"/>
        <pt x="737" y="1325" on="0"/>
        <pt x="735" y="1331" on="1"/>
        <pt x="736" y="1333" on="1"/>
        <pt x="800" y="1330" on="0"/>
        <pt x="874" y="1330" on="1"/>
        <pt x="1083" y="1330" on="1"/>
        <pt x="1144" y="1330" on="0"/>
        <pt x="1202" y="1330" on="1"/>
        <pt x="1321" y="1332" on="1"/>
        <pt x="1452" y="1333" on="0"/>
        <pt x="1588" y="1338" on="1"/>
        <pt x="1577" y="1250" on="0"/>
        <pt x="1577" y="1103" on="1"/>
        <pt x="1577" y="1087" on="0"/>
        <pt x="1579" y="1079" on="1"/>
        <pt x="1577" y="1076" on="1"/>
        <pt x="1524" y="1091" on="0"/>
        <pt x="1429" y="1091" on="1"/>
        <pt x="1098" y="1091" on="1"/>
        <pt x="1098" y="836" on="1"/>
        <pt x="1360" y="836" on="1"/>
        <pt x="1470" y="836" on="0"/>
        <pt x="1492" y="842" on="1"/>
        <pt x="1495" y="595" on="1"/>
        <pt x="1447" y="600" on="0"/>
        <pt x="1371" y="600" on="1"/>
        <pt x="1098" y="600" on="1"/>
        <pt x="1098" y="240" on="1"/>
        <pt x="1522" y="240" on="1"/>
        <pt x="1584" y="240" on="0"/>
        <pt x="1608" y="252" on="1"/>
        <pt x="1612" y="251" on="1"/>
        <pt x="1602" y="0" on="1"/>
        <pt x="843" y="0" on="1"/>
        <pt x="845" y="288" on="1"/>
        <pt x="438" y="288" on="1"/>
      </contour>
      <contour>
        <pt x="847" y="528" on="1"/>
        <pt x="851" y="1057" on="1"/>
        <pt x="567" y="528" on="1"/>
      </contour>
      <contour>
        <pt x="1030" y="1788" on="1"/>
        <pt x="1180" y="1788" on="0"/>
        <pt x="1350" y="1805" on="1"/>
        <pt x="1349" y="1798" on="1"/>
        <pt x="1087" y="1475" on="1"/>
        <pt x="861" y="1475" on="1"/>
      </contour>
    </TTGlyph>
    <TTGlyph name="Aacute" xMin="-11" yMin="-8" xMax="1208" yMax="1805">
      <contour>
        <pt x="269" y="-8" on="1"/>
        <pt x="183" y="0" on="0"/>
        <pt x="68" y="0" on="1"/>
        <pt x="-11" y="0" on="1"/>
        <pt x="424" y="1219" on="1"/>
        <pt x="453" y="1301" on="0"/>
        <pt x="453" y="1328" on="0"/>
        <pt x="452" y="1331" on="1"/>
        <pt x="453" y="1333" on="1"/>
        <pt x="518" y="1330" on="0"/>
        <pt x="591" y="1330" on="1"/>
        <pt x="651" y="1330" on="0"/>
        <pt x="735" y="1332" on="1"/>
        <pt x="736" y="1330" on="1"/>
        <pt x="734" y="1326" on="0"/>
        <pt x="734" y="1319" on="1"/>
        <pt x="734" y="1300" on="0"/>
        <pt x="764" y="1218" on="1"/>
        <pt x="1208" y="-3" on="1"/>
        <pt x="1188" y="-2" on="0"/>
        <pt x="1161" y="-2" on="1"/>
        <pt x="1161" y="-2" on="0"/>
        <pt x="1109" y="0" on="1"/>
        <pt x="1084" y="0" on="0"/>
        <pt x="1064" y="0" on="1"/>
        <pt x="909" y="0" on="1"/>
        <pt x="815" y="288" on="1"/>
        <pt x="363" y="288" on="1"/>
      </contour>
      <contour>
        <pt x="737" y="528" on="1"/>
        <pt x="586" y="993" on="1"/>
        <pt x="439" y="528" on="1"/>
      </contour>
      <contour>
        <pt x="523" y="1788" on="1"/>
        <pt x="673" y="1788" on="0"/>
        <pt x="843" y="1805" on="1"/>
        <pt x="842" y="1798" on="1"/>
        <pt x="580" y="1475" on="1"/>
        <pt x="354" y="1475" on="1"/>
      </contour>
    </TTGlyph>
    <TTGlyph name="Abreve" xMin="-11" yMin="-8" xMax="1208" yMax="1806">
      <contour>
        <pt x="269" y="-8" on="1"/>
        <pt x="183" y="0" on="0"/>
        <pt x="68" y="0" on="1"/>
        <pt x="-11" y="0" on="1"/>
        <pt x="424" y="1219" on="1"/>
        <pt x="453" y="1301" on="0"/>
        <pt x="453" y="1328" on="0"/>
        <pt x="452" y="1331" on="1"/>
        <pt x="453" y="1333" on="1"/>
        <pt x="518" y="1330" on="0"/>
        <pt x="591" y="1330" on="1"/>
        <pt x="651" y="1330" on="0"/>
        <pt x="735" y="1332" on="1"/>
        <pt x="736" y="1330" on="1"/>
        <pt x="734" y="1326" on="0"/>
        <pt x="734" y="1319" on="1"/>
        <pt x="734" y="1300" on="0"/>
        <pt x="764" y="1218" on="1"/>
        <pt x="1208" y="-3" on="1"/>
        <pt x="1188" y="-2" on="0"/>
        <pt x="1161" y="-2" on="1"/>
        <pt x="1161" y="-2" on="0"/>
        <pt x="1109" y="0" on="1"/>
        <pt x="1084" y="0" on="0"/>
        <pt x="1064" y="0" on="1"/>
        <pt x="909" y="0" on="1"/>
        <pt x="815" y="288" on="1"/>
        <pt x="363" y="288" on="1"/>
      </contour>
      <contour>
        <pt x="737" y="528" on="1"/>
        <pt x="586" y="993" on="1"/>
        <pt x="439" y="528" on="1"/>
      </contour>
      <contour>
        <pt x="943" y="1806" on="1"/>
        <pt x="953" y="1796" on="0"/>
        <pt x="953" y="1680" on="0"/>
        <pt x="912" y="1567" on="0"/>
        <pt x="869" y="1522" on="1"/>
        <pt x="772" y="1421" on="0"/>
        <pt x="598" y="1421" on="1"/>
        <pt x="424" y="1421" on="0"/>
        <pt x="327" y="1522" on="1"/>
        <pt x="243" y="1610" on="0"/>
        <pt x="243" y="1737" on="1"/>
        <pt x="243" y="1796" on="0"/>
        <pt x="253" y="1806" on="1"/>
        <pt x="386" y="1803" on="1"/>
        <pt x="396" y="1724" on="0"/>
        <pt x="423" y="1686" on="1"/>
        <pt x="482" y="1602" on="0"/>
        <pt x="598" y="1602" on="1"/>
        <pt x="714" y="1602" on="0"/>
        <pt x="769" y="1680" on="1"/>
        <pt x="800" y="1724" on="0"/>
        <pt x="810" y="1803" on="1"/>
      </contour>
    </TTGlyph>
    <TTGlyph name="Acircumflex" xMin="-11" yMin="-8" xMax="1208" yMax="1804">
      <contour>
        <pt x="269" y="-8" on="1"/>
        <pt x="183" y="0" on="0"/>
        <pt x="68" y="0" on="1"/>
        <pt x="-11" y="0" on="1"/>
        <pt x="424" y="1219" on="1"/>
        <pt x="453" y="1301" on="0"/>
        <pt x="453" y="1328" on="0"/>
        <pt x="452" y="1331" on="1"/>
        <pt x="453" y="1333" on="1"/>
        <pt x="518" y="1330" on="0"/>
        <pt x="591" y="1330" on="1"/>
        <pt x="651" y="1330" on="0"/>
        <pt x="735" y="1332" on="1"/>
        <pt x="736" y="1330" on="1"/>
        <pt x="734" y="1326" on="0"/>
        <pt x="734" y="1319" on="1"/>
        <pt x="734" y="1300" on="0"/>
        <pt x="764" y="1218" on="1"/>
        <pt x="1208" y="-3" on="1"/>
        <pt x="1188" y="-2" on="0"/>
        <pt x="1161" y="-2" on="1"/>
        <pt x="1161" y="-2" on="0"/>
        <pt x="1109" y="0" on="1"/>
        <pt x="1084" y="0" on="0"/>
        <pt x="1064" y="0" on="1"/>
        <pt x="909" y="0" on="1"/>
        <pt x="815" y="288" on="1"/>
        <pt x="363" y="288" on="1"/>
      </contour>
      <contour>
        <pt x="737" y="528" on="1"/>
        <pt x="586" y="993" on="1"/>
        <pt x="439" y="528" on="1"/>
      </contour>
      <contour>
        <pt x="497" y="1473" on="1"/>
        <pt x="282" y="1473" on="0"/>
        <pt x="234" y="1470" on="1"/>
        <pt x="231" y="1473" on="1"/>
        <pt x="473" y="1804" on="1"/>
        <pt x="497" y="1801" on="0"/>
        <pt x="539" y="1801" on="1"/>
        <pt x="590" y="1801" on="1"/>
        <pt x="711" y="1804" on="1"/>
        <pt x="966" y="1473" on="1"/>
        <pt x="962" y="1470" on="1"/>
        <pt x="707" y="1473" on="1"/>
        <pt x="594" y="1650" on="1"/>
      </contour>
    </TTGlyph>
    <TTGlyph name="Adieresis" xMin="-11" yMin="-8" xMax="1208" yMax="1715">
      <contour>
        <pt x="269" y="-8" on="1"/>
        <pt x="183" y="0" on="0"/>
        <pt x="68" y="0" on="1"/>
        <pt x="-11" y="0" on="1"/>
        <pt x="424" y="1219" on="1"/>
        <pt x="453" y="1301" on="0"/>
        <pt x="453" y="1328" on="0"/>
        <pt x="452" y="1331" on="1"/>
        <pt x="453" y="1333" on="1"/>
        <pt x="518" y="1330" on="0"/>
        <pt x="591" y="1330" on="1"/>
        <pt x="651" y="1330" on="0"/>
        <pt x="735" y="1332" on="1"/>
        <pt x="736" y="1330" on="1"/>
        <pt x="734" y="1326" on="0"/>
        <pt x="734" y="1319" on="1"/>
        <pt x="734" y="1300" on="0"/>
        <pt x="764" y="1218" on="1"/>
        <pt x="1208" y="-3" on="1"/>
        <pt x="1188" y="-2" on="0"/>
        <pt x="1161" y="-2" on="1"/>
        <pt x="1161" y="-2" on="0"/>
        <pt x="1109" y="0" on="1"/>
        <pt x="1084" y="0" on="0"/>
        <pt x="1064" y="0" on="1"/>
        <pt x="909" y="0" on="1"/>
        <pt x="815" y="288" on="1"/>
        <pt x="363" y="288" on="1"/>
      </contour>
      <contour>
        <pt x="737" y="528" on="1"/>
        <pt x="586" y="993" on="1"/>
        <pt x="439" y="528" on="1"/>
      </contour>
      <contour>
        <pt x="946" y="1715" on="1"/>
        <pt x="942" y="1665" on="0"/>
        <pt x="942" y="1510" on="0"/>
        <pt x="946" y="1475" on="1"/>
        <pt x="681" y="1475" on="1"/>
        <pt x="689" y="1537" on="0"/>
        <pt x="689" y="1658" on="0"/>
        <pt x="683" y="1715" on="1"/>
      </contour>
      <contour>
        <pt x="516" y="1715" on="1"/>
        <pt x="512" y="1665" on="0"/>
        <pt x="512" y="1510" on="0"/>
        <pt x="516" y="1475" on="1"/>
        <pt x="251" y="1475" on="1"/>
        <pt x="259" y="1537" on="0"/>
        <pt x="259" y="1658" on="0"/>
        <pt x="253" y="1715" on="1"/>
      </contour>
    </TTGlyph>
    <TTGlyph name="Agrave" xMin="-11" yMin="-8" xMax="1208" yMax="1805">
      <contour>
        <pt x="269" y="-8" on="1"/>
        <pt x="183" y="0" on="0"/>
        <pt x="68" y="0" on="1"/>
        <pt x="-11" y="0" on="1"/>
        <pt x="424" y="1219" on="1"/>
        <pt x="453" y="1301" on="0"/>
        <pt x="453" y="1328" on="0"/>
        <pt x="452" y="1331" on="1"/>
        <pt x="453" y="1333" on="1"/>
        <pt x="518" y="1330" on="0"/>
        <pt x="591" y="1330" on="1"/>
        <pt x="651" y="1330" on="0"/>
        <pt x="735" y="1332" on="1"/>
        <pt x="736" y="1330" on="1"/>
        <pt x="734" y="1326" on="0"/>
        <pt x="734" y="1319" on="1"/>
        <pt x="734" y="1300" on="0"/>
        <pt x="764" y="1218" on="1"/>
        <pt x="1208" y="-3" on="1"/>
        <pt x="1188" y="-2" on="0"/>
        <pt x="1161" y="-2" on="1"/>
        <pt x="1161" y="-2" on="0"/>
        <pt x="1109" y="0" on="1"/>
        <pt x="1084" y="0" on="0"/>
        <pt x="1064" y="0" on="1"/>
        <pt x="909" y="0" on="1"/>
        <pt x="815" y="288" on="1"/>
        <pt x="363" y="288" on="1"/>
      </contour>
      <contour>
        <pt x="737" y="528" on="1"/>
        <pt x="586" y="993" on="1"/>
        <pt x="439" y="528" on="1"/>
      </contour>
      <contour>
        <pt x="354" y="1805" on="1"/>
        <pt x="524" y="1788" on="0"/>
        <pt x="674" y="1788" on="1"/>
        <pt x="843" y="1475" on="1"/>
        <pt x="617" y="1475" on="1"/>
        <pt x="355" y="1798" on="1"/>
      </contour>
    </TTGlyph>
    <TTGlyph name="Amacron" xMin="-11" yMin="-8" xMax="1208" yMax="1700">
      <contour>
        <pt x="269" y="-8" on="1"/>
        <pt x="183" y="0" on="0"/>
        <pt x="68" y="0" on="1"/>
        <pt x="-11" y="0" on="1"/>
        <pt x="424" y="1219" on="1"/>
        <pt x="453" y="1301" on="0"/>
        <pt x="453" y="1328" on="0"/>
        <pt x="452" y="1331" on="1"/>
        <pt x="453" y="1333" on="1"/>
        <pt x="518" y="1330" on="0"/>
        <pt x="591" y="1330" on="1"/>
        <pt x="651" y="1330" on="0"/>
        <pt x="735" y="1332" on="1"/>
        <pt x="736" y="1330" on="1"/>
        <pt x="734" y="1326" on="0"/>
        <pt x="734" y="1319" on="1"/>
        <pt x="734" y="1300" on="0"/>
        <pt x="764" y="1218" on="1"/>
        <pt x="1208" y="-3" on="1"/>
        <pt x="1188" y="-2" on="0"/>
        <pt x="1161" y="-2" on="1"/>
        <pt x="1161" y="-2" on="0"/>
        <pt x="1109" y="0" on="1"/>
        <pt x="1084" y="0" on="0"/>
        <pt x="1064" y="0" on="1"/>
        <pt x="909" y="0" on="1"/>
        <pt x="815" y="288" on="1"/>
        <pt x="363" y="288" on="1"/>
      </contour>
      <contour>
        <pt x="737" y="528" on="1"/>
        <pt x="586" y="993" on="1"/>
        <pt x="439" y="528" on="1"/>
      </contour>
      <contour>
        <pt x="942" y="1700" on="1"/>
        <pt x="938" y="1650" on="0"/>
        <pt x="938" y="1624" on="1"/>
        <pt x="938" y="1590" on="1"/>
        <pt x="938" y="1582" on="0"/>
        <pt x="942" y="1530" on="1"/>
        <pt x="267" y="1530" on="1"/>
        <pt x="270" y="1556" on="1"/>
        <pt x="275" y="1589" on="0"/>
        <pt x="275" y="1643" on="0"/>
        <pt x="269" y="1700" on="1"/>
      </contour>
    </TTGlyph>
    <TTGlyph name="Aogonek" xMin="-11" yMin="-555" xMax="1208" yMax="1333">
      <contour>
        <pt x="269" y="-8" on="1"/>
        <pt x="183" y="0" on="0"/>
        <pt x="68" y="0" on="1"/>
        <pt x="-11" y="0" on="1"/>
        <pt x="424" y="1219" on="1"/>
        <pt x="453" y="1301" on="0"/>
        <pt x="453" y="1328" on="0"/>
        <pt x="452" y="1331" on="1"/>
        <pt x="453" y="1333" on="1"/>
        <pt x="518" y="1330" on="0"/>
        <pt x="591" y="1330" on="1"/>
        <pt x="651" y="1330" on="0"/>
        <pt x="735" y="1332" on="1"/>
        <pt x="736" y="1330" on="1"/>
        <pt x="734" y="1326" on="0"/>
        <pt x="734" y="1319" on="1"/>
        <pt x="734" y="1300" on="0"/>
        <pt x="764" y="1218" on="1"/>
        <pt x="1208" y="-3" on="1"/>
        <pt x="1100" y="-3" on="0"/>
        <pt x="1022" y="-72" on="1"/>
        <pt x="949" y="-137" on="0"/>
        <pt x="949" y="-218" on="1"/>
        <pt x="949" y="-323" on="0"/>
        <pt x="1140" y="-323" on="1"/>
        <pt x="1177" y="-323" on="0"/>
        <pt x="1199" y="-307" on="1"/>
        <pt x="1201" y="-312" on="1"/>
        <pt x="1097" y="-555" on="1"/>
        <pt x="831" y="-555" on="0"/>
        <pt x="738" y="-393" on="1"/>
        <pt x="704" y="-334" on="0"/>
        <pt x="704" y="-246" on="1"/>
        <pt x="704" y="-143" on="0"/>
        <pt x="796" y="-39" on="1"/>
        <pt x="834" y="3" on="0"/>
        <pt x="895" y="42" on="1"/>
        <pt x="815" y="288" on="1"/>
        <pt x="363" y="288" on="1"/>
      </contour>
      <contour>
        <pt x="737" y="528" on="1"/>
        <pt x="586" y="993" on="1"/>
        <pt x="439" y="528" on="1"/>
      </contour>
    </TTGlyph>
    <TTGlyph name="Aring" xMin="-11" yMin="-8" xMax="1208" yMax="1843">
      <contour>
        <pt x="269" y="-8" on="1"/>
        <pt x="183" y="0" on="0"/>
        <pt x="68" y="0" on="1"/>
        <pt x="-11" y="0" on="1"/>
        <pt x="424" y="1219" on="1"/>
        <pt x="453" y="1301" on="0"/>
        <pt x="453" y="1328" on="0"/>
        <pt x="452" y="1331" on="1"/>
        <pt x="453" y="1333" on="1"/>
        <pt x="518" y="1330" on="0"/>
        <pt x="591" y="1330" on="1"/>
        <pt x="651" y="1330" on="0"/>
        <pt x="735" y="1332" on="1"/>
        <pt x="736" y="1330" on="1"/>
        <pt x="734" y="1326" on="0"/>
        <pt x="734" y="1319" on="1"/>
        <pt x="734" y="1300" on="0"/>
        <pt x="764" y="1218" on="1"/>
        <pt x="1208" y="-3" on="1"/>
        <pt x="1188" y="-2" on="0"/>
        <pt x="1161" y="-2" on="1"/>
        <pt x="1161" y="-2" on="0"/>
        <pt x="1109" y="0" on="1"/>
        <pt x="1084" y="0" on="0"/>
        <pt x="1064" y="0" on="1"/>
        <pt x="909" y="0" on="1"/>
        <pt x="815" y="288" on="1"/>
        <pt x="363" y="288" on="1"/>
      </contour>
      <contour>
        <pt x="737" y="528" on="1"/>
        <pt x="586" y="993" on="1"/>
        <pt x="439" y="528" on="1"/>
      </contour>
      <contour>
        <pt x="592" y="1367" on="1"/>
        <pt x="531" y="1367" on="0"/>
        <pt x="431" y="1399" on="0"/>
        <pt x="395" y="1429" on="1"/>
        <pt x="319" y="1492" on="0"/>
        <pt x="319" y="1601" on="1"/>
        <pt x="319" y="1708" on="0"/>
        <pt x="394" y="1774" on="1"/>
        <pt x="470" y="1843" on="0"/>
        <pt x="606" y="1843" on="1"/>
        <pt x="726" y="1843" on="0"/>
        <pt x="802" y="1774" on="1"/>
        <pt x="877" y="1707" on="0"/>
        <pt x="877" y="1606" on="1"/>
        <pt x="877" y="1496" on="0"/>
        <pt x="797" y="1431" on="1"/>
        <pt x="719" y="1367" on="0"/>
      </contour>
      <contour>
        <pt x="523" y="1524" on="0"/>
        <pt x="569" y="1508" on="0"/>
        <pt x="622" y="1508" on="0"/>
        <pt x="664" y="1523" on="0"/>
        <pt x="680" y="1536" on="1"/>
        <pt x="715" y="1566" on="0"/>
        <pt x="715" y="1625" on="0"/>
        <pt x="700" y="1660" on="0"/>
        <pt x="685" y="1674" on="1"/>
        <pt x="651" y="1707" on="0"/>
        <pt x="564" y="1707" on="0"/>
        <pt x="520" y="1689" on="0"/>
        <pt x="506" y="1674" on="1"/>
        <pt x="478" y="1647" on="0"/>
        <pt x="478" y="1587" on="0"/>
        <pt x="493" y="1551" on="0"/>
      </contour>
    </TTGlyph>
    <TTGlyph name="Atilde" xMin="-11" yMin="-8" xMax="1208" yMax="1770">
      <contour>
        <pt x="269" y="-8" on="1"/>
        <pt x="183" y="0" on="0"/>
        <pt x="68" y="0" on="1"/>
        <pt x="-11" y="0" on="1"/>
        <pt x="424" y="1219" on="1"/>
        <pt x="453" y="1301" on="0"/>
        <pt x="453" y="1328" on="0"/>
        <pt x="452" y="1331" on="1"/>
        <pt x="453" y="1333" on="1"/>
        <pt x="518" y="1330" on="0"/>
        <pt x="591" y="1330" on="1"/>
        <pt x="651" y="1330" on="0"/>
        <pt x="735" y="1332" on="1"/>
        <pt x="736" y="1330" on="1"/>
        <pt x="734" y="1326" on="0"/>
        <pt x="734" y="1319" on="1"/>
        <pt x="734" y="1300" on="0"/>
        <pt x="764" y="1218" on="1"/>
        <pt x="1208" y="-3" on="1"/>
        <pt x="1188" y="-2" on="0"/>
        <pt x="1161" y="-2" on="1"/>
        <pt x="1161" y="-2" on="0"/>
        <pt x="1109" y="0" on="1"/>
        <pt x="1084" y="0" on="0"/>
        <pt x="1064" y="0" on="1"/>
        <pt x="909" y="0" on="1"/>
        <pt x="815" y="288" on="1"/>
        <pt x="363" y="288" on="1"/>
      </contour>
      <contour>
        <pt x="737" y="528" on="1"/>
        <pt x="586" y="993" on="1"/>
        <pt x="439" y="528" on="1"/>
      </contour>
      <contour>
        <pt x="435" y="1565" on="1"/>
        <pt x="341" y="1565" on="0"/>
        <pt x="268" y="1490" on="1"/>
        <pt x="264" y="1491" on="1"/>
        <pt x="260" y="1690" on="1"/>
        <pt x="328" y="1770" on="0"/>
        <pt x="445" y="1770" on="1"/>
        <pt x="537" y="1770" on="0"/>
        <pt x="695" y="1661" on="0"/>
        <pt x="779" y="1661" on="1"/>
        <pt x="898" y="1661" on="0"/>
        <pt x="935" y="1745" on="1"/>
        <pt x="937" y="1743" on="1"/>
        <pt x="927" y="1527" on="1"/>
        <pt x="910" y="1497" on="0"/>
        <pt x="822" y="1458" on="0"/>
        <pt x="726" y="1458" on="0"/>
        <pt x="667" y="1474" on="0"/>
        <pt x="617" y="1498" on="0"/>
        <pt x="574" y="1525" on="0"/>
        <pt x="550" y="1537" on="1"/>
        <pt x="494" y="1565" on="0"/>
      </contour>
    </TTGlyph>
    <TTGlyph name="B" xMin="172" yMin="-25" xMax="1153" yMax="1355">
      <contour>
        <pt x="939" y="39" on="0"/>
        <pt x="705" y="-25" on="0"/>
        <pt x="364" y="-25" on="0"/>
        <pt x="172" y="6" on="1"/>
        <pt x="172" y="1324" on="1"/>
        <pt x="366" y="1355" on="0"/>
        <pt x="651" y="1355" on="0"/>
        <pt x="834" y="1301" on="0"/>
        <pt x="892" y="1255" on="1"/>
        <pt x="1006" y="1166" on="0"/>
        <pt x="1006" y="883" on="0"/>
        <pt x="903" y="790" on="1"/>
        <pt x="1025" y="752" on="0"/>
        <pt x="1092" y="646" on="1"/>
        <pt x="1153" y="551" on="0"/>
        <pt x="1153" y="320" on="0"/>
        <pt x="1086" y="156" on="0"/>
      </contour>
      <contour>
        <pt x="437" y="827" on="1"/>
        <pt x="479" y="820" on="0"/>
        <pt x="605" y="820" on="0"/>
        <pt x="686" y="853" on="0"/>
        <pt x="708" y="878" on="1"/>
        <pt x="744" y="919" on="0"/>
        <pt x="744" y="992" on="1"/>
        <pt x="744" y="1145" on="0"/>
        <pt x="564" y="1145" on="1"/>
        <pt x="488" y="1145" on="0"/>
        <pt x="437" y="1139" on="1"/>
      </contour>
      <contour>
        <pt x="585" y="613" on="1"/>
        <pt x="501" y="613" on="0"/>
        <pt x="437" y="602" on="1"/>
        <pt x="437" y="209" on="1"/>
        <pt x="507" y="191" on="0"/>
        <pt x="661" y="191" on="0"/>
        <pt x="778" y="228" on="0"/>
        <pt x="818" y="260" on="1"/>
        <pt x="899" y="326" on="0"/>
        <pt x="899" y="428" on="1"/>
        <pt x="899" y="613" on="0"/>
      </contour>
    </TTGlyph>
    <TTGlyph name="C" xMin="52" yMin="-25" xMax="1108" yMax="1355">
      <contour>
        <pt x="768" y="1355" on="1"/>
        <pt x="955" y="1355" on="0"/>
        <pt x="1087" y="1290" on="1"/>
        <pt x="1087" y="984" on="1"/>
        <pt x="1085" y="982" on="1"/>
        <pt x="1029" y="1068" on="0"/>
        <pt x="849" y="1096" on="1"/>
        <pt x="796" y="1105" on="0"/>
        <pt x="634" y="1105" on="0"/>
        <pt x="478" y="1044" on="0"/>
        <pt x="428" y="988" on="1"/>
        <pt x="331" y="879" on="0"/>
        <pt x="331" y="677" on="1"/>
        <pt x="331" y="442" on="0"/>
        <pt x="454" y="327" on="1"/>
        <pt x="556" y="231" on="0"/>
        <pt x="724" y="231" on="1"/>
        <pt x="914" y="231" on="0"/>
        <pt x="1032" y="312" on="1"/>
        <pt x="1075" y="341" on="0"/>
        <pt x="1105" y="384" on="1"/>
        <pt x="1108" y="382" on="1"/>
        <pt x="1108" y="102" on="1"/>
        <pt x="955" y="-25" on="0"/>
        <pt x="696" y="-25" on="1"/>
        <pt x="391" y="-25" on="0"/>
        <pt x="218" y="169" on="1"/>
        <pt x="52" y="354" on="0"/>
        <pt x="52" y="659" on="1"/>
        <pt x="52" y="982" on="0"/>
        <pt x="234" y="1168" on="1"/>
        <pt x="418" y="1355" on="0"/>
      </contour>
    </TTGlyph>
    <TTGlyph name="Cacute" xMin="52" yMin="-25" xMax="1108" yMax="1805">
      <contour>
        <pt x="768" y="1355" on="1"/>
        <pt x="955" y="1355" on="0"/>
        <pt x="1087" y="1290" on="1"/>
        <pt x="1087" y="984" on="1"/>
        <pt x="1085" y="982" on="1"/>
        <pt x="1029" y="1068" on="0"/>
        <pt x="849" y="1096" on="1"/>
        <pt x="796" y="1105" on="0"/>
        <pt x="634" y="1105" on="0"/>
        <pt x="478" y="1044" on="0"/>
        <pt x="428" y="988" on="1"/>
        <pt x="331" y="879" on="0"/>
        <pt x="331" y="677" on="1"/>
        <pt x="331" y="442" on="0"/>
        <pt x="454" y="327" on="1"/>
        <pt x="556" y="231" on="0"/>
        <pt x="724" y="231" on="1"/>
        <pt x="914" y="231" on="0"/>
        <pt x="1032" y="312" on="1"/>
        <pt x="1075" y="341" on="0"/>
        <pt x="1105" y="384" on="1"/>
        <pt x="1108" y="382" on="1"/>
        <pt x="1108" y="102" on="1"/>
        <pt x="955" y="-25" on="0"/>
        <pt x="696" y="-25" on="1"/>
        <pt x="391" y="-25" on="0"/>
        <pt x="218" y="169" on="1"/>
        <pt x="52" y="354" on="0"/>
        <pt x="52" y="659" on="1"/>
        <pt x="52" y="982" on="0"/>
        <pt x="234" y="1168" on="1"/>
        <pt x="418" y="1355" on="0"/>
      </contour>
      <contour>
        <pt x="594" y="1788" on="1"/>
        <pt x="744" y="1788" on="0"/>
        <pt x="914" y="1805" on="1"/>
        <pt x="913" y="1798" on="1"/>
        <pt x="651" y="1475" on="1"/>
        <pt x="425" y="1475" on="1"/>
      </contour>
    </TTGlyph>
    <TTGlyph name="Ccaron" xMin="52" yMin="-25" xMax="1108" yMax="1700">
      <contour>
        <pt x="768" y="1355" on="1"/>
        <pt x="955" y="1355" on="0"/>
        <pt x="1087" y="1290" on="1"/>
        <pt x="1087" y="984" on="1"/>
        <pt x="1085" y="982" on="1"/>
        <pt x="1029" y="1068" on="0"/>
        <pt x="849" y="1096" on="1"/>
        <pt x="796" y="1105" on="0"/>
        <pt x="634" y="1105" on="0"/>
        <pt x="478" y="1044" on="0"/>
        <pt x="428" y="988" on="1"/>
        <pt x="331" y="879" on="0"/>
        <pt x="331" y="677" on="1"/>
        <pt x="331" y="442" on="0"/>
        <pt x="454" y="327" on="1"/>
        <pt x="556" y="231" on="0"/>
        <pt x="724" y="231" on="1"/>
        <pt x="914" y="231" on="0"/>
        <pt x="1032" y="312" on="1"/>
        <pt x="1075" y="341" on="0"/>
        <pt x="1105" y="384" on="1"/>
        <pt x="1108" y="382" on="1"/>
        <pt x="1108" y="102" on="1"/>
        <pt x="955" y="-25" on="0"/>
        <pt x="696" y="-25" on="1"/>
        <pt x="391" y="-25" on="0"/>
        <pt x="218" y="169" on="1"/>
        <pt x="52" y="354" on="0"/>
        <pt x="52" y="659" on="1"/>
        <pt x="52" y="982" on="0"/>
        <pt x="234" y="1168" on="1"/>
        <pt x="418" y="1355" on="0"/>
      </contour>
      <contour>
        <pt x="661" y="1369" on="1"/>
        <pt x="610" y="1369" on="1"/>
        <pt x="568" y="1369" on="0"/>
        <pt x="544" y="1366" on="1"/>
        <pt x="302" y="1697" on="1"/>
        <pt x="305" y="1700" on="1"/>
        <pt x="353" y="1697" on="0"/>
        <pt x="568" y="1697" on="1"/>
        <pt x="665" y="1520" on="1"/>
        <pt x="778" y="1697" on="1"/>
        <pt x="1033" y="1700" on="1"/>
        <pt x="1037" y="1697" on="1"/>
        <pt x="782" y="1366" on="1"/>
      </contour>
    </TTGlyph>
    <TTGlyph name="Ccedilla" xMin="52" yMin="-432" xMax="1108" yMax="1355">
      <contour>
        <pt x="790" y="-20" on="1"/>
        <pt x="797" y="-76" on="0"/>
        <pt x="797" y="-235" on="0"/>
        <pt x="752" y="-345" on="0"/>
        <pt x="723" y="-362" on="1"/>
        <pt x="664" y="-400" on="0"/>
        <pt x="508" y="-432" on="1"/>
        <pt x="502" y="-426" on="1"/>
        <pt x="551" y="-356" on="0"/>
        <pt x="568" y="-128" on="1"/>
        <pt x="572" y="-67" on="0"/>
        <pt x="572" y="-16" on="1"/>
        <pt x="325" y="21" on="0"/>
        <pt x="185" y="208" on="1"/>
        <pt x="52" y="387" on="0"/>
        <pt x="52" y="659" on="1"/>
        <pt x="52" y="982" on="0"/>
        <pt x="234" y="1168" on="1"/>
        <pt x="418" y="1355" on="0"/>
        <pt x="749" y="1355" on="1"/>
        <pt x="955" y="1355" on="0"/>
        <pt x="1087" y="1290" on="1"/>
        <pt x="1087" y="984" on="1"/>
        <pt x="1085" y="982" on="1"/>
        <pt x="1029" y="1068" on="0"/>
        <pt x="849" y="1096" on="1"/>
        <pt x="796" y="1105" on="0"/>
        <pt x="634" y="1105" on="0"/>
        <pt x="478" y="1044" on="0"/>
        <pt x="428" y="988" on="1"/>
        <pt x="331" y="879" on="0"/>
        <pt x="331" y="677" on="1"/>
        <pt x="331" y="442" on="0"/>
        <pt x="454" y="327" on="1"/>
        <pt x="556" y="231" on="0"/>
        <pt x="724" y="231" on="1"/>
        <pt x="914" y="231" on="0"/>
        <pt x="1032" y="312" on="1"/>
        <pt x="1075" y="341" on="0"/>
        <pt x="1105" y="384" on="1"/>
        <pt x="1108" y="382" on="1"/>
        <pt x="1108" y="102" on="1"/>
        <pt x="986" y="0" on="0"/>
      </contour>
    </TTGlyph>
    <TTGlyph name="Ccircumflex" xMin="52" yMin="-25" xMax="1108" yMax="1804">
      <contour>
        <pt x="768" y="1355" on="1"/>
        <pt x="955" y="1355" on="0"/>
        <pt x="1087" y="1290" on="1"/>
        <pt x="1087" y="984" on="1"/>
        <pt x="1085" y="982" on="1"/>
        <pt x="1029" y="1068" on="0"/>
        <pt x="849" y="1096" on="1"/>
        <pt x="796" y="1105" on="0"/>
        <pt x="634" y="1105" on="0"/>
        <pt x="478" y="1044" on="0"/>
        <pt x="428" y="988" on="1"/>
        <pt x="331" y="879" on="0"/>
        <pt x="331" y="677" on="1"/>
        <pt x="331" y="442" on="0"/>
        <pt x="454" y="327" on="1"/>
        <pt x="556" y="231" on="0"/>
        <pt x="724" y="231" on="1"/>
        <pt x="914" y="231" on="0"/>
        <pt x="1032" y="312" on="1"/>
        <pt x="1075" y="341" on="0"/>
        <pt x="1105" y="384" on="1"/>
        <pt x="1108" y="382" on="1"/>
        <pt x="1108" y="102" on="1"/>
        <pt x="955" y="-25" on="0"/>
        <pt x="696" y="-25" on="1"/>
        <pt x="391" y="-25" on="0"/>
        <pt x="218" y="169" on="1"/>
        <pt x="52" y="354" on="0"/>
        <pt x="52" y="659" on="1"/>
        <pt x="52" y="982" on="0"/>
        <pt x="234" y="1168" on="1"/>
        <pt x="418" y="1355" on="0"/>
      </contour>
      <contour>
        <pt x="568" y="1473" on="1"/>
        <pt x="353" y="1473" on="0"/>
        <pt x="305" y="1470" on="1"/>
        <pt x="302" y="1473" on="1"/>
        <pt x="544" y="1804" on="1"/>
        <pt x="568" y="1801" on="0"/>
        <pt x="610" y="1801" on="1"/>
        <pt x="661" y="1801" on="1"/>
        <pt x="782" y="1804" on="1"/>
        <pt x="1037" y="1473" on="1"/>
        <pt x="1033" y="1470" on="1"/>
        <pt x="778" y="1473" on="1"/>
        <pt x="665" y="1650" on="1"/>
      </contour>
    </TTGlyph>
    <TTGlyph name="Cdotaccent" xMin="52" yMin="-25" xMax="1108" yMax="1814">
      <contour>
        <pt x="768" y="1355" on="1"/>
        <pt x="955" y="1355" on="0"/>
        <pt x="1087" y="1290" on="1"/>
        <pt x="1087" y="984" on="1"/>
        <pt x="1085" y="982" on="1"/>
        <pt x="1029" y="1068" on="0"/>
        <pt x="849" y="1096" on="1"/>
        <pt x="796" y="1105" on="0"/>
        <pt x="634" y="1105" on="0"/>
        <pt x="478" y="1044" on="0"/>
        <pt x="428" y="988" on="1"/>
        <pt x="331" y="879" on="0"/>
        <pt x="331" y="677" on="1"/>
        <pt x="331" y="442" on="0"/>
        <pt x="454" y="327" on="1"/>
        <pt x="556" y="231" on="0"/>
        <pt x="724" y="231" on="1"/>
        <pt x="914" y="231" on="0"/>
        <pt x="1032" y="312" on="1"/>
        <pt x="1075" y="341" on="0"/>
        <pt x="1105" y="384" on="1"/>
        <pt x="1108" y="382" on="1"/>
        <pt x="1108" y="102" on="1"/>
        <pt x="955" y="-25" on="0"/>
        <pt x="696" y="-25" on="1"/>
        <pt x="391" y="-25" on="0"/>
        <pt x="218" y="169" on="1"/>
        <pt x="52" y="354" on="0"/>
        <pt x="52" y="659" on="1"/>
        <pt x="52" y="982" on="0"/>
        <pt x="234" y="1168" on="1"/>
        <pt x="418" y="1355" on="0"/>
      </contour>
      <contour>
        <pt x="499" y="1618" on="1"/>
        <pt x="564" y="1722" on="0"/>
        <pt x="648" y="1814" on="1"/>
        <pt x="839" y="1663" on="1"/>
        <pt x="789" y="1599" on="0"/>
        <pt x="771" y="1575" on="1"/>
        <pt x="736" y="1526" on="1"/>
        <pt x="719" y="1503" on="0"/>
        <pt x="700" y="1474" on="1"/>
      </contour>
    </TTGlyph>
    <TTGlyph name="D" xMin="191" yMin="-25" xMax="1242" yMax="1355">
      <contour>
        <pt x="496" y="-25" on="1"/>
        <pt x="334" y="-25" on="0"/>
        <pt x="191" y="1" on="1"/>
        <pt x="191" y="1339" on="1"/>
        <pt x="323" y="1355" on="0"/>
        <pt x="672" y="1355" on="0"/>
        <pt x="955" y="1260" on="0"/>
        <pt x="1050" y="1172" on="1"/>
        <pt x="1242" y="996" on="0"/>
        <pt x="1242" y="679" on="1"/>
        <pt x="1242" y="324" on="0"/>
        <pt x="1028" y="140" on="1"/>
        <pt x="836" y="-25" on="0"/>
      </contour>
      <contour>
        <pt x="451" y="219" on="1"/>
        <pt x="516" y="207" on="0"/>
        <pt x="646" y="207" on="0"/>
        <pt x="796" y="258" on="0"/>
        <pt x="851" y="312" on="1"/>
        <pt x="969" y="426" on="0"/>
        <pt x="969" y="644" on="1"/>
        <pt x="969" y="1002" on="0"/>
        <pt x="708" y="1084" on="1"/>
        <pt x="622" y="1111" on="0"/>
        <pt x="509" y="1111" on="1"/>
        <pt x="482" y="1111" on="1"/>
        <pt x="467" y="1111" on="0"/>
        <pt x="451" y="1110" on="1"/>
      </contour>
    </TTGlyph>
    <TTGlyph name="Dcaron" xMin="191" yMin="-25" xMax="1242" yMax="1700">
      <contour>
        <pt x="496" y="-25" on="1"/>
        <pt x="334" y="-25" on="0"/>
        <pt x="191" y="1" on="1"/>
        <pt x="191" y="1339" on="1"/>
        <pt x="323" y="1355" on="0"/>
        <pt x="672" y="1355" on="0"/>
        <pt x="955" y="1260" on="0"/>
        <pt x="1050" y="1172" on="1"/>
        <pt x="1242" y="996" on="0"/>
        <pt x="1242" y="679" on="1"/>
        <pt x="1242" y="324" on="0"/>
        <pt x="1028" y="140" on="1"/>
        <pt x="836" y="-25" on="0"/>
      </contour>
      <contour>
        <pt x="451" y="219" on="1"/>
        <pt x="516" y="207" on="0"/>
        <pt x="646" y="207" on="0"/>
        <pt x="796" y="258" on="0"/>
        <pt x="851" y="312" on="1"/>
        <pt x="969" y="426" on="0"/>
        <pt x="969" y="644" on="1"/>
        <pt x="969" y="1002" on="0"/>
        <pt x="708" y="1084" on="1"/>
        <pt x="622" y="1111" on="0"/>
        <pt x="509" y="1111" on="1"/>
        <pt x="482" y="1111" on="1"/>
        <pt x="467" y="1111" on="0"/>
        <pt x="451" y="1110" on="1"/>
      </contour>
      <contour>
        <pt x="712" y="1369" on="1"/>
        <pt x="661" y="1369" on="1"/>
        <pt x="619" y="1369" on="0"/>
        <pt x="595" y="1366" on="1"/>
        <pt x="353" y="1697" on="1"/>
        <pt x="356" y="1700" on="1"/>
        <pt x="404" y="1697" on="0"/>
        <pt x="619" y="1697" on="1"/>
        <pt x="716" y="1520" on="1"/>
        <pt x="829" y="1697" on="1"/>
        <pt x="1084" y="1700" on="1"/>
        <pt x="1088" y="1697" on="1"/>
        <pt x="833" y="1366" on="1"/>
      </contour>
    </TTGlyph>
    <TTGlyph name="Dcroat" xMin="92" yMin="-25" xMax="1242" yMax="1355">
      <contour>
        <pt x="496" y="-25" on="1"/>
        <pt x="334" y="-25" on="0"/>
        <pt x="191" y="1" on="1"/>
        <pt x="191" y="548" on="1"/>
        <pt x="92" y="548" on="1"/>
        <pt x="92" y="784" on="1"/>
        <pt x="191" y="784" on="1"/>
        <pt x="191" y="1339" on="1"/>
        <pt x="323" y="1355" on="0"/>
        <pt x="672" y="1355" on="0"/>
        <pt x="955" y="1260" on="0"/>
        <pt x="1050" y="1172" on="1"/>
        <pt x="1242" y="996" on="0"/>
        <pt x="1242" y="679" on="1"/>
        <pt x="1242" y="324" on="0"/>
        <pt x="1028" y="140" on="1"/>
        <pt x="836" y="-25" on="0"/>
      </contour>
      <contour>
        <pt x="451" y="219" on="1"/>
        <pt x="516" y="207" on="0"/>
        <pt x="646" y="207" on="0"/>
        <pt x="796" y="258" on="0"/>
        <pt x="851" y="312" on="1"/>
        <pt x="969" y="426" on="0"/>
        <pt x="969" y="644" on="1"/>
        <pt x="969" y="1002" on="0"/>
        <pt x="708" y="1084" on="1"/>
        <pt x="622" y="1111" on="0"/>
        <pt x="509" y="1111" on="1"/>
        <pt x="482" y="1111" on="1"/>
        <pt x="467" y="1111" on="0"/>
        <pt x="451" y="1110" on="1"/>
        <pt x="451" y="784" on="1"/>
        <pt x="751" y="784" on="1"/>
        <pt x="751" y="548" on="1"/>
        <pt x="451" y="548" on="1"/>
      </contour>
    </TTGlyph>
    <TTGlyph name="Delta" xMin="147" yMin="0" xMax="1377" yMax="1415">
      <contour>
        <pt x="615" y="1415" on="1"/>
        <pt x="829" y="1415" on="1"/>
        <pt x="1377" y="0" on="1"/>
        <pt x="147" y="0" on="1"/>
      </contour>
      <contour>
        <pt x="499" y="238" on="1"/>
        <pt x="1007" y="238" on="1"/>
        <pt x="726" y="1000" on="1"/>
      </contour>
    </TTGlyph>
    <TTGlyph name="E" xMin="172" yMin="0" xMax="931" yMax="1338">
      <contour>
        <pt x="841" y="240" on="1"/>
        <pt x="903" y="240" on="0"/>
        <pt x="927" y="252" on="1"/>
        <pt x="931" y="251" on="1"/>
        <pt x="921" y="0" on="1"/>
        <pt x="172" y="0" on="1"/>
        <pt x="172" y="1337" on="1"/>
        <pt x="199" y="1335" on="0"/>
        <pt x="232" y="1334" on="1"/>
        <pt x="302" y="1332" on="1"/>
        <pt x="372" y="1330" on="0"/>
        <pt x="454" y="1330" on="1"/>
        <pt x="683" y="1330" on="0"/>
        <pt x="907" y="1338" on="1"/>
        <pt x="896" y="1250" on="0"/>
        <pt x="896" y="1103" on="1"/>
        <pt x="896" y="1087" on="0"/>
        <pt x="898" y="1079" on="1"/>
        <pt x="896" y="1076" on="1"/>
        <pt x="844" y="1091" on="0"/>
        <pt x="748" y="1091" on="1"/>
        <pt x="433" y="1091" on="1"/>
        <pt x="433" y="836" on="1"/>
        <pt x="670" y="836" on="1"/>
        <pt x="780" y="836" on="0"/>
        <pt x="802" y="842" on="1"/>
        <pt x="805" y="595" on="1"/>
        <pt x="757" y="600" on="0"/>
        <pt x="681" y="600" on="1"/>
        <pt x="433" y="600" on="1"/>
        <pt x="433" y="240" on="1"/>
      </contour>
    </TTGlyph>
    <TTGlyph name="Eacute" xMin="172" yMin="0" xMax="931" yMax="1805">
      <contour>
        <pt x="841" y="240" on="1"/>
        <pt x="903" y="240" on="0"/>
        <pt x="927" y="252" on="1"/>
        <pt x="931" y="251" on="1"/>
        <pt x="921" y="0" on="1"/>
        <pt x="172" y="0" on="1"/>
        <pt x="172" y="1337" on="1"/>
        <pt x="199" y="1335" on="0"/>
        <pt x="232" y="1334" on="1"/>
        <pt x="302" y="1332" on="1"/>
        <pt x="372" y="1330" on="0"/>
        <pt x="454" y="1330" on="1"/>
        <pt x="683" y="1330" on="0"/>
        <pt x="907" y="1338" on="1"/>
        <pt x="896" y="1250" on="0"/>
        <pt x="896" y="1103" on="1"/>
        <pt x="896" y="1087" on="0"/>
        <pt x="898" y="1079" on="1"/>
        <pt x="896" y="1076" on="1"/>
        <pt x="844" y="1091" on="0"/>
        <pt x="748" y="1091" on="1"/>
        <pt x="433" y="1091" on="1"/>
        <pt x="433" y="836" on="1"/>
        <pt x="670" y="836" on="1"/>
        <pt x="780" y="836" on="0"/>
        <pt x="802" y="842" on="1"/>
        <pt x="805" y="595" on="1"/>
        <pt x="757" y="600" on="0"/>
        <pt x="681" y="600" on="1"/>
        <pt x="433" y="600" on="1"/>
        <pt x="433" y="240" on="1"/>
      </contour>
      <contour>
        <pt x="461" y="1788" on="1"/>
        <pt x="611" y="1788" on="0"/>
        <pt x="781" y="1805" on="1"/>
        <pt x="780" y="1798" on="1"/>
        <pt x="518" y="1475" on="1"/>
        <pt x="292" y="1475" on="1"/>
      </contour>
    </TTGlyph>
    <TTGlyph name="Ebreve" xMin="172" yMin="0" xMax="931" yMax="1806">
      <contour>
        <pt x="841" y="240" on="1"/>
        <pt x="903" y="240" on="0"/>
        <pt x="927" y="252" on="1"/>
        <pt x="931" y="251" on="1"/>
        <pt x="921" y="0" on="1"/>
        <pt x="172" y="0" on="1"/>
        <pt x="172" y="1337" on="1"/>
        <pt x="199" y="1335" on="0"/>
        <pt x="232" y="1334" on="1"/>
        <pt x="302" y="1332" on="1"/>
        <pt x="372" y="1330" on="0"/>
        <pt x="454" y="1330" on="1"/>
        <pt x="683" y="1330" on="0"/>
        <pt x="907" y="1338" on="1"/>
        <pt x="896" y="1250" on="0"/>
        <pt x="896" y="1103" on="1"/>
        <pt x="896" y="1087" on="0"/>
        <pt x="898" y="1079" on="1"/>
        <pt x="896" y="1076" on="1"/>
        <pt x="844" y="1091" on="0"/>
        <pt x="748" y="1091" on="1"/>
        <pt x="433" y="1091" on="1"/>
        <pt x="433" y="836" on="1"/>
        <pt x="670" y="836" on="1"/>
        <pt x="780" y="836" on="0"/>
        <pt x="802" y="842" on="1"/>
        <pt x="805" y="595" on="1"/>
        <pt x="757" y="600" on="0"/>
        <pt x="681" y="600" on="1"/>
        <pt x="433" y="600" on="1"/>
        <pt x="433" y="240" on="1"/>
      </contour>
      <contour>
        <pt x="881" y="1806" on="1"/>
        <pt x="891" y="1796" on="0"/>
        <pt x="891" y="1680" on="0"/>
        <pt x="850" y="1567" on="0"/>
        <pt x="807" y="1522" on="1"/>
        <pt x="710" y="1421" on="0"/>
        <pt x="536" y="1421" on="1"/>
        <pt x="362" y="1421" on="0"/>
        <pt x="265" y="1522" on="1"/>
        <pt x="181" y="1610" on="0"/>
        <pt x="181" y="1737" on="1"/>
        <pt x="181" y="1796" on="0"/>
        <pt x="191" y="1806" on="1"/>
        <pt x="324" y="1803" on="1"/>
        <pt x="334" y="1724" on="0"/>
        <pt x="361" y="1686" on="1"/>
        <pt x="420" y="1602" on="0"/>
        <pt x="536" y="1602" on="1"/>
        <pt x="652" y="1602" on="0"/>
        <pt x="707" y="1680" on="1"/>
        <pt x="738" y="1724" on="0"/>
        <pt x="748" y="1803" on="1"/>
      </contour>
    </TTGlyph>
    <TTGlyph name="Ecaron" xMin="169" yMin="0" xMax="931" yMax="1700">
      <contour>
        <pt x="841" y="240" on="1"/>
        <pt x="903" y="240" on="0"/>
        <pt x="927" y="252" on="1"/>
        <pt x="931" y="251" on="1"/>
        <pt x="921" y="0" on="1"/>
        <pt x="172" y="0" on="1"/>
        <pt x="172" y="1337" on="1"/>
        <pt x="199" y="1335" on="0"/>
        <pt x="232" y="1334" on="1"/>
        <pt x="302" y="1332" on="1"/>
        <pt x="372" y="1330" on="0"/>
        <pt x="454" y="1330" on="1"/>
        <pt x="683" y="1330" on="0"/>
        <pt x="907" y="1338" on="1"/>
        <pt x="896" y="1250" on="0"/>
        <pt x="896" y="1103" on="1"/>
        <pt x="896" y="1087" on="0"/>
        <pt x="898" y="1079" on="1"/>
        <pt x="896" y="1076" on="1"/>
        <pt x="844" y="1091" on="0"/>
        <pt x="748" y="1091" on="1"/>
        <pt x="433" y="1091" on="1"/>
        <pt x="433" y="836" on="1"/>
        <pt x="670" y="836" on="1"/>
        <pt x="780" y="836" on="0"/>
        <pt x="802" y="842" on="1"/>
        <pt x="805" y="595" on="1"/>
        <pt x="757" y="600" on="0"/>
        <pt x="681" y="600" on="1"/>
        <pt x="433" y="600" on="1"/>
        <pt x="433" y="240" on="1"/>
      </contour>
      <contour>
        <pt x="528" y="1369" on="1"/>
        <pt x="477" y="1369" on="1"/>
        <pt x="435" y="1369" on="0"/>
        <pt x="411" y="1366" on="1"/>
        <pt x="169" y="1697" on="1"/>
        <pt x="172" y="1700" on="1"/>
        <pt x="220" y="1697" on="0"/>
        <pt x="435" y="1697" on="1"/>
        <pt x="532" y="1520" on="1"/>
        <pt x="645" y="1697" on="1"/>
        <pt x="900" y="1700" on="1"/>
        <pt x="904" y="1697" on="1"/>
        <pt x="649" y="1366" on="1"/>
      </contour>
    </TTGlyph>
    <TTGlyph name="Ecircumflex" xMin="169" yMin="0" xMax="931" yMax="1804">
      <contour>
        <pt x="841" y="240" on="1"/>
        <pt x="903" y="240" on="0"/>
        <pt x="927" y="252" on="1"/>
        <pt x="931" y="251" on="1"/>
        <pt x="921" y="0" on="1"/>
        <pt x="172" y="0" on="1"/>
        <pt x="172" y="1337" on="1"/>
        <pt x="199" y="1335" on="0"/>
        <pt x="232" y="1334" on="1"/>
        <pt x="302" y="1332" on="1"/>
        <pt x="372" y="1330" on="0"/>
        <pt x="454" y="1330" on="1"/>
        <pt x="683" y="1330" on="0"/>
        <pt x="907" y="1338" on="1"/>
        <pt x="896" y="1250" on="0"/>
        <pt x="896" y="1103" on="1"/>
        <pt x="896" y="1087" on="0"/>
        <pt x="898" y="1079" on="1"/>
        <pt x="896" y="1076" on="1"/>
        <pt x="844" y="1091" on="0"/>
        <pt x="748" y="1091" on="1"/>
        <pt x="433" y="1091" on="1"/>
        <pt x="433" y="836" on="1"/>
        <pt x="670" y="836" on="1"/>
        <pt x="780" y="836" on="0"/>
        <pt x="802" y="842" on="1"/>
        <pt x="805" y="595" on="1"/>
        <pt x="757" y="600" on="0"/>
        <pt x="681" y="600" on="1"/>
        <pt x="433" y="600" on="1"/>
        <pt x="433" y="240" on="1"/>
      </contour>
      <contour>
        <pt x="435" y="1473" on="1"/>
        <pt x="220" y="1473" on="0"/>
        <pt x="172" y="1470" on="1"/>
        <pt x="169" y="1473" on="1"/>
        <pt x="411" y="1804" on="1"/>
        <pt x="435" y="1801" on="0"/>
        <pt x="477" y="1801" on="1"/>
        <pt x="528" y="1801" on="1"/>
        <pt x="649" y="1804" on="1"/>
        <pt x="904" y="1473" on="1"/>
        <pt x="900" y="1470" on="1"/>
        <pt x="645" y="1473" on="1"/>
        <pt x="532" y="1650" on="1"/>
      </contour>
    </TTGlyph>
    <TTGlyph name="Edieresis" xMin="172" yMin="0" xMax="931" yMax="1715">
      <contour>
        <pt x="841" y="240" on="1"/>
        <pt x="903" y="240" on="0"/>
        <pt x="927" y="252" on="1"/>
        <pt x="931" y="251" on="1"/>
        <pt x="921" y="0" on="1"/>
        <pt x="172" y="0" on="1"/>
        <pt x="172" y="1337" on="1"/>
        <pt x="199" y="1335" on="0"/>
        <pt x="232" y="1334" on="1"/>
        <pt x="302" y="1332" on="1"/>
        <pt x="372" y="1330" on="0"/>
        <pt x="454" y="1330" on="1"/>
        <pt x="683" y="1330" on="0"/>
        <pt x="907" y="1338" on="1"/>
        <pt x="896" y="1250" on="0"/>
        <pt x="896" y="1103" on="1"/>
        <pt x="896" y="1087" on="0"/>
        <pt x="898" y="1079" on="1"/>
        <pt x="896" y="1076" on="1"/>
        <pt x="844" y="1091" on="0"/>
        <pt x="748" y="1091" on="1"/>
        <pt x="433" y="1091" on="1"/>
        <pt x="433" y="836" on="1"/>
        <pt x="670" y="836" on="1"/>
        <pt x="780" y="836" on="0"/>
        <pt x="802" y="842" on="1"/>
        <pt x="805" y="595" on="1"/>
        <pt x="757" y="600" on="0"/>
        <pt x="681" y="600" on="1"/>
        <pt x="433" y="600" on="1"/>
        <pt x="433" y="240" on="1"/>
      </contour>
      <contour>
        <pt x="884" y="1715" on="1"/>
        <pt x="880" y="1665" on="0"/>
        <pt x="880" y="1510" on="0"/>
        <pt x="884" y="1475" on="1"/>
        <pt x="619" y="1475" on="1"/>
        <pt x="627" y="1537" on="0"/>
        <pt x="627" y="1658" on="0"/>
        <pt x="621" y="1715" on="1"/>
      </contour>
      <contour>
        <pt x="454" y="1715" on="1"/>
        <pt x="450" y="1665" on="0"/>
        <pt x="450" y="1510" on="0"/>
        <pt x="454" y="1475" on="1"/>
        <pt x="189" y="1475" on="1"/>
        <pt x="197" y="1537" on="0"/>
        <pt x="197" y="1658" on="0"/>
        <pt x="191" y="1715" on="1"/>
      </contour>
    </TTGlyph>
    <TTGlyph name="Edotaccent" xMin="172" yMin="0" xMax="931" yMax="1814">
      <contour>
        <pt x="841" y="240" on="1"/>
        <pt x="903" y="240" on="0"/>
        <pt x="927" y="252" on="1"/>
        <pt x="931" y="251" on="1"/>
        <pt x="921" y="0" on="1"/>
        <pt x="172" y="0" on="1"/>
        <pt x="172" y="1337" on="1"/>
        <pt x="199" y="1335" on="0"/>
        <pt x="232" y="1334" on="1"/>
        <pt x="302" y="1332" on="1"/>
        <pt x="372" y="1330" on="0"/>
        <pt x="454" y="1330" on="1"/>
        <pt x="683" y="1330" on="0"/>
        <pt x="907" y="1338" on="1"/>
        <pt x="896" y="1250" on="0"/>
        <pt x="896" y="1103" on="1"/>
        <pt x="896" y="1087" on="0"/>
        <pt x="898" y="1079" on="1"/>
        <pt x="896" y="1076" on="1"/>
        <pt x="844" y="1091" on="0"/>
        <pt x="748" y="1091" on="1"/>
        <pt x="433" y="1091" on="1"/>
        <pt x="433" y="836" on="1"/>
        <pt x="670" y="836" on="1"/>
        <pt x="780" y="836" on="0"/>
        <pt x="802" y="842" on="1"/>
        <pt x="805" y="595" on="1"/>
        <pt x="757" y="600" on="0"/>
        <pt x="681" y="600" on="1"/>
        <pt x="433" y="600" on="1"/>
        <pt x="433" y="240" on="1"/>
      </contour>
      <contour>
        <pt x="366" y="1618" on="1"/>
        <pt x="431" y="1722" on="0"/>
        <pt x="515" y="1814" on="1"/>
        <pt x="706" y="1663" on="1"/>
        <pt x="656" y="1599" on="0"/>
        <pt x="638" y="1575" on="1"/>
        <pt x="603" y="1526" on="1"/>
        <pt x="586" y="1503" on="0"/>
        <pt x="567" y="1474" on="1"/>
      </contour>
    </TTGlyph>
    <TTGlyph name="Egrave" xMin="172" yMin="0" xMax="931" yMax="1805">
      <contour>
        <pt x="841" y="240" on="1"/>
        <pt x="903" y="240" on="0"/>
        <pt x="927" y="252" on="1"/>
        <pt x="931" y="251" on="1"/>
        <pt x="921" y="0" on="1"/>
        <pt x="172" y="0" on="1"/>
        <pt x="172" y="1337" on="1"/>
        <pt x="199" y="1335" on="0"/>
        <pt x="232" y="1334" on="1"/>
        <pt x="302" y="1332" on="1"/>
        <pt x="372" y="1330" on="0"/>
        <pt x="454" y="1330" on="1"/>
        <pt x="683" y="1330" on="0"/>
        <pt x="907" y="1338" on="1"/>
        <pt x="896" y="1250" on="0"/>
        <pt x="896" y="1103" on="1"/>
        <pt x="896" y="1087" on="0"/>
        <pt x="898" y="1079" on="1"/>
        <pt x="896" y="1076" on="1"/>
        <pt x="844" y="1091" on="0"/>
        <pt x="748" y="1091" on="1"/>
        <pt x="433" y="1091" on="1"/>
        <pt x="433" y="836" on="1"/>
        <pt x="670" y="836" on="1"/>
        <pt x="780" y="836" on="0"/>
        <pt x="802" y="842" on="1"/>
        <pt x="805" y="595" on="1"/>
        <pt x="757" y="600" on="0"/>
        <pt x="681" y="600" on="1"/>
        <pt x="433" y="600" on="1"/>
        <pt x="433" y="240" on="1"/>
      </contour>
      <contour>
        <pt x="292" y="1805" on="1"/>
        <pt x="462" y="1788" on="0"/>
        <pt x="612" y="1788" on="1"/>
        <pt x="781" y="1475" on="1"/>
        <pt x="555" y="1475" on="1"/>
        <pt x="293" y="1798" on="1"/>
      </contour>
    </TTGlyph>
    <TTGlyph name="Emacron" xMin="172" yMin="0" xMax="931" yMax="1700">
      <contour>
        <pt x="841" y="240" on="1"/>
        <pt x="903" y="240" on="0"/>
        <pt x="927" y="252" on="1"/>
        <pt x="931" y="251" on="1"/>
        <pt x="921" y="0" on="1"/>
        <pt x="172" y="0" on="1"/>
        <pt x="172" y="1337" on="1"/>
        <pt x="199" y="1335" on="0"/>
        <pt x="232" y="1334" on="1"/>
        <pt x="302" y="1332" on="1"/>
        <pt x="372" y="1330" on="0"/>
        <pt x="454" y="1330" on="1"/>
        <pt x="683" y="1330" on="0"/>
        <pt x="907" y="1338" on="1"/>
        <pt x="896" y="1250" on="0"/>
        <pt x="896" y="1103" on="1"/>
        <pt x="896" y="1087" on="0"/>
        <pt x="898" y="1079" on="1"/>
        <pt x="896" y="1076" on="1"/>
        <pt x="844" y="1091" on="0"/>
        <pt x="748" y="1091" on="1"/>
        <pt x="433" y="1091" on="1"/>
        <pt x="433" y="836" on="1"/>
        <pt x="670" y="836" on="1"/>
        <pt x="780" y="836" on="0"/>
        <pt x="802" y="842" on="1"/>
        <pt x="805" y="595" on="1"/>
        <pt x="757" y="600" on="0"/>
        <pt x="681" y="600" on="1"/>
        <pt x="433" y="600" on="1"/>
        <pt x="433" y="240" on="1"/>
      </contour>
      <contour>
        <pt x="880" y="1700" on="1"/>
        <pt x="876" y="1650" on="0"/>
        <pt x="876" y="1624" on="1"/>
        <pt x="876" y="1590" on="1"/>
        <pt x="876" y="1582" on="0"/>
        <pt x="880" y="1530" on="1"/>
        <pt x="205" y="1530" on="1"/>
        <pt x="208" y="1556" on="1"/>
        <pt x="213" y="1589" on="0"/>
        <pt x="213" y="1643" on="0"/>
        <pt x="207" y="1700" on="1"/>
      </contour>
    </TTGlyph>
    <TTGlyph name="Eng" xMin="181" yMin="-573" xMax="1176" yMax="1330">
      <contour>
        <pt x="181" y="0" on="1"/>
        <pt x="187" y="34" on="0"/>
        <pt x="187" y="74" on="1"/>
        <pt x="187" y="1330" on="1"/>
        <pt x="407" y="1330" on="1"/>
        <pt x="916" y="501" on="1"/>
        <pt x="916" y="1262" on="1"/>
        <pt x="916" y="1317" on="0"/>
        <pt x="906" y="1330" on="1"/>
        <pt x="1176" y="1330" on="1"/>
        <pt x="1171" y="1290" on="0"/>
        <pt x="1171" y="1242" on="1"/>
        <pt x="1172" y="-106" on="1"/>
        <pt x="1172" y="-323" on="0"/>
        <pt x="1036" y="-452" on="1"/>
        <pt x="909" y="-573" on="0"/>
        <pt x="540" y="-573" on="0"/>
        <pt x="422" y="-475" on="1"/>
        <pt x="422" y="-226" on="1"/>
        <pt x="429" y="-224" on="1"/>
        <pt x="513" y="-311" on="0"/>
        <pt x="611" y="-328" on="1"/>
        <pt x="646" y="-334" on="0"/>
        <pt x="740" y="-334" on="0"/>
        <pt x="824" y="-302" on="0"/>
        <pt x="854" y="-272" on="1"/>
        <pt x="917" y="-211" on="0"/>
        <pt x="917" y="-114" on="1"/>
        <pt x="917" y="58" on="1"/>
        <pt x="442" y="789" on="1"/>
        <pt x="442" y="0" on="1"/>
      </contour>
    </TTGlyph>
    <TTGlyph name="Eogonek" xMin="172" yMin="-552" xMax="931" yMax="1338">
      <contour>
        <pt x="863" y="-320" on="1"/>
        <pt x="900" y="-320" on="0"/>
        <pt x="922" y="-304" on="1"/>
        <pt x="924" y="-309" on="1"/>
        <pt x="820" y="-552" on="1"/>
        <pt x="554" y="-552" on="0"/>
        <pt x="461" y="-390" on="1"/>
        <pt x="427" y="-331" on="0"/>
        <pt x="427" y="-243" on="1"/>
        <pt x="427" y="-161" on="0"/>
        <pt x="490" y="-71" on="1"/>
        <pt x="516" y="-35" on="0"/>
        <pt x="557" y="0" on="1"/>
        <pt x="172" y="0" on="1"/>
        <pt x="172" y="1337" on="1"/>
        <pt x="199" y="1335" on="0"/>
        <pt x="232" y="1334" on="1"/>
        <pt x="302" y="1332" on="1"/>
        <pt x="372" y="1330" on="0"/>
        <pt x="454" y="1330" on="1"/>
        <pt x="683" y="1330" on="0"/>
        <pt x="907" y="1338" on="1"/>
        <pt x="896" y="1250" on="0"/>
        <pt x="896" y="1103" on="1"/>
        <pt x="896" y="1087" on="0"/>
        <pt x="898" y="1079" on="1"/>
        <pt x="896" y="1076" on="1"/>
        <pt x="844" y="1091" on="0"/>
        <pt x="748" y="1091" on="1"/>
        <pt x="433" y="1091" on="1"/>
        <pt x="433" y="836" on="1"/>
        <pt x="670" y="836" on="1"/>
        <pt x="780" y="836" on="0"/>
        <pt x="802" y="842" on="1"/>
        <pt x="805" y="595" on="1"/>
        <pt x="757" y="600" on="0"/>
        <pt x="681" y="600" on="1"/>
        <pt x="433" y="600" on="1"/>
        <pt x="433" y="240" on="1"/>
        <pt x="841" y="240" on="1"/>
        <pt x="903" y="240" on="0"/>
        <pt x="927" y="252" on="1"/>
        <pt x="931" y="251" on="1"/>
        <pt x="921" y="14" on="1"/>
        <pt x="931" y="0" on="1"/>
        <pt x="920" y="0" on="1"/>
        <pt x="816" y="-4" on="0"/>
        <pt x="742" y="-72" on="1"/>
        <pt x="672" y="-137" on="0"/>
        <pt x="672" y="-215" on="1"/>
        <pt x="672" y="-320" on="0"/>
      </contour>
    </TTGlyph>
    <TTGlyph name="Eth" xMin="92" yMin="-25" xMax="1242" yMax="1355">
      <contour>
        <pt x="496" y="-25" on="1"/>
        <pt x="334" y="-25" on="0"/>
        <pt x="191" y="1" on="1"/>
        <pt x="191" y="548" on="1"/>
        <pt x="92" y="548" on="1"/>
        <pt x="92" y="784" on="1"/>
        <pt x="191" y="784" on="1"/>
        <pt x="191" y="1339" on="1"/>
        <pt x="323" y="1355" on="0"/>
        <pt x="672" y="1355" on="0"/>
        <pt x="955" y="1260" on="0"/>
        <pt x="1050" y="1172" on="1"/>
        <pt x="1242" y="996" on="0"/>
        <pt x="1242" y="679" on="1"/>
        <pt x="1242" y="324" on="0"/>
        <pt x="1028" y="140" on="1"/>
        <pt x="836" y="-25" on="0"/>
      </contour>
      <contour>
        <pt x="451" y="219" on="1"/>
        <pt x="516" y="207" on="0"/>
        <pt x="646" y="207" on="0"/>
        <pt x="796" y="258" on="0"/>
        <pt x="851" y="312" on="1"/>
        <pt x="969" y="426" on="0"/>
        <pt x="969" y="644" on="1"/>
        <pt x="969" y="1002" on="0"/>
        <pt x="708" y="1084" on="1"/>
        <pt x="622" y="1111" on="0"/>
        <pt x="509" y="1111" on="1"/>
        <pt x="482" y="1111" on="1"/>
        <pt x="467" y="1111" on="0"/>
        <pt x="451" y="1110" on="1"/>
        <pt x="451" y="784" on="1"/>
        <pt x="751" y="784" on="1"/>
        <pt x="751" y="548" on="1"/>
        <pt x="451" y="548" on="1"/>
      </contour>
    </TTGlyph>
    <TTGlyph name="Euro" xMin="81" yMin="-25" xMax="1336" yMax="1355">
      <contour>
        <pt x="1336" y="112" on="1"/>
        <pt x="1171" y="-25" on="0"/>
        <pt x="916" y="-25" on="1"/>
        <pt x="665" y="-25" on="0"/>
        <pt x="494" y="102" on="1"/>
        <pt x="325" y="227" on="0"/>
        <pt x="268" y="440" on="1"/>
        <pt x="81" y="440" on="1"/>
        <pt x="142" y="636" on="1"/>
        <pt x="242" y="636" on="1"/>
        <pt x="242" y="649" on="1"/>
        <pt x="242" y="682" on="0"/>
        <pt x="247" y="740" on="1"/>
        <pt x="82" y="740" on="1"/>
        <pt x="145" y="936" on="1"/>
        <pt x="297" y="936" on="1"/>
        <pt x="380" y="1131" on="0"/>
        <pt x="562" y="1243" on="1"/>
        <pt x="746" y="1355" on="0"/>
        <pt x="979" y="1355" on="1"/>
        <pt x="1163" y="1355" on="0"/>
        <pt x="1315" y="1280" on="1"/>
        <pt x="1245" y="1022" on="1"/>
        <pt x="1241" y="1022" on="1"/>
        <pt x="1150" y="1115" on="0"/>
        <pt x="973" y="1115" on="1"/>
        <pt x="841" y="1115" on="0"/>
        <pt x="641" y="1019" on="0"/>
        <pt x="580" y="936" on="1"/>
        <pt x="981" y="936" on="1"/>
        <pt x="1090" y="936" on="0"/>
        <pt x="1113" y="942" on="1"/>
        <pt x="1056" y="735" on="1"/>
        <pt x="1008" y="740" on="0"/>
        <pt x="932" y="740" on="1"/>
        <pt x="502" y="740" on="1"/>
        <pt x="497" y="710" on="0"/>
        <pt x="497" y="684" on="1"/>
        <pt x="497" y="652" on="1"/>
        <pt x="497" y="644" on="0"/>
        <pt x="498" y="636" on="1"/>
        <pt x="900" y="636" on="1"/>
        <pt x="1010" y="636" on="0"/>
        <pt x="1032" y="642" on="1"/>
        <pt x="965" y="435" on="1"/>
        <pt x="917" y="440" on="0"/>
        <pt x="841" y="440" on="1"/>
        <pt x="545" y="440" on="1"/>
        <pt x="630" y="269" on="0"/>
        <pt x="832" y="227" on="1"/>
        <pt x="890" y="215" on="0"/>
        <pt x="999" y="215" on="0"/>
        <pt x="1112" y="240" on="0"/>
        <pt x="1164" y="264" on="1"/>
        <pt x="1274" y="315" on="0"/>
        <pt x="1333" y="399" on="1"/>
        <pt x="1336" y="397" on="1"/>
      </contour>
    </TTGlyph>
    <TTGlyph name="F" xMin="172" yMin="0" xMax="936" yMax="1338">
      <contour>
        <pt x="873" y="575" on="1"/>
        <pt x="825" y="580" on="0"/>
        <pt x="749" y="580" on="1"/>
        <pt x="446" y="580" on="1"/>
        <pt x="446" y="0" on="1"/>
        <pt x="172" y="0" on="1"/>
        <pt x="172" y="1337" on="1"/>
        <pt x="199" y="1335" on="0"/>
        <pt x="234" y="1334" on="1"/>
        <pt x="308" y="1332" on="1"/>
        <pt x="384" y="1330" on="0"/>
        <pt x="466" y="1330" on="1"/>
        <pt x="712" y="1330" on="0"/>
        <pt x="936" y="1338" on="1"/>
        <pt x="925" y="1250" on="0"/>
        <pt x="925" y="1103" on="1"/>
        <pt x="925" y="1087" on="0"/>
        <pt x="927" y="1079" on="1"/>
        <pt x="925" y="1076" on="1"/>
        <pt x="872" y="1091" on="0"/>
        <pt x="777" y="1091" on="1"/>
        <pt x="446" y="1091" on="1"/>
        <pt x="446" y="816" on="1"/>
        <pt x="738" y="816" on="1"/>
        <pt x="848" y="816" on="0"/>
        <pt x="870" y="822" on="1"/>
      </contour>
    </TTGlyph>
    <TTGlyph name="G" xMin="73" yMin="-25" xMax="1268" yMax="1355">
      <contour>
        <pt x="1268" y="802" on="1"/>
        <pt x="1249" y="768" on="0"/>
        <pt x="1249" y="639" on="1"/>
        <pt x="1249" y="329" on="1"/>
        <pt x="1249" y="188" on="0"/>
        <pt x="1103" y="84" on="1"/>
        <pt x="952" y="-25" on="0"/>
        <pt x="733" y="-25" on="1"/>
        <pt x="429" y="-25" on="0"/>
        <pt x="248" y="166" on="1"/>
        <pt x="73" y="348" on="0"/>
        <pt x="73" y="630" on="1"/>
        <pt x="73" y="930" on="0"/>
        <pt x="251" y="1130" on="1"/>
        <pt x="450" y="1355" on="0"/>
        <pt x="799" y="1355" on="1"/>
        <pt x="1032" y="1355" on="0"/>
        <pt x="1168" y="1265" on="1"/>
        <pt x="1152" y="970" on="1"/>
        <pt x="1144" y="968" on="1"/>
        <pt x="1109" y="1029" on="0"/>
        <pt x="1006" y="1068" on="1"/>
        <pt x="908" y="1105" on="0"/>
        <pt x="693" y="1105" on="0"/>
        <pt x="532" y="1037" on="0"/>
        <pt x="476" y="974" on="1"/>
        <pt x="358" y="845" on="0"/>
        <pt x="358" y="633" on="1"/>
        <pt x="358" y="448" on="0"/>
        <pt x="462" y="336" on="1"/>
        <pt x="566" y="225" on="0"/>
        <pt x="730" y="225" on="1"/>
        <pt x="911" y="225" on="0"/>
        <pt x="974" y="319" on="1"/>
        <pt x="994" y="349" on="0"/>
        <pt x="994" y="387" on="1"/>
        <pt x="994" y="553" on="1"/>
        <pt x="865" y="553" on="1"/>
        <pt x="761" y="553" on="0"/>
        <pt x="752" y="535" on="1"/>
        <pt x="749" y="536" on="1"/>
        <pt x="740" y="797" on="1"/>
        <pt x="768" y="789" on="0"/>
        <pt x="967" y="789" on="1"/>
        <pt x="1085" y="789" on="1"/>
        <pt x="1195" y="789" on="0"/>
        <pt x="1265" y="804" on="1"/>
      </contour>
    </TTGlyph>
    <TTGlyph name="Gbreve" xMin="73" yMin="-25" xMax="1268" yMax="1806">
      <contour>
        <pt x="1268" y="802" on="1"/>
        <pt x="1249" y="768" on="0"/>
        <pt x="1249" y="639" on="1"/>
        <pt x="1249" y="329" on="1"/>
        <pt x="1249" y="188" on="0"/>
        <pt x="1103" y="84" on="1"/>
        <pt x="952" y="-25" on="0"/>
        <pt x="733" y="-25" on="1"/>
        <pt x="429" y="-25" on="0"/>
        <pt x="248" y="166" on="1"/>
        <pt x="73" y="348" on="0"/>
        <pt x="73" y="630" on="1"/>
        <pt x="73" y="930" on="0"/>
        <pt x="251" y="1130" on="1"/>
        <pt x="450" y="1355" on="0"/>
        <pt x="799" y="1355" on="1"/>
        <pt x="1032" y="1355" on="0"/>
        <pt x="1168" y="1265" on="1"/>
        <pt x="1152" y="970" on="1"/>
        <pt x="1144" y="968" on="1"/>
        <pt x="1109" y="1029" on="0"/>
        <pt x="1006" y="1068" on="1"/>
        <pt x="908" y="1105" on="0"/>
        <pt x="693" y="1105" on="0"/>
        <pt x="532" y="1037" on="0"/>
        <pt x="476" y="974" on="1"/>
        <pt x="358" y="845" on="0"/>
        <pt x="358" y="633" on="1"/>
        <pt x="358" y="448" on="0"/>
        <pt x="462" y="336" on="1"/>
        <pt x="566" y="225" on="0"/>
        <pt x="730" y="225" on="1"/>
        <pt x="911" y="225" on="0"/>
        <pt x="974" y="319" on="1"/>
        <pt x="994" y="349" on="0"/>
        <pt x="994" y="387" on="1"/>
        <pt x="994" y="553" on="1"/>
        <pt x="865" y="553" on="1"/>
        <pt x="761" y="553" on="0"/>
        <pt x="752" y="535" on="1"/>
        <pt x="749" y="536" on="1"/>
        <pt x="740" y="797" on="1"/>
        <pt x="768" y="789" on="0"/>
        <pt x="967" y="789" on="1"/>
        <pt x="1085" y="789" on="1"/>
        <pt x="1195" y="789" on="0"/>
        <pt x="1265" y="804" on="1"/>
      </contour>
      <contour>
        <pt x="1066" y="1806" on="1"/>
        <pt x="1076" y="1796" on="0"/>
        <pt x="1076" y="1680" on="0"/>
        <pt x="1035" y="1567" on="0"/>
        <pt x="992" y="1522" on="1"/>
        <pt x="895" y="1421" on="0"/>
        <pt x="721" y="1421" on="1"/>
        <pt x="547" y="1421" on="0"/>
        <pt x="450" y="1522" on="1"/>
        <pt x="366" y="1610" on="0"/>
        <pt x="366" y="1737" on="1"/>
        <pt x="366" y="1796" on="0"/>
        <pt x="376" y="1806" on="1"/>
        <pt x="509" y="1803" on="1"/>
        <pt x="519" y="1724" on="0"/>
        <pt x="546" y="1686" on="1"/>
        <pt x="605" y="1602" on="0"/>
        <pt x="721" y="1602" on="1"/>
        <pt x="837" y="1602" on="0"/>
        <pt x="892" y="1680" on="1"/>
        <pt x="923" y="1724" on="0"/>
        <pt x="933" y="1803" on="1"/>
      </contour>
    </TTGlyph>
    <TTGlyph name="Gcircumflex" xMin="73" yMin="-25" xMax="1268" yMax="1804">
      <contour>
        <pt x="1268" y="802" on="1"/>
        <pt x="1249" y="768" on="0"/>
        <pt x="1249" y="639" on="1"/>
        <pt x="1249" y="329" on="1"/>
        <pt x="1249" y="188" on="0"/>
        <pt x="1103" y="84" on="1"/>
        <pt x="952" y="-25" on="0"/>
        <pt x="733" y="-25" on="1"/>
        <pt x="429" y="-25" on="0"/>
        <pt x="248" y="166" on="1"/>
        <pt x="73" y="348" on="0"/>
        <pt x="73" y="630" on="1"/>
        <pt x="73" y="930" on="0"/>
        <pt x="251" y="1130" on="1"/>
        <pt x="450" y="1355" on="0"/>
        <pt x="799" y="1355" on="1"/>
        <pt x="1032" y="1355" on="0"/>
        <pt x="1168" y="1265" on="1"/>
        <pt x="1152" y="970" on="1"/>
        <pt x="1144" y="968" on="1"/>
        <pt x="1109" y="1029" on="0"/>
        <pt x="1006" y="1068" on="1"/>
        <pt x="908" y="1105" on="0"/>
        <pt x="693" y="1105" on="0"/>
        <pt x="532" y="1037" on="0"/>
        <pt x="476" y="974" on="1"/>
        <pt x="358" y="845" on="0"/>
        <pt x="358" y="633" on="1"/>
        <pt x="358" y="448" on="0"/>
        <pt x="462" y="336" on="1"/>
        <pt x="566" y="225" on="0"/>
        <pt x="730" y="225" on="1"/>
        <pt x="911" y="225" on="0"/>
        <pt x="974" y="319" on="1"/>
        <pt x="994" y="349" on="0"/>
        <pt x="994" y="387" on="1"/>
        <pt x="994" y="553" on="1"/>
        <pt x="865" y="553" on="1"/>
        <pt x="761" y="553" on="0"/>
        <pt x="752" y="535" on="1"/>
        <pt x="749" y="536" on="1"/>
        <pt x="740" y="797" on="1"/>
        <pt x="768" y="789" on="0"/>
        <pt x="967" y="789" on="1"/>
        <pt x="1085" y="789" on="1"/>
        <pt x="1195" y="789" on="0"/>
        <pt x="1265" y="804" on="1"/>
      </contour>
      <contour>
        <pt x="620" y="1473" on="1"/>
        <pt x="405" y="1473" on="0"/>
        <pt x="357" y="1470" on="1"/>
        <pt x="354" y="1473" on="1"/>
        <pt x="596" y="1804" on="1"/>
        <pt x="620" y="1801" on="0"/>
        <pt x="662" y="1801" on="1"/>
        <pt x="713" y="1801" on="1"/>
        <pt x="834" y="1804" on="1"/>
        <pt x="1089" y="1473" on="1"/>
        <pt x="1085" y="1470" on="1"/>
        <pt x="830" y="1473" on="1"/>
        <pt x="717" y="1650" on="1"/>
      </contour>
    </TTGlyph>
    <TTGlyph name="Gcommaaccent" xMin="73" yMin="-613" xMax="1268" yMax="1355">
      <contour>
        <pt x="1268" y="802" on="1"/>
        <pt x="1249" y="768" on="0"/>
        <pt x="1249" y="639" on="1"/>
        <pt x="1249" y="329" on="1"/>
        <pt x="1249" y="188" on="0"/>
        <pt x="1103" y="84" on="1"/>
        <pt x="952" y="-25" on="0"/>
        <pt x="733" y="-25" on="1"/>
        <pt x="429" y="-25" on="0"/>
        <pt x="248" y="166" on="1"/>
        <pt x="73" y="348" on="0"/>
        <pt x="73" y="630" on="1"/>
        <pt x="73" y="930" on="0"/>
        <pt x="251" y="1130" on="1"/>
        <pt x="450" y="1355" on="0"/>
        <pt x="799" y="1355" on="1"/>
        <pt x="1032" y="1355" on="0"/>
        <pt x="1168" y="1265" on="1"/>
        <pt x="1152" y="970" on="1"/>
        <pt x="1144" y="968" on="1"/>
        <pt x="1109" y="1029" on="0"/>
        <pt x="1006" y="1068" on="1"/>
        <pt x="908" y="1105" on="0"/>
        <pt x="693" y="1105" on="0"/>
        <pt x="532" y="1037" on="0"/>
        <pt x="476" y="974" on="1"/>
        <pt x="358" y="845" on="0"/>
        <pt x="358" y="633" on="1"/>
        <pt x="358" y="448" on="0"/>
        <pt x="462" y="336" on="1"/>
        <pt x="566" y="225" on="0"/>
        <pt x="730" y="225" on="1"/>
        <pt x="911" y="225" on="0"/>
        <pt x="974" y="319" on="1"/>
        <pt x="994" y="349" on="0"/>
        <pt x="994" y="387" on="1"/>
        <pt x="994" y="553" on="1"/>
        <pt x="865" y="553" on="1"/>
        <pt x="761" y="553" on="0"/>
        <pt x="752" y="535" on="1"/>
        <pt x="749" y="536" on="1"/>
        <pt x="740" y="797" on="1"/>
        <pt x="768" y="789" on="0"/>
        <pt x="967" y="789" on="1"/>
        <pt x="1085" y="789" on="1"/>
        <pt x="1195" y="789" on="0"/>
        <pt x="1265" y="804" on="1"/>
      </contour>
      <contour>
        <pt x="539" y="-607" on="1"/>
        <pt x="600" y="-499" on="0"/>
        <pt x="600" y="-271" on="0"/>
        <pt x="589" y="-191" on="1"/>
        <pt x="838" y="-151" on="1"/>
        <pt x="846" y="-202" on="1"/>
        <pt x="854" y="-258" on="0"/>
        <pt x="854" y="-377" on="0"/>
        <pt x="842" y="-450" on="0"/>
        <pt x="832" y="-476" on="1"/>
        <pt x="808" y="-534" on="0"/>
        <pt x="750" y="-558" on="1"/>
        <pt x="686" y="-584" on="0"/>
        <pt x="545" y="-613" on="1"/>
      </contour>
    </TTGlyph>
    <TTGlyph name="Gdotaccent" xMin="73" yMin="-25" xMax="1268" yMax="1814">
      <contour>
        <pt x="1268" y="802" on="1"/>
        <pt x="1249" y="768" on="0"/>
        <pt x="1249" y="639" on="1"/>
        <pt x="1249" y="329" on="1"/>
        <pt x="1249" y="188" on="0"/>
        <pt x="1103" y="84" on="1"/>
        <pt x="952" y="-25" on="0"/>
        <pt x="733" y="-25" on="1"/>
        <pt x="429" y="-25" on="0"/>
        <pt x="248" y="166" on="1"/>
        <pt x="73" y="348" on="0"/>
        <pt x="73" y="630" on="1"/>
        <pt x="73" y="930" on="0"/>
        <pt x="251" y="1130" on="1"/>
        <pt x="450" y="1355" on="0"/>
        <pt x="799" y="1355" on="1"/>
        <pt x="1032" y="1355" on="0"/>
        <pt x="1168" y="1265" on="1"/>
        <pt x="1152" y="970" on="1"/>
        <pt x="1144" y="968" on="1"/>
        <pt x="1109" y="1029" on="0"/>
        <pt x="1006" y="1068" on="1"/>
        <pt x="908" y="1105" on="0"/>
        <pt x="693" y="1105" on="0"/>
        <pt x="532" y="1037" on="0"/>
        <pt x="476" y="974" on="1"/>
        <pt x="358" y="845" on="0"/>
        <pt x="358" y="633" on="1"/>
        <pt x="358" y="448" on="0"/>
        <pt x="462" y="336" on="1"/>
        <pt x="566" y="225" on="0"/>
        <pt x="730" y="225" on="1"/>
        <pt x="911" y="225" on="0"/>
        <pt x="974" y="319" on="1"/>
        <pt x="994" y="349" on="0"/>
        <pt x="994" y="387" on="1"/>
        <pt x="994" y="553" on="1"/>
        <pt x="865" y="553" on="1"/>
        <pt x="761" y="553" on="0"/>
        <pt x="752" y="535" on="1"/>
        <pt x="749" y="536" on="1"/>
        <pt x="740" y="797" on="1"/>
        <pt x="768" y="789" on="0"/>
        <pt x="967" y="789" on="1"/>
        <pt x="1085" y="789" on="1"/>
        <pt x="1195" y="789" on="0"/>
        <pt x="1265" y="804" on="1"/>
      </contour>
      <contour>
        <pt x="551" y="1618" on="1"/>
        <pt x="616" y="1722" on="0"/>
        <pt x="700" y="1814" on="1"/>
        <pt x="891" y="1663" on="1"/>
        <pt x="841" y="1599" on="0"/>
        <pt x="823" y="1575" on="1"/>
        <pt x="788" y="1526" on="1"/>
        <pt x="771" y="1503" on="0"/>
        <pt x="752" y="1474" on="1"/>
      </contour>
    </TTGlyph>
    <TTGlyph name="H" xMin="182" yMin="-6" xMax="1172" yMax="1338">
      <contour>
        <pt x="442" y="-6" on="1"/>
        <pt x="346" y="0" on="0"/>
        <pt x="214" y="0" on="1"/>
        <pt x="182" y="0" on="1"/>
        <pt x="182" y="1335" on="1"/>
        <pt x="244" y="1330" on="0"/>
        <pt x="270" y="1330" on="1"/>
        <pt x="311" y="1330" on="1"/>
        <pt x="390" y="1330" on="0"/>
        <pt x="442" y="1338" on="1"/>
        <pt x="442" y="805" on="1"/>
        <pt x="912" y="805" on="1"/>
        <pt x="912" y="1335" on="1"/>
        <pt x="995" y="1330" on="0"/>
        <pt x="1152" y="1330" on="0"/>
        <pt x="1172" y="1338" on="1"/>
        <pt x="1172" y="-6" on="1"/>
        <pt x="1124" y="0" on="0"/>
        <pt x="982" y="0" on="1"/>
        <pt x="912" y="0" on="1"/>
        <pt x="912" y="565" on="1"/>
        <pt x="442" y="565" on="1"/>
      </contour>
    </TTGlyph>
    <TTGlyph name="Hbar" xMin="58" yMin="-6" xMax="1299" yMax="1338">
      <contour>
        <pt x="442" y="-6" on="1"/>
        <pt x="346" y="0" on="0"/>
        <pt x="214" y="0" on="1"/>
        <pt x="182" y="0" on="1"/>
        <pt x="182" y="975" on="1"/>
        <pt x="58" y="975" on="1"/>
        <pt x="68" y="1014" on="1"/>
        <pt x="72" y="1026" on="0"/>
        <pt x="72" y="1080" on="0"/>
        <pt x="62" y="1120" on="1"/>
        <pt x="182" y="1120" on="1"/>
        <pt x="182" y="1335" on="1"/>
        <pt x="244" y="1330" on="0"/>
        <pt x="270" y="1330" on="1"/>
        <pt x="311" y="1330" on="1"/>
        <pt x="390" y="1330" on="0"/>
        <pt x="442" y="1338" on="1"/>
        <pt x="442" y="1120" on="1"/>
        <pt x="912" y="1120" on="1"/>
        <pt x="912" y="1335" on="1"/>
        <pt x="995" y="1330" on="0"/>
        <pt x="1152" y="1330" on="0"/>
        <pt x="1172" y="1338" on="1"/>
        <pt x="1172" y="1120" on="1"/>
        <pt x="1299" y="1120" on="1"/>
        <pt x="1293" y="1088" on="0"/>
        <pt x="1293" y="1061" on="1"/>
        <pt x="1293" y="1024" on="1"/>
        <pt x="1293" y="1008" on="0"/>
        <pt x="1299" y="975" on="1"/>
        <pt x="1172" y="975" on="1"/>
        <pt x="1172" y="-6" on="1"/>
        <pt x="1124" y="0" on="0"/>
        <pt x="982" y="0" on="1"/>
        <pt x="912" y="0" on="1"/>
        <pt x="912" y="565" on="1"/>
        <pt x="442" y="565" on="1"/>
      </contour>
      <contour>
        <pt x="912" y="805" on="1"/>
        <pt x="912" y="975" on="1"/>
        <pt x="442" y="975" on="1"/>
        <pt x="442" y="805" on="1"/>
      </contour>
    </TTGlyph>
    <TTGlyph name="Hcircumflex" xMin="182" yMin="-6" xMax="1172" yMax="1804">
      <contour>
        <pt x="442" y="-6" on="1"/>
        <pt x="346" y="0" on="0"/>
        <pt x="214" y="0" on="1"/>
        <pt x="182" y="0" on="1"/>
        <pt x="182" y="1335" on="1"/>
        <pt x="244" y="1330" on="0"/>
        <pt x="270" y="1330" on="1"/>
        <pt x="311" y="1330" on="1"/>
        <pt x="390" y="1330" on="0"/>
        <pt x="442" y="1338" on="1"/>
        <pt x="442" y="805" on="1"/>
        <pt x="912" y="805" on="1"/>
        <pt x="912" y="1335" on="1"/>
        <pt x="995" y="1330" on="0"/>
        <pt x="1152" y="1330" on="0"/>
        <pt x="1172" y="1338" on="1"/>
        <pt x="1172" y="-6" on="1"/>
        <pt x="1124" y="0" on="0"/>
        <pt x="982" y="0" on="1"/>
        <pt x="912" y="0" on="1"/>
        <pt x="912" y="565" on="1"/>
        <pt x="442" y="565" on="1"/>
      </contour>
      <contour>
        <pt x="581" y="1473" on="1"/>
        <pt x="366" y="1473" on="0"/>
        <pt x="318" y="1470" on="1"/>
        <pt x="315" y="1473" on="1"/>
        <pt x="557" y="1804" on="1"/>
        <pt x="581" y="1801" on="0"/>
        <pt x="623" y="1801" on="1"/>
        <pt x="674" y="1801" on="1"/>
        <pt x="795" y="1804" on="1"/>
        <pt x="1050" y="1473" on="1"/>
        <pt x="1046" y="1470" on="1"/>
        <pt x="791" y="1473" on="1"/>
        <pt x="678" y="1650" on="1"/>
      </contour>
    </TTGlyph>
    <TTGlyph name="I" xMin="203" yMin="0" xMax="481" yMax="1338">
      <contour>
        <pt x="203" y="1334" on="1"/>
        <pt x="303" y="1330" on="0"/>
        <pt x="324" y="1330" on="1"/>
        <pt x="396" y="1330" on="1"/>
        <pt x="449" y="1330" on="0"/>
        <pt x="481" y="1338" on="1"/>
        <pt x="480" y="0" on="1"/>
        <pt x="203" y="0" on="1"/>
      </contour>
    </TTGlyph>
    <TTGlyph name="IJ" xMin="203" yMin="-25" xMax="1397" yMax="1338">
      <contour>
        <pt x="203" y="1334" on="1"/>
        <pt x="303" y="1330" on="0"/>
        <pt x="324" y="1330" on="1"/>
        <pt x="396" y="1330" on="1"/>
        <pt x="449" y="1330" on="0"/>
        <pt x="481" y="1338" on="1"/>
        <pt x="480" y="0" on="1"/>
        <pt x="203" y="0" on="1"/>
      </contour>
      <contour>
        <pt x="1132" y="1335" on="1"/>
        <pt x="1194" y="1330" on="0"/>
        <pt x="1222" y="1330" on="1"/>
        <pt x="1300" y="1330" on="1"/>
        <pt x="1349" y="1330" on="0"/>
        <pt x="1397" y="1338" on="1"/>
        <pt x="1397" y="442" on="1"/>
        <pt x="1397" y="222" on="0"/>
        <pt x="1280" y="96" on="1"/>
        <pt x="1169" y="-25" on="0"/>
        <pt x="980" y="-25" on="1"/>
        <pt x="850" y="-25" on="0"/>
        <pt x="762" y="27" on="1"/>
        <pt x="729" y="46" on="0"/>
        <pt x="696" y="73" on="1"/>
        <pt x="696" y="362" on="1"/>
        <pt x="703" y="364" on="1"/>
        <pt x="745" y="298" on="0"/>
        <pt x="858" y="214" on="0"/>
        <pt x="942" y="214" on="1"/>
        <pt x="1132" y="214" on="0"/>
        <pt x="1132" y="434" on="1"/>
      </contour>
    </TTGlyph>
    <TTGlyph name="Iacute" xMin="86" yMin="0" xMax="575" yMax="1805">
      <contour>
        <pt x="203" y="1334" on="1"/>
        <pt x="303" y="1330" on="0"/>
        <pt x="324" y="1330" on="1"/>
        <pt x="396" y="1330" on="1"/>
        <pt x="449" y="1330" on="0"/>
        <pt x="481" y="1338" on="1"/>
        <pt x="480" y="0" on="1"/>
        <pt x="203" y="0" on="1"/>
      </contour>
      <contour>
        <pt x="255" y="1788" on="1"/>
        <pt x="405" y="1788" on="0"/>
        <pt x="575" y="1805" on="1"/>
        <pt x="574" y="1798" on="1"/>
        <pt x="312" y="1475" on="1"/>
        <pt x="86" y="1475" on="1"/>
      </contour>
    </TTGlyph>
    <TTGlyph name="Ibreve" xMin="-24" yMin="0" xMax="686" yMax="1806">
      <contour>
        <pt x="203" y="1334" on="1"/>
        <pt x="303" y="1330" on="0"/>
        <pt x="324" y="1330" on="1"/>
        <pt x="396" y="1330" on="1"/>
        <pt x="449" y="1330" on="0"/>
        <pt x="481" y="1338" on="1"/>
        <pt x="480" y="0" on="1"/>
        <pt x="203" y="0" on="1"/>
      </contour>
      <contour>
        <pt x="676" y="1806" on="1"/>
        <pt x="686" y="1796" on="0"/>
        <pt x="686" y="1680" on="0"/>
        <pt x="645" y="1567" on="0"/>
        <pt x="602" y="1522" on="1"/>
        <pt x="505" y="1421" on="0"/>
        <pt x="331" y="1421" on="1"/>
        <pt x="157" y="1421" on="0"/>
        <pt x="60" y="1522" on="1"/>
        <pt x="-24" y="1610" on="0"/>
        <pt x="-24" y="1737" on="1"/>
        <pt x="-24" y="1796" on="0"/>
        <pt x="-14" y="1806" on="1"/>
        <pt x="119" y="1803" on="1"/>
        <pt x="129" y="1724" on="0"/>
        <pt x="156" y="1686" on="1"/>
        <pt x="215" y="1602" on="0"/>
        <pt x="331" y="1602" on="1"/>
        <pt x="447" y="1602" on="0"/>
        <pt x="502" y="1680" on="1"/>
        <pt x="533" y="1724" on="0"/>
        <pt x="543" y="1803" on="1"/>
      </contour>
    </TTGlyph>
    <TTGlyph name="Icircumflex" xMin="-37" yMin="0" xMax="698" yMax="1804">
      <contour>
        <pt x="203" y="1334" on="1"/>
        <pt x="303" y="1330" on="0"/>
        <pt x="324" y="1330" on="1"/>
        <pt x="396" y="1330" on="1"/>
        <pt x="449" y="1330" on="0"/>
        <pt x="481" y="1338" on="1"/>
        <pt x="480" y="0" on="1"/>
        <pt x="203" y="0" on="1"/>
      </contour>
      <contour>
        <pt x="229" y="1473" on="1"/>
        <pt x="14" y="1473" on="0"/>
        <pt x="-34" y="1470" on="1"/>
        <pt x="-37" y="1473" on="1"/>
        <pt x="205" y="1804" on="1"/>
        <pt x="229" y="1801" on="0"/>
        <pt x="271" y="1801" on="1"/>
        <pt x="322" y="1801" on="1"/>
        <pt x="443" y="1804" on="1"/>
        <pt x="698" y="1473" on="1"/>
        <pt x="694" y="1470" on="1"/>
        <pt x="439" y="1473" on="1"/>
        <pt x="326" y="1650" on="1"/>
      </contour>
    </TTGlyph>
    <TTGlyph name="Idieresis" xMin="-17" yMin="0" xMax="678" yMax="1715">
      <contour>
        <pt x="203" y="1334" on="1"/>
        <pt x="303" y="1330" on="0"/>
        <pt x="324" y="1330" on="1"/>
        <pt x="396" y="1330" on="1"/>
        <pt x="449" y="1330" on="0"/>
        <pt x="481" y="1338" on="1"/>
        <pt x="480" y="0" on="1"/>
        <pt x="203" y="0" on="1"/>
      </contour>
      <contour>
        <pt x="678" y="1715" on="1"/>
        <pt x="674" y="1665" on="0"/>
        <pt x="674" y="1510" on="0"/>
        <pt x="678" y="1475" on="1"/>
        <pt x="413" y="1475" on="1"/>
        <pt x="421" y="1537" on="0"/>
        <pt x="421" y="1658" on="0"/>
        <pt x="415" y="1715" on="1"/>
      </contour>
      <contour>
        <pt x="248" y="1715" on="1"/>
        <pt x="244" y="1665" on="0"/>
        <pt x="244" y="1510" on="0"/>
        <pt x="248" y="1475" on="1"/>
        <pt x="-17" y="1475" on="1"/>
        <pt x="-9" y="1537" on="0"/>
        <pt x="-9" y="1658" on="0"/>
        <pt x="-15" y="1715" on="1"/>
      </contour>
    </TTGlyph>
    <TTGlyph name="Idotaccent" xMin="161" yMin="0" xMax="501" yMax="1814">
      <contour>
        <pt x="203" y="1334" on="1"/>
        <pt x="303" y="1330" on="0"/>
        <pt x="324" y="1330" on="1"/>
        <pt x="396" y="1330" on="1"/>
        <pt x="449" y="1330" on="0"/>
        <pt x="481" y="1338" on="1"/>
        <pt x="480" y="0" on="1"/>
        <pt x="203" y="0" on="1"/>
      </contour>
      <contour>
        <pt x="161" y="1618" on="1"/>
        <pt x="226" y="1722" on="0"/>
        <pt x="310" y="1814" on="1"/>
        <pt x="501" y="1663" on="1"/>
        <pt x="451" y="1599" on="0"/>
        <pt x="433" y="1575" on="1"/>
        <pt x="398" y="1526" on="1"/>
        <pt x="381" y="1503" on="0"/>
        <pt x="362" y="1474" on="1"/>
      </contour>
    </TTGlyph>
    <TTGlyph name="Igrave" xMin="86" yMin="0" xMax="575" yMax="1805">
      <contour>
        <pt x="203" y="1334" on="1"/>
        <pt x="303" y="1330" on="0"/>
        <pt x="324" y="1330" on="1"/>
        <pt x="396" y="1330" on="1"/>
        <pt x="449" y="1330" on="0"/>
        <pt x="481" y="1338" on="1"/>
        <pt x="480" y="0" on="1"/>
        <pt x="203" y="0" on="1"/>
      </contour>
      <contour>
        <pt x="86" y="1805" on="1"/>
        <pt x="256" y="1788" on="0"/>
        <pt x="406" y="1788" on="1"/>
        <pt x="575" y="1475" on="1"/>
        <pt x="349" y="1475" on="1"/>
        <pt x="87" y="1798" on="1"/>
      </contour>
    </TTGlyph>
    <TTGlyph name="Imacron" xMin="-1" yMin="0" xMax="674" yMax="1700">
      <contour>
        <pt x="203" y="1334" on="1"/>
        <pt x="303" y="1330" on="0"/>
        <pt x="324" y="1330" on="1"/>
        <pt x="396" y="1330" on="1"/>
        <pt x="449" y="1330" on="0"/>
        <pt x="481" y="1338" on="1"/>
        <pt x="480" y="0" on="1"/>
        <pt x="203" y="0" on="1"/>
      </contour>
      <contour>
        <pt x="674" y="1700" on="1"/>
        <pt x="670" y="1650" on="0"/>
        <pt x="670" y="1624" on="1"/>
        <pt x="670" y="1590" on="1"/>
        <pt x="670" y="1582" on="0"/>
        <pt x="674" y="1530" on="1"/>
        <pt x="-1" y="1530" on="1"/>
        <pt x="2" y="1556" on="1"/>
        <pt x="7" y="1589" on="0"/>
        <pt x="7" y="1643" on="0"/>
        <pt x="1" y="1700" on="1"/>
      </contour>
    </TTGlyph>
    <TTGlyph name="Iogonek" xMin="66" yMin="-555" xMax="563" yMax="1338">
      <contour>
        <pt x="407" y="-313" on="0"/>
        <pt x="471" y="-323" on="0"/>
        <pt x="539" y="-323" on="0"/>
        <pt x="561" y="-307" on="1"/>
        <pt x="563" y="-312" on="1"/>
        <pt x="459" y="-555" on="1"/>
        <pt x="282" y="-555" on="0"/>
        <pt x="189" y="-504" on="1"/>
        <pt x="66" y="-435" on="0"/>
        <pt x="66" y="-276" on="1"/>
        <pt x="66" y="-178" on="0"/>
        <pt x="134" y="-76" on="1"/>
        <pt x="161" y="-36" on="0"/>
        <pt x="203" y="0" on="1"/>
        <pt x="203" y="1334" on="1"/>
        <pt x="303" y="1330" on="0"/>
        <pt x="324" y="1330" on="1"/>
        <pt x="365" y="1330" on="1"/>
        <pt x="449" y="1330" on="0"/>
        <pt x="481" y="1338" on="1"/>
        <pt x="480" y="0" on="1"/>
        <pt x="458" y="0" on="1"/>
        <pt x="398" y="-36" on="0"/>
        <pt x="355" y="-116" on="1"/>
        <pt x="321" y="-178" on="0"/>
        <pt x="321" y="-245" on="0"/>
        <pt x="354" y="-287" on="0"/>
      </contour>
    </TTGlyph>
    <TTGlyph name="Itilde" xMin="-8" yMin="0" xMax="669" yMax="1770">
      <contour>
        <pt x="203" y="1334" on="1"/>
        <pt x="303" y="1330" on="0"/>
        <pt x="324" y="1330" on="1"/>
        <pt x="396" y="1330" on="1"/>
        <pt x="449" y="1330" on="0"/>
        <pt x="481" y="1338" on="1"/>
        <pt x="480" y="0" on="1"/>
        <pt x="203" y="0" on="1"/>
      </contour>
      <contour>
        <pt x="167" y="1565" on="1"/>
        <pt x="73" y="1565" on="0"/>
        <pt x="0" y="1490" on="1"/>
        <pt x="-4" y="1491" on="1"/>
        <pt x="-8" y="1690" on="1"/>
        <pt x="60" y="1770" on="0"/>
        <pt x="177" y="1770" on="1"/>
        <pt x="269" y="1770" on="0"/>
        <pt x="427" y="1661" on="0"/>
        <pt x="511" y="1661" on="1"/>
        <pt x="630" y="1661" on="0"/>
        <pt x="667" y="1745" on="1"/>
        <pt x="669" y="1743" on="1"/>
        <pt x="659" y="1527" on="1"/>
        <pt x="642" y="1497" on="0"/>
        <pt x="554" y="1458" on="0"/>
        <pt x="458" y="1458" on="0"/>
        <pt x="399" y="1474" on="0"/>
        <pt x="349" y="1498" on="0"/>
        <pt x="306" y="1525" on="0"/>
        <pt x="282" y="1537" on="1"/>
        <pt x="226" y="1565" on="0"/>
      </contour>
    </TTGlyph>
    <TTGlyph name="J" xMin="12" yMin="-25" xMax="713" yMax="1338">
      <contour>
        <pt x="448" y="1335" on="1"/>
        <pt x="510" y="1330" on="0"/>
        <pt x="538" y="1330" on="1"/>
        <pt x="616" y="1330" on="1"/>
        <pt x="665" y="1330" on="0"/>
        <pt x="713" y="1338" on="1"/>
        <pt x="713" y="442" on="1"/>
        <pt x="713" y="222" on="0"/>
        <pt x="596" y="96" on="1"/>
        <pt x="485" y="-25" on="0"/>
        <pt x="296" y="-25" on="1"/>
        <pt x="166" y="-25" on="0"/>
        <pt x="78" y="27" on="1"/>
        <pt x="45" y="46" on="0"/>
        <pt x="12" y="73" on="1"/>
        <pt x="12" y="362" on="1"/>
        <pt x="19" y="364" on="1"/>
        <pt x="61" y="298" on="0"/>
        <pt x="174" y="214" on="0"/>
        <pt x="258" y="214" on="1"/>
        <pt x="448" y="214" on="0"/>
        <pt x="448" y="434" on="1"/>
      </contour>
    </TTGlyph>
    <TTGlyph name="Jcircumflex" xMin="12" yMin="-25" xMax="950" yMax="1804">
      <contour>
        <pt x="448" y="1335" on="1"/>
        <pt x="510" y="1330" on="0"/>
        <pt x="538" y="1330" on="1"/>
        <pt x="616" y="1330" on="1"/>
        <pt x="665" y="1330" on="0"/>
        <pt x="713" y="1338" on="1"/>
        <pt x="713" y="442" on="1"/>
        <pt x="713" y="222" on="0"/>
        <pt x="596" y="96" on="1"/>
        <pt x="485" y="-25" on="0"/>
        <pt x="296" y="-25" on="1"/>
        <pt x="166" y="-25" on="0"/>
        <pt x="78" y="27" on="1"/>
        <pt x="45" y="46" on="0"/>
        <pt x="12" y="73" on="1"/>
        <pt x="12" y="362" on="1"/>
        <pt x="19" y="364" on="1"/>
        <pt x="61" y="298" on="0"/>
        <pt x="174" y="214" on="0"/>
        <pt x="258" y="214" on="1"/>
        <pt x="448" y="214" on="0"/>
        <pt x="448" y="434" on="1"/>
      </contour>
      <contour>
        <pt x="481" y="1473" on="1"/>
        <pt x="266" y="1473" on="0"/>
        <pt x="218" y="1470" on="1"/>
        <pt x="215" y="1473" on="1"/>
        <pt x="457" y="1804" on="1"/>
        <pt x="481" y="1801" on="0"/>
        <pt x="523" y="1801" on="1"/>
        <pt x="574" y="1801" on="1"/>
        <pt x="695" y="1804" on="1"/>
        <pt x="950" y="1473" on="1"/>
        <pt x="946" y="1470" on="1"/>
        <pt x="691" y="1473" on="1"/>
        <pt x="578" y="1650" on="1"/>
      </contour>
    </TTGlyph>
    <TTGlyph name="K" xMin="172" yMin="-8" xMax="1181" yMax="1338">
      <contour>
        <pt x="427" y="-6" on="1"/>
        <pt x="358" y="0" on="0"/>
        <pt x="251" y="0" on="1"/>
        <pt x="172" y="0" on="1"/>
        <pt x="172" y="1334" on="1"/>
        <pt x="212" y="1332" on="1"/>
        <pt x="254" y="1330" on="0"/>
        <pt x="275" y="1330" on="1"/>
        <pt x="304" y="1330" on="1"/>
        <pt x="392" y="1330" on="0"/>
        <pt x="427" y="1338" on="1"/>
        <pt x="427" y="773" on="1"/>
        <pt x="832" y="1334" on="1"/>
        <pt x="896" y="1330" on="0"/>
        <pt x="940" y="1330" on="1"/>
        <pt x="995" y="1330" on="1"/>
        <pt x="1098" y="1330" on="0"/>
        <pt x="1142" y="1338" on="1"/>
        <pt x="756" y="834" on="1"/>
        <pt x="1136" y="80" on="1"/>
        <pt x="1160" y="25" on="0"/>
        <pt x="1181" y="0" on="1"/>
        <pt x="1120" y="0" on="1"/>
        <pt x="909" y="0" on="0"/>
        <pt x="857" y="-8" on="1"/>
        <pt x="846" y="59" on="0"/>
        <pt x="827" y="109" on="1"/>
        <pt x="572" y="595" on="1"/>
        <pt x="427" y="405" on="1"/>
      </contour>
    </TTGlyph>
    <TTGlyph name="Kcommaaccent" xMin="172" yMin="-613" xMax="1181" yMax="1338">
      <contour>
        <pt x="427" y="-6" on="1"/>
        <pt x="358" y="0" on="0"/>
        <pt x="251" y="0" on="1"/>
        <pt x="172" y="0" on="1"/>
        <pt x="172" y="1334" on="1"/>
        <pt x="212" y="1332" on="1"/>
        <pt x="254" y="1330" on="0"/>
        <pt x="275" y="1330" on="1"/>
        <pt x="304" y="1330" on="1"/>
        <pt x="392" y="1330" on="0"/>
        <pt x="427" y="1338" on="1"/>
        <pt x="427" y="773" on="1"/>
        <pt x="832" y="1334" on="1"/>
        <pt x="896" y="1330" on="0"/>
        <pt x="940" y="1330" on="1"/>
        <pt x="995" y="1330" on="1"/>
        <pt x="1098" y="1330" on="0"/>
        <pt x="1142" y="1338" on="1"/>
        <pt x="756" y="834" on="1"/>
        <pt x="1136" y="80" on="1"/>
        <pt x="1160" y="25" on="0"/>
        <pt x="1181" y="0" on="1"/>
        <pt x="1120" y="0" on="1"/>
        <pt x="909" y="0" on="0"/>
        <pt x="857" y="-8" on="1"/>
        <pt x="846" y="59" on="0"/>
        <pt x="827" y="109" on="1"/>
        <pt x="572" y="595" on="1"/>
        <pt x="427" y="405" on="1"/>
      </contour>
      <contour>
        <pt x="530" y="-607" on="1"/>
        <pt x="591" y="-499" on="0"/>
        <pt x="591" y="-271" on="0"/>
        <pt x="580" y="-191" on="1"/>
        <pt x="829" y="-151" on="1"/>
        <pt x="837" y="-202" on="1"/>
        <pt x="845" y="-258" on="0"/>
        <pt x="845" y="-377" on="0"/>
        <pt x="833" y="-450" on="0"/>
        <pt x="823" y="-476" on="1"/>
        <pt x="799" y="-534" on="0"/>
        <pt x="741" y="-558" on="1"/>
        <pt x="677" y="-584" on="0"/>
        <pt x="536" y="-613" on="1"/>
      </contour>
    </TTGlyph>
    <TTGlyph name="L" xMin="172" yMin="-7" xMax="798" yMax="1336">
      <contour>
        <pt x="367" y="0" on="1"/>
        <pt x="220" y="0" on="0"/>
        <pt x="172" y="-6" on="1"/>
        <pt x="172" y="1336" on="1"/>
        <pt x="196" y="1330" on="0"/>
        <pt x="347" y="1330" on="0"/>
        <pt x="447" y="1334" on="1"/>
        <pt x="447" y="240" on="1"/>
        <pt x="654" y="240" on="1"/>
        <pt x="744" y="240" on="0"/>
        <pt x="798" y="246" on="1"/>
        <pt x="791" y="12" on="0"/>
        <pt x="791" y="3" on="1"/>
        <pt x="791" y="-7" on="1"/>
        <pt x="693" y="0" on="0"/>
        <pt x="462" y="0" on="1"/>
      </contour>
    </TTGlyph>
    <TTGlyph name="Lacute" xMin="172" yMin="-7" xMax="798" yMax="1805">
      <contour>
        <pt x="367" y="0" on="1"/>
        <pt x="220" y="0" on="0"/>
        <pt x="172" y="-6" on="1"/>
        <pt x="172" y="1336" on="1"/>
        <pt x="196" y="1330" on="0"/>
        <pt x="347" y="1330" on="0"/>
        <pt x="447" y="1334" on="1"/>
        <pt x="447" y="240" on="1"/>
        <pt x="654" y="240" on="1"/>
        <pt x="744" y="240" on="0"/>
        <pt x="798" y="246" on="1"/>
        <pt x="791" y="12" on="0"/>
        <pt x="791" y="3" on="1"/>
        <pt x="791" y="-7" on="1"/>
        <pt x="693" y="0" on="0"/>
        <pt x="462" y="0" on="1"/>
      </contour>
      <contour>
        <pt x="470" y="1788" on="1"/>
        <pt x="620" y="1788" on="0"/>
        <pt x="790" y="1805" on="1"/>
        <pt x="789" y="1798" on="1"/>
        <pt x="527" y="1475" on="1"/>
        <pt x="301" y="1475" on="1"/>
      </contour>
    </TTGlyph>
    <TTGlyph name="Lcaron" xMin="172" yMin="-7" xMax="872" yMax="1445">
      <contour>
        <pt x="367" y="0" on="1"/>
        <pt x="220" y="0" on="0"/>
        <pt x="172" y="-6" on="1"/>
        <pt x="172" y="1336" on="1"/>
        <pt x="196" y="1330" on="0"/>
        <pt x="347" y="1330" on="0"/>
        <pt x="447" y="1334" on="1"/>
        <pt x="447" y="240" on="1"/>
        <pt x="654" y="240" on="1"/>
        <pt x="744" y="240" on="0"/>
        <pt x="798" y="246" on="1"/>
        <pt x="791" y="12" on="0"/>
        <pt x="791" y="3" on="1"/>
        <pt x="791" y="-7" on="1"/>
        <pt x="693" y="0" on="0"/>
        <pt x="462" y="0" on="1"/>
      </contour>
      <contour>
        <pt x="861" y="1445" on="1"/>
        <pt x="872" y="1340" on="0"/>
        <pt x="872" y="1233" on="0"/>
        <pt x="865" y="1133" on="0"/>
        <pt x="859" y="1093" on="1"/>
        <pt x="844" y="1007" on="0"/>
        <pt x="823" y="993" on="1"/>
        <pt x="798" y="977" on="0"/>
        <pt x="739" y="966" on="1"/>
        <pt x="628" y="943" on="1"/>
        <pt x="622" y="949" on="1"/>
        <pt x="638" y="977" on="0"/>
        <pt x="638" y="1129" on="1"/>
        <pt x="638" y="1228" on="1"/>
        <pt x="638" y="1330" on="0"/>
        <pt x="632" y="1405" on="1"/>
      </contour>
    </TTGlyph>
    <TTGlyph name="Lcommaaccent" xMin="172" yMin="-613" xMax="798" yMax="1336">
      <contour>
        <pt x="367" y="0" on="1"/>
        <pt x="220" y="0" on="0"/>
        <pt x="172" y="-6" on="1"/>
        <pt x="172" y="1336" on="1"/>
        <pt x="196" y="1330" on="0"/>
        <pt x="347" y="1330" on="0"/>
        <pt x="447" y="1334" on="1"/>
        <pt x="447" y="240" on="1"/>
        <pt x="654" y="240" on="1"/>
        <pt x="744" y="240" on="0"/>
        <pt x="798" y="246" on="1"/>
        <pt x="791" y="12" on="0"/>
        <pt x="791" y="3" on="1"/>
        <pt x="791" y="-7" on="1"/>
        <pt x="693" y="0" on="0"/>
        <pt x="462" y="0" on="1"/>
      </contour>
      <contour>
        <pt x="379" y="-607" on="1"/>
        <pt x="440" y="-499" on="0"/>
        <pt x="440" y="-271" on="0"/>
        <pt x="429" y="-191" on="1"/>
        <pt x="678" y="-151" on="1"/>
        <pt x="686" y="-202" on="1"/>
        <pt x="694" y="-258" on="0"/>
        <pt x="694" y="-377" on="0"/>
        <pt x="682" y="-450" on="0"/>
        <pt x="672" y="-476" on="1"/>
        <pt x="648" y="-534" on="0"/>
        <pt x="590" y="-558" on="1"/>
        <pt x="526" y="-584" on="0"/>
        <pt x="385" y="-613" on="1"/>
      </contour>
    </TTGlyph>
    <TTGlyph name="Ldot" xMin="172" yMin="-7" xMax="982" yMax="1336">
      <contour>
        <pt x="367" y="0" on="1"/>
        <pt x="220" y="0" on="0"/>
        <pt x="172" y="-6" on="1"/>
        <pt x="172" y="1336" on="1"/>
        <pt x="196" y="1330" on="0"/>
        <pt x="347" y="1330" on="0"/>
        <pt x="447" y="1334" on="1"/>
        <pt x="447" y="240" on="1"/>
        <pt x="654" y="240" on="1"/>
        <pt x="744" y="240" on="0"/>
        <pt x="798" y="246" on="1"/>
        <pt x="791" y="12" on="0"/>
        <pt x="791" y="3" on="1"/>
        <pt x="791" y="-7" on="1"/>
        <pt x="693" y="0" on="0"/>
        <pt x="462" y="0" on="1"/>
      </contour>
      <contour>
        <pt x="690" y="687" on="1"/>
        <pt x="699" y="748" on="0"/>
        <pt x="699" y="842" on="0"/>
        <pt x="698" y="877" on="0"/>
        <pt x="696" y="911" on="0"/>
        <pt x="695" y="926" on="1"/>
        <pt x="692" y="951" on="1"/>
        <pt x="982" y="951" on="1"/>
        <pt x="979" y="913" on="0"/>
        <pt x="979" y="889" on="1"/>
        <pt x="977" y="847" on="1"/>
        <pt x="977" y="828" on="0"/>
        <pt x="977" y="723" on="0"/>
        <pt x="982" y="687" on="1"/>
      </contour>
    </TTGlyph>
    <TTGlyph name="Lslash" xMin="25" yMin="-7" xMax="798" yMax="1336">
      <contour>
        <pt x="367" y="0" on="1"/>
        <pt x="220" y="0" on="0"/>
        <pt x="172" y="-6" on="1"/>
        <pt x="172" y="569" on="1"/>
        <pt x="29" y="520" on="1"/>
        <pt x="30" y="539" on="0"/>
        <pt x="30" y="560" on="1"/>
        <pt x="30" y="634" on="1"/>
        <pt x="26" y="729" on="0"/>
        <pt x="25" y="745" on="1"/>
        <pt x="172" y="796" on="1"/>
        <pt x="172" y="1336" on="1"/>
        <pt x="196" y="1330" on="0"/>
        <pt x="347" y="1330" on="0"/>
        <pt x="447" y="1334" on="1"/>
        <pt x="447" y="892" on="1"/>
        <pt x="705" y="982" on="1"/>
        <pt x="706" y="870" on="1"/>
        <pt x="706" y="780" on="1"/>
        <pt x="706" y="765" on="0"/>
        <pt x="707" y="753" on="1"/>
        <pt x="447" y="663" on="1"/>
        <pt x="447" y="240" on="1"/>
        <pt x="654" y="240" on="1"/>
        <pt x="744" y="240" on="0"/>
        <pt x="798" y="246" on="1"/>
        <pt x="791" y="12" on="0"/>
        <pt x="791" y="3" on="1"/>
        <pt x="791" y="-7" on="1"/>
        <pt x="693" y="0" on="0"/>
        <pt x="462" y="0" on="1"/>
      </contour>
    </TTGlyph>
    <TTGlyph name="M" xMin="177" yMin="-6" xMax="1362" yMax="1338">
      <contour>
        <pt x="442" y="-6" on="1"/>
        <pt x="394" y="0" on="0"/>
        <pt x="257" y="0" on="1"/>
        <pt x="177" y="0" on="1"/>
        <pt x="177" y="1334" on="1"/>
        <pt x="241" y="1330" on="0"/>
        <pt x="395" y="1330" on="0"/>
        <pt x="427" y="1338" on="1"/>
        <pt x="763" y="767" on="1"/>
        <pt x="1086" y="1338" on="1"/>
        <pt x="1118" y="1330" on="0"/>
        <pt x="1298" y="1330" on="0"/>
        <pt x="1362" y="1334" on="1"/>
        <pt x="1362" y="0" on="1"/>
        <pt x="1282" y="0" on="1"/>
        <pt x="1145" y="0" on="0"/>
        <pt x="1097" y="-6" on="1"/>
        <pt x="1097" y="890" on="1"/>
        <pt x="770" y="305" on="1"/>
        <pt x="442" y="843" on="1"/>
      </contour>
    </TTGlyph>
    <TTGlyph name="N" xMin="181" yMin="0" xMax="1177" yMax="1330">
      <contour>
        <pt x="181" y="0" on="1"/>
        <pt x="187" y="34" on="0"/>
        <pt x="187" y="74" on="1"/>
        <pt x="187" y="1330" on="1"/>
        <pt x="387" y="1330" on="1"/>
        <pt x="917" y="496" on="1"/>
        <pt x="917" y="1262" on="1"/>
        <pt x="917" y="1317" on="0"/>
        <pt x="907" y="1330" on="1"/>
        <pt x="1177" y="1330" on="1"/>
        <pt x="1172" y="1290" on="0"/>
        <pt x="1172" y="1242" on="1"/>
        <pt x="1172" y="0" on="1"/>
        <pt x="964" y="0" on="1"/>
        <pt x="442" y="801" on="1"/>
        <pt x="442" y="0" on="1"/>
      </contour>
    </TTGlyph>
    <TTGlyph name="Nacute" xMin="181" yMin="0" xMax="1177" yMax="1805">
      <contour>
        <pt x="181" y="0" on="1"/>
        <pt x="187" y="34" on="0"/>
        <pt x="187" y="74" on="1"/>
        <pt x="187" y="1330" on="1"/>
        <pt x="387" y="1330" on="1"/>
        <pt x="917" y="496" on="1"/>
        <pt x="917" y="1262" on="1"/>
        <pt x="917" y="1317" on="0"/>
        <pt x="907" y="1330" on="1"/>
        <pt x="1177" y="1330" on="1"/>
        <pt x="1172" y="1290" on="0"/>
        <pt x="1172" y="1242" on="1"/>
        <pt x="1172" y="0" on="1"/>
        <pt x="964" y="0" on="1"/>
        <pt x="442" y="801" on="1"/>
        <pt x="442" y="0" on="1"/>
      </contour>
      <contour>
        <pt x="604" y="1788" on="1"/>
        <pt x="754" y="1788" on="0"/>
        <pt x="924" y="1805" on="1"/>
        <pt x="923" y="1798" on="1"/>
        <pt x="661" y="1475" on="1"/>
        <pt x="435" y="1475" on="1"/>
      </contour>
    </TTGlyph>
    <TTGlyph name="Ncaron" xMin="181" yMin="0" xMax="1177" yMax="1700">
      <contour>
        <pt x="181" y="0" on="1"/>
        <pt x="187" y="34" on="0"/>
        <pt x="187" y="74" on="1"/>
        <pt x="187" y="1330" on="1"/>
        <pt x="387" y="1330" on="1"/>
        <pt x="917" y="496" on="1"/>
        <pt x="917" y="1262" on="1"/>
        <pt x="917" y="1317" on="0"/>
        <pt x="907" y="1330" on="1"/>
        <pt x="1177" y="1330" on="1"/>
        <pt x="1172" y="1290" on="0"/>
        <pt x="1172" y="1242" on="1"/>
        <pt x="1172" y="0" on="1"/>
        <pt x="964" y="0" on="1"/>
        <pt x="442" y="801" on="1"/>
        <pt x="442" y="0" on="1"/>
      </contour>
      <contour>
        <pt x="671" y="1369" on="1"/>
        <pt x="620" y="1369" on="1"/>
        <pt x="578" y="1369" on="0"/>
        <pt x="554" y="1366" on="1"/>
        <pt x="312" y="1697" on="1"/>
        <pt x="315" y="1700" on="1"/>
        <pt x="363" y="1697" on="0"/>
        <pt x="578" y="1697" on="1"/>
        <pt x="675" y="1520" on="1"/>
        <pt x="788" y="1697" on="1"/>
        <pt x="1043" y="1700" on="1"/>
        <pt x="1047" y="1697" on="1"/>
        <pt x="792" y="1366" on="1"/>
      </contour>
    </TTGlyph>
    <TTGlyph name="Ncommaaccent" xMin="181" yMin="-613" xMax="1177" yMax="1330">
      <contour>
        <pt x="181" y="0" on="1"/>
        <pt x="187" y="34" on="0"/>
        <pt x="187" y="74" on="1"/>
        <pt x="187" y="1330" on="1"/>
        <pt x="387" y="1330" on="1"/>
        <pt x="917" y="496" on="1"/>
        <pt x="917" y="1262" on="1"/>
        <pt x="917" y="1317" on="0"/>
        <pt x="907" y="1330" on="1"/>
        <pt x="1177" y="1330" on="1"/>
        <pt x="1172" y="1290" on="0"/>
        <pt x="1172" y="1242" on="1"/>
        <pt x="1172" y="0" on="1"/>
        <pt x="964" y="0" on="1"/>
        <pt x="442" y="801" on="1"/>
        <pt x="442" y="0" on="1"/>
      </contour>
      <contour>
        <pt x="513" y="-607" on="1"/>
        <pt x="574" y="-499" on="0"/>
        <pt x="574" y="-271" on="0"/>
        <pt x="563" y="-191" on="1"/>
        <pt x="812" y="-151" on="1"/>
        <pt x="820" y="-202" on="1"/>
        <pt x="828" y="-258" on="0"/>
        <pt x="828" y="-377" on="0"/>
        <pt x="816" y="-450" on="0"/>
        <pt x="806" y="-476" on="1"/>
        <pt x="782" y="-534" on="0"/>
        <pt x="724" y="-558" on="1"/>
        <pt x="660" y="-584" on="0"/>
        <pt x="519" y="-613" on="1"/>
      </contour>
    </TTGlyph>
    <TTGlyph name="Ntilde" xMin="181" yMin="0" xMax="1177" yMax="1770">
      <contour>
        <pt x="181" y="0" on="1"/>
        <pt x="187" y="34" on="0"/>
        <pt x="187" y="74" on="1"/>
        <pt x="187" y="1330" on="1"/>
        <pt x="387" y="1330" on="1"/>
        <pt x="917" y="496" on="1"/>
        <pt x="917" y="1262" on="1"/>
        <pt x="917" y="1317" on="0"/>
        <pt x="907" y="1330" on="1"/>
        <pt x="1177" y="1330" on="1"/>
        <pt x="1172" y="1290" on="0"/>
        <pt x="1172" y="1242" on="1"/>
        <pt x="1172" y="0" on="1"/>
        <pt x="964" y="0" on="1"/>
        <pt x="442" y="801" on="1"/>
        <pt x="442" y="0" on="1"/>
      </contour>
      <contour>
        <pt x="516" y="1565" on="1"/>
        <pt x="422" y="1565" on="0"/>
        <pt x="349" y="1490" on="1"/>
        <pt x="345" y="1491" on="1"/>
        <pt x="341" y="1690" on="1"/>
        <pt x="409" y="1770" on="0"/>
        <pt x="526" y="1770" on="1"/>
        <pt x="618" y="1770" on="0"/>
        <pt x="776" y="1661" on="0"/>
        <pt x="860" y="1661" on="1"/>
        <pt x="979" y="1661" on="0"/>
        <pt x="1016" y="1745" on="1"/>
        <pt x="1018" y="1743" on="1"/>
        <pt x="1008" y="1527" on="1"/>
        <pt x="991" y="1497" on="0"/>
        <pt x="903" y="1458" on="0"/>
        <pt x="807" y="1458" on="0"/>
        <pt x="748" y="1474" on="0"/>
        <pt x="698" y="1498" on="0"/>
        <pt x="655" y="1525" on="0"/>
        <pt x="631" y="1537" on="1"/>
        <pt x="575" y="1565" on="0"/>
      </contour>
    </TTGlyph>
    <TTGlyph name="O" xMin="85" yMin="-25" xMax="1450" yMax="1355">
      <contour>
        <pt x="190" y="245" on="0"/>
        <pt x="85" y="489" on="0"/>
        <pt x="85" y="780" on="0"/>
        <pt x="183" y="1040" on="0"/>
        <pt x="365" y="1238" on="0"/>
        <pt x="623" y="1355" on="0"/>
        <pt x="783" y="1355" on="1"/>
        <pt x="1059" y="1355" on="0"/>
        <pt x="1248" y="1181" on="1"/>
        <pt x="1450" y="995" on="0"/>
        <pt x="1450" y="679" on="1"/>
        <pt x="1450" y="373" on="0"/>
        <pt x="1242" y="170" on="1"/>
        <pt x="1114" y="45" on="0"/>
        <pt x="937" y="-2" on="1"/>
        <pt x="850" y="-25" on="0"/>
        <pt x="617" y="-25" on="0"/>
        <pt x="372" y="71" on="0"/>
      </contour>
      <contour>
        <pt x="363" y="648" on="1"/>
        <pt x="363" y="555" on="0"/>
        <pt x="425" y="399" on="0"/>
        <pt x="480" y="343" on="1"/>
        <pt x="597" y="225" on="0"/>
        <pt x="781" y="225" on="1"/>
        <pt x="956" y="225" on="0"/>
        <pt x="1062" y="338" on="1"/>
        <pt x="1170" y="455" on="0"/>
        <pt x="1170" y="657" on="1"/>
        <pt x="1170" y="847" on="0"/>
        <pt x="1067" y="974" on="1"/>
        <pt x="956" y="1110" on="0"/>
        <pt x="763" y="1110" on="1"/>
        <pt x="576" y="1110" on="0"/>
        <pt x="466" y="972" on="1"/>
        <pt x="363" y="843" on="0"/>
      </contour>
    </TTGlyph>
    <TTGlyph name="OE" xMin="72" yMin="-25" xMax="1950" yMax="1355">
      <contour>
        <pt x="1181" y="143" on="1"/>
        <pt x="992" y="-25" on="0"/>
        <pt x="745" y="-25" on="1"/>
        <pt x="459" y="-25" on="0"/>
        <pt x="268" y="158" on="1"/>
        <pt x="72" y="345" on="0"/>
        <pt x="72" y="637" on="1"/>
        <pt x="72" y="933" on="0"/>
        <pt x="262" y="1139" on="1"/>
        <pt x="462" y="1355" on="0"/>
        <pt x="772" y="1355" on="1"/>
        <pt x="1008" y="1355" on="0"/>
        <pt x="1181" y="1209" on="1"/>
        <pt x="1181" y="1337" on="1"/>
        <pt x="1208" y="1335" on="0"/>
        <pt x="1240" y="1334" on="1"/>
        <pt x="1308" y="1332" on="1"/>
        <pt x="1376" y="1330" on="0"/>
        <pt x="1457" y="1330" on="1"/>
        <pt x="1702" y="1330" on="0"/>
        <pt x="1926" y="1338" on="1"/>
        <pt x="1915" y="1250" on="0"/>
        <pt x="1915" y="1103" on="1"/>
        <pt x="1915" y="1087" on="0"/>
        <pt x="1917" y="1079" on="1"/>
        <pt x="1915" y="1076" on="1"/>
        <pt x="1862" y="1091" on="0"/>
        <pt x="1767" y="1091" on="1"/>
        <pt x="1436" y="1091" on="1"/>
        <pt x="1436" y="836" on="1"/>
        <pt x="1728" y="836" on="1"/>
        <pt x="1838" y="836" on="0"/>
        <pt x="1860" y="842" on="1"/>
        <pt x="1863" y="595" on="1"/>
        <pt x="1815" y="600" on="0"/>
        <pt x="1739" y="600" on="1"/>
        <pt x="1436" y="600" on="1"/>
        <pt x="1436" y="240" on="1"/>
        <pt x="1860" y="240" on="1"/>
        <pt x="1922" y="240" on="0"/>
        <pt x="1946" y="252" on="1"/>
        <pt x="1950" y="251" on="1"/>
        <pt x="1940" y="0" on="1"/>
        <pt x="1181" y="0" on="1"/>
      </contour>
      <contour>
        <pt x="330" y="648" on="1"/>
        <pt x="330" y="555" on="0"/>
        <pt x="399" y="396" on="0"/>
        <pt x="458" y="338" on="1"/>
        <pt x="583" y="215" on="0"/>
        <pt x="768" y="215" on="1"/>
        <pt x="943" y="215" on="0"/>
        <pt x="1059" y="334" on="1"/>
        <pt x="1181" y="460" on="0"/>
        <pt x="1181" y="657" on="1"/>
        <pt x="1181" y="852" on="0"/>
        <pt x="1058" y="982" on="1"/>
        <pt x="935" y="1110" on="0"/>
        <pt x="752" y="1110" on="1"/>
        <pt x="563" y="1110" on="0"/>
        <pt x="443" y="972" on="1"/>
        <pt x="330" y="841" on="0"/>
      </contour>
    </TTGlyph>
    <TTGlyph name="Oacute" xMin="85" yMin="-25" xMax="1450" yMax="1805">
      <contour>
        <pt x="190" y="245" on="0"/>
        <pt x="85" y="489" on="0"/>
        <pt x="85" y="780" on="0"/>
        <pt x="183" y="1040" on="0"/>
        <pt x="365" y="1238" on="0"/>
        <pt x="623" y="1355" on="0"/>
        <pt x="783" y="1355" on="1"/>
        <pt x="1059" y="1355" on="0"/>
        <pt x="1248" y="1181" on="1"/>
        <pt x="1450" y="995" on="0"/>
        <pt x="1450" y="679" on="1"/>
        <pt x="1450" y="373" on="0"/>
        <pt x="1242" y="170" on="1"/>
        <pt x="1114" y="45" on="0"/>
        <pt x="937" y="-2" on="1"/>
        <pt x="850" y="-25" on="0"/>
        <pt x="617" y="-25" on="0"/>
        <pt x="372" y="71" on="0"/>
      </contour>
      <contour>
        <pt x="363" y="648" on="1"/>
        <pt x="363" y="555" on="0"/>
        <pt x="425" y="399" on="0"/>
        <pt x="480" y="343" on="1"/>
        <pt x="597" y="225" on="0"/>
        <pt x="781" y="225" on="1"/>
        <pt x="956" y="225" on="0"/>
        <pt x="1062" y="338" on="1"/>
        <pt x="1170" y="455" on="0"/>
        <pt x="1170" y="657" on="1"/>
        <pt x="1170" y="847" on="0"/>
        <pt x="1067" y="974" on="1"/>
        <pt x="956" y="1110" on="0"/>
        <pt x="763" y="1110" on="1"/>
        <pt x="576" y="1110" on="0"/>
        <pt x="466" y="972" on="1"/>
        <pt x="363" y="843" on="0"/>
      </contour>
      <contour>
        <pt x="692" y="1788" on="1"/>
        <pt x="842" y="1788" on="0"/>
        <pt x="1012" y="1805" on="1"/>
        <pt x="1011" y="1798" on="1"/>
        <pt x="749" y="1475" on="1"/>
        <pt x="523" y="1475" on="1"/>
      </contour>
    </TTGlyph>
    <TTGlyph name="Obreve" xMin="85" yMin="-25" xMax="1450" yMax="1806">
      <contour>
        <pt x="190" y="245" on="0"/>
        <pt x="85" y="489" on="0"/>
        <pt x="85" y="780" on="0"/>
        <pt x="183" y="1040" on="0"/>
        <pt x="365" y="1238" on="0"/>
        <pt x="623" y="1355" on="0"/>
        <pt x="783" y="1355" on="1"/>
        <pt x="1059" y="1355" on="0"/>
        <pt x="1248" y="1181" on="1"/>
        <pt x="1450" y="995" on="0"/>
        <pt x="1450" y="679" on="1"/>
        <pt x="1450" y="373" on="0"/>
        <pt x="1242" y="170" on="1"/>
        <pt x="1114" y="45" on="0"/>
        <pt x="937" y="-2" on="1"/>
        <pt x="850" y="-25" on="0"/>
        <pt x="617" y="-25" on="0"/>
        <pt x="372" y="71" on="0"/>
      </contour>
      <contour>
        <pt x="363" y="648" on="1"/>
        <pt x="363" y="555" on="0"/>
        <pt x="425" y="399" on="0"/>
        <pt x="480" y="343" on="1"/>
        <pt x="597" y="225" on="0"/>
        <pt x="781" y="225" on="1"/>
        <pt x="956" y="225" on="0"/>
        <pt x="1062" y="338" on="1"/>
        <pt x="1170" y="455" on="0"/>
        <pt x="1170" y="657" on="1"/>
        <pt x="1170" y="847" on="0"/>
        <pt x="1067" y="974" on="1"/>
        <pt x="956" y="1110" on="0"/>
        <pt x="763" y="1110" on="1"/>
        <pt x="576" y="1110" on="0"/>
        <pt x="466" y="972" on="1"/>
        <pt x="363" y="843" on="0"/>
      </contour>
      <contour>
        <pt x="1112" y="1806" on="1"/>
        <pt x="1122" y="1796" on="0"/>
        <pt x="1122" y="1680" on="0"/>
        <pt x="1081" y="1567" on="0"/>
        <pt x="1038" y="1522" on="1"/>
        <pt x="941" y="1421" on="0"/>
        <pt x="767" y="1421" on="1"/>
        <pt x="593" y="1421" on="0"/>
        <pt x="496" y="1522" on="1"/>
        <pt x="412" y="1610" on="0"/>
        <pt x="412" y="1737" on="1"/>
        <pt x="412" y="1796" on="0"/>
        <pt x="422" y="1806" on="1"/>
        <pt x="555" y="1803" on="1"/>
        <pt x="565" y="1724" on="0"/>
        <pt x="592" y="1686" on="1"/>
        <pt x="651" y="1602" on="0"/>
        <pt x="767" y="1602" on="1"/>
        <pt x="883" y="1602" on="0"/>
        <pt x="938" y="1680" on="1"/>
        <pt x="969" y="1724" on="0"/>
        <pt x="979" y="1803" on="1"/>
      </contour>
    </TTGlyph>
    <TTGlyph name="Ocircumflex" xMin="85" yMin="-25" xMax="1450" yMax="1804">
      <contour>
        <pt x="190" y="245" on="0"/>
        <pt x="85" y="489" on="0"/>
        <pt x="85" y="780" on="0"/>
        <pt x="183" y="1040" on="0"/>
        <pt x="365" y="1238" on="0"/>
        <pt x="623" y="1355" on="0"/>
        <pt x="783" y="1355" on="1"/>
        <pt x="1059" y="1355" on="0"/>
        <pt x="1248" y="1181" on="1"/>
        <pt x="1450" y="995" on="0"/>
        <pt x="1450" y="679" on="1"/>
        <pt x="1450" y="373" on="0"/>
        <pt x="1242" y="170" on="1"/>
        <pt x="1114" y="45" on="0"/>
        <pt x="937" y="-2" on="1"/>
        <pt x="850" y="-25" on="0"/>
        <pt x="617" y="-25" on="0"/>
        <pt x="372" y="71" on="0"/>
      </contour>
      <contour>
        <pt x="363" y="648" on="1"/>
        <pt x="363" y="555" on="0"/>
        <pt x="425" y="399" on="0"/>
        <pt x="480" y="343" on="1"/>
        <pt x="597" y="225" on="0"/>
        <pt x="781" y="225" on="1"/>
        <pt x="956" y="225" on="0"/>
        <pt x="1062" y="338" on="1"/>
        <pt x="1170" y="455" on="0"/>
        <pt x="1170" y="657" on="1"/>
        <pt x="1170" y="847" on="0"/>
        <pt x="1067" y="974" on="1"/>
        <pt x="956" y="1110" on="0"/>
        <pt x="763" y="1110" on="1"/>
        <pt x="576" y="1110" on="0"/>
        <pt x="466" y="972" on="1"/>
        <pt x="363" y="843" on="0"/>
      </contour>
      <contour>
        <pt x="666" y="1473" on="1"/>
        <pt x="451" y="1473" on="0"/>
        <pt x="403" y="1470" on="1"/>
        <pt x="400" y="1473" on="1"/>
        <pt x="642" y="1804" on="1"/>
        <pt x="666" y="1801" on="0"/>
        <pt x="708" y="1801" on="1"/>
        <pt x="759" y="1801" on="1"/>
        <pt x="880" y="1804" on="1"/>
        <pt x="1135" y="1473" on="1"/>
        <pt x="1131" y="1470" on="1"/>
        <pt x="876" y="1473" on="1"/>
        <pt x="763" y="1650" on="1"/>
      </contour>
    </TTGlyph>
    <TTGlyph name="Odieresis" xMin="85" yMin="-25" xMax="1450" yMax="1715">
      <contour>
        <pt x="190" y="245" on="0"/>
        <pt x="85" y="489" on="0"/>
        <pt x="85" y="780" on="0"/>
        <pt x="183" y="1040" on="0"/>
        <pt x="365" y="1238" on="0"/>
        <pt x="623" y="1355" on="0"/>
        <pt x="783" y="1355" on="1"/>
        <pt x="1059" y="1355" on="0"/>
        <pt x="1248" y="1181" on="1"/>
        <pt x="1450" y="995" on="0"/>
        <pt x="1450" y="679" on="1"/>
        <pt x="1450" y="373" on="0"/>
        <pt x="1242" y="170" on="1"/>
        <pt x="1114" y="45" on="0"/>
        <pt x="937" y="-2" on="1"/>
        <pt x="850" y="-25" on="0"/>
        <pt x="617" y="-25" on="0"/>
        <pt x="372" y="71" on="0"/>
      </contour>
      <contour>
        <pt x="363" y="648" on="1"/>
        <pt x="363" y="555" on="0"/>
        <pt x="425" y="399" on="0"/>
        <pt x="480" y="343" on="1"/>
        <pt x="597" y="225" on="0"/>
        <pt x="781" y="225" on="1"/>
        <pt x="956" y="225" on="0"/>
        <pt x="1062" y="338" on="1"/>
        <pt x="1170" y="455" on="0"/>
        <pt x="1170" y="657" on="1"/>
        <pt x="1170" y="847" on="0"/>
        <pt x="1067" y="974" on="1"/>
        <pt x="956" y="1110" on="0"/>
        <pt x="763" y="1110" on="1"/>
        <pt x="576" y="1110" on="0"/>
        <pt x="466" y="972" on="1"/>
        <pt x="363" y="843" on="0"/>
      </contour>
      <contour>
        <pt x="1115" y="1715" on="1"/>
        <pt x="1111" y="1665" on="0"/>
        <pt x="1111" y="1510" on="0"/>
        <pt x="1115" y="1475" on="1"/>
        <pt x="850" y="1475" on="1"/>
        <pt x="858" y="1537" on="0"/>
        <pt x="858" y="1658" on="0"/>
        <pt x="852" y="1715" on="1"/>
      </contour>
      <contour>
        <pt x="685" y="1715" on="1"/>
        <pt x="681" y="1665" on="0"/>
        <pt x="681" y="1510" on="0"/>
        <pt x="685" y="1475" on="1"/>
        <pt x="420" y="1475" on="1"/>
        <pt x="428" y="1537" on="0"/>
        <pt x="428" y="1658" on="0"/>
        <pt x="422" y="1715" on="1"/>
      </contour>
    </TTGlyph>
    <TTGlyph name="Ograve" xMin="85" yMin="-25" xMax="1450" yMax="1805">
      <contour>
        <pt x="190" y="245" on="0"/>
        <pt x="85" y="489" on="0"/>
        <pt x="85" y="780" on="0"/>
        <pt x="183" y="1040" on="0"/>
        <pt x="365" y="1238" on="0"/>
        <pt x="623" y="1355" on="0"/>
        <pt x="783" y="1355" on="1"/>
        <pt x="1059" y="1355" on="0"/>
        <pt x="1248" y="1181" on="1"/>
        <pt x="1450" y="995" on="0"/>
        <pt x="1450" y="679" on="1"/>
        <pt x="1450" y="373" on="0"/>
        <pt x="1242" y="170" on="1"/>
        <pt x="1114" y="45" on="0"/>
        <pt x="937" y="-2" on="1"/>
        <pt x="850" y="-25" on="0"/>
        <pt x="617" y="-25" on="0"/>
        <pt x="372" y="71" on="0"/>
      </contour>
      <contour>
        <pt x="363" y="648" on="1"/>
        <pt x="363" y="555" on="0"/>
        <pt x="425" y="399" on="0"/>
        <pt x="480" y="343" on="1"/>
        <pt x="597" y="225" on="0"/>
        <pt x="781" y="225" on="1"/>
        <pt x="956" y="225" on="0"/>
        <pt x="1062" y="338" on="1"/>
        <pt x="1170" y="455" on="0"/>
        <pt x="1170" y="657" on="1"/>
        <pt x="1170" y="847" on="0"/>
        <pt x="1067" y="974" on="1"/>
        <pt x="956" y="1110" on="0"/>
        <pt x="763" y="1110" on="1"/>
        <pt x="576" y="1110" on="0"/>
        <pt x="466" y="972" on="1"/>
        <pt x="363" y="843" on="0"/>
      </contour>
      <contour>
        <pt x="523" y="1805" on="1"/>
        <pt x="693" y="1788" on="0"/>
        <pt x="843" y="1788" on="1"/>
        <pt x="1012" y="1475" on="1"/>
        <pt x="786" y="1475" on="1"/>
        <pt x="524" y="1798" on="1"/>
      </contour>
    </TTGlyph>
    <TTGlyph name="Ohungarumlaut" xMin="85" yMin="-25" xMax="1450" yMax="1825">
      <contour>
        <pt x="190" y="245" on="0"/>
        <pt x="85" y="489" on="0"/>
        <pt x="85" y="780" on="0"/>
        <pt x="183" y="1040" on="0"/>
        <pt x="365" y="1238" on="0"/>
        <pt x="623" y="1355" on="0"/>
        <pt x="783" y="1355" on="1"/>
        <pt x="1059" y="1355" on="0"/>
        <pt x="1248" y="1181" on="1"/>
        <pt x="1450" y="995" on="0"/>
        <pt x="1450" y="679" on="1"/>
        <pt x="1450" y="373" on="0"/>
        <pt x="1242" y="170" on="1"/>
        <pt x="1114" y="45" on="0"/>
        <pt x="937" y="-2" on="1"/>
        <pt x="850" y="-25" on="0"/>
        <pt x="617" y="-25" on="0"/>
        <pt x="372" y="71" on="0"/>
      </contour>
      <contour>
        <pt x="363" y="648" on="1"/>
        <pt x="363" y="555" on="0"/>
        <pt x="425" y="399" on="0"/>
        <pt x="480" y="343" on="1"/>
        <pt x="597" y="225" on="0"/>
        <pt x="781" y="225" on="1"/>
        <pt x="956" y="225" on="0"/>
        <pt x="1062" y="338" on="1"/>
        <pt x="1170" y="455" on="0"/>
        <pt x="1170" y="657" on="1"/>
        <pt x="1170" y="847" on="0"/>
        <pt x="1067" y="974" on="1"/>
        <pt x="956" y="1110" on="0"/>
        <pt x="763" y="1110" on="1"/>
        <pt x="576" y="1110" on="0"/>
        <pt x="466" y="972" on="1"/>
        <pt x="363" y="843" on="0"/>
      </contour>
      <contour>
        <pt x="999" y="1808" on="1"/>
        <pt x="1079" y="1808" on="0"/>
        <pt x="1249" y="1825" on="1"/>
        <pt x="1248" y="1818" on="1"/>
        <pt x="986" y="1495" on="1"/>
        <pt x="830" y="1495" on="1"/>
      </contour>
      <contour>
        <pt x="614" y="1808" on="1"/>
        <pt x="666" y="1808" on="0"/>
        <pt x="704" y="1812" on="1"/>
        <pt x="844" y="1825" on="1"/>
        <pt x="843" y="1818" on="1"/>
        <pt x="581" y="1495" on="1"/>
        <pt x="445" y="1495" on="1"/>
      </contour>
    </TTGlyph>
    <TTGlyph name="Omacron" xMin="85" yMin="-25" xMax="1450" yMax="1700">
      <contour>
        <pt x="190" y="245" on="0"/>
        <pt x="85" y="489" on="0"/>
        <pt x="85" y="780" on="0"/>
        <pt x="183" y="1040" on="0"/>
        <pt x="365" y="1238" on="0"/>
        <pt x="623" y="1355" on="0"/>
        <pt x="783" y="1355" on="1"/>
        <pt x="1059" y="1355" on="0"/>
        <pt x="1248" y="1181" on="1"/>
        <pt x="1450" y="995" on="0"/>
        <pt x="1450" y="679" on="1"/>
        <pt x="1450" y="373" on="0"/>
        <pt x="1242" y="170" on="1"/>
        <pt x="1114" y="45" on="0"/>
        <pt x="937" y="-2" on="1"/>
        <pt x="850" y="-25" on="0"/>
        <pt x="617" y="-25" on="0"/>
        <pt x="372" y="71" on="0"/>
      </contour>
      <contour>
        <pt x="363" y="648" on="1"/>
        <pt x="363" y="555" on="0"/>
        <pt x="425" y="399" on="0"/>
        <pt x="480" y="343" on="1"/>
        <pt x="597" y="225" on="0"/>
        <pt x="781" y="225" on="1"/>
        <pt x="956" y="225" on="0"/>
        <pt x="1062" y="338" on="1"/>
        <pt x="1170" y="455" on="0"/>
        <pt x="1170" y="657" on="1"/>
        <pt x="1170" y="847" on="0"/>
        <pt x="1067" y="974" on="1"/>
        <pt x="956" y="1110" on="0"/>
        <pt x="763" y="1110" on="1"/>
        <pt x="576" y="1110" on="0"/>
        <pt x="466" y="972" on="1"/>
        <pt x="363" y="843" on="0"/>
      </contour>
      <contour>
        <pt x="1111" y="1700" on="1"/>
        <pt x="1107" y="1650" on="0"/>
        <pt x="1107" y="1624" on="1"/>
        <pt x="1107" y="1590" on="1"/>
        <pt x="1107" y="1582" on="0"/>
        <pt x="1111" y="1530" on="1"/>
        <pt x="436" y="1530" on="1"/>
        <pt x="439" y="1556" on="1"/>
        <pt x="444" y="1589" on="0"/>
        <pt x="444" y="1643" on="0"/>
        <pt x="438" y="1700" on="1"/>
      </contour>
    </TTGlyph>
    <TTGlyph name="Omega" xMin="160" yMin="-15" xMax="1364" yMax="1338">
      <contour>
        <pt x="651" y="163" on="0"/>
        <pt x="651" y="45" on="0"/>
        <pt x="623" y="-15" on="1"/>
        <pt x="160" y="-15" on="1"/>
        <pt x="163" y="222" on="1"/>
        <pt x="186" y="216" on="0"/>
        <pt x="295" y="216" on="1"/>
        <pt x="375" y="216" on="1"/>
        <pt x="352" y="262" on="0"/>
        <pt x="281" y="357" on="0"/>
        <pt x="248" y="418" on="1"/>
        <pt x="166" y="568" on="0"/>
        <pt x="166" y="763" on="1"/>
        <pt x="166" y="1030" on="0"/>
        <pt x="320" y="1185" on="1"/>
        <pt x="471" y="1338" on="0"/>
        <pt x="734" y="1338" on="1"/>
        <pt x="976" y="1338" on="0"/>
        <pt x="1277" y="1018" on="0"/>
        <pt x="1277" y="763" on="1"/>
        <pt x="1277" y="517" on="0"/>
        <pt x="1154" y="308" on="1"/>
        <pt x="1126" y="262" on="0"/>
        <pt x="1111" y="216" on="1"/>
        <pt x="1178" y="216" on="0"/>
        <pt x="1337" y="216" on="0"/>
        <pt x="1361" y="222" on="1"/>
        <pt x="1364" y="-15" on="1"/>
        <pt x="887" y="-15" on="1"/>
        <pt x="857" y="61" on="0"/>
        <pt x="857" y="197" on="0"/>
        <pt x="880" y="294" on="0"/>
        <pt x="913" y="387" on="0"/>
        <pt x="953" y="478" on="0"/>
        <pt x="970" y="524" on="1"/>
        <pt x="1009" y="636" on="0"/>
        <pt x="1009" y="830" on="0"/>
        <pt x="967" y="976" on="0"/>
        <pt x="929" y="1020" on="1"/>
        <pt x="860" y="1098" on="0"/>
        <pt x="721" y="1098" on="1"/>
        <pt x="411" y="1098" on="0"/>
        <pt x="411" y="720" on="1"/>
        <pt x="411" y="605" on="0"/>
        <pt x="531" y="414" on="1"/>
        <pt x="603" y="298" on="0"/>
      </contour>
    </TTGlyph>
    <TTGlyph name="Oslash" xMin="85" yMin="-170" xMax="1450" yMax="1530">
      <contour>
        <pt x="730" y="-25" on="1"/>
        <pt x="610" y="-25" on="0"/>
        <pt x="482" y="28" on="1"/>
        <pt x="366" y="-170" on="1"/>
        <pt x="170" y="-170" on="1"/>
        <pt x="335" y="112" on="1"/>
        <pt x="220" y="200" on="0"/>
        <pt x="85" y="466" on="0"/>
        <pt x="85" y="780" on="0"/>
        <pt x="183" y="1040" on="0"/>
        <pt x="365" y="1238" on="0"/>
        <pt x="623" y="1355" on="0"/>
        <pt x="917" y="1355" on="0"/>
        <pt x="1036" y="1310" on="1"/>
        <pt x="1164" y="1530" on="1"/>
        <pt x="1360" y="1530" on="1"/>
        <pt x="1185" y="1231" on="1"/>
        <pt x="1450" y="1042" on="0"/>
        <pt x="1450" y="679" on="1"/>
        <pt x="1450" y="373" on="0"/>
        <pt x="1242" y="170" on="1"/>
        <pt x="1043" y="-25" on="0"/>
      </contour>
      <contour>
        <pt x="905" y="1087" on="1"/>
        <pt x="839" y="1110" on="0"/>
        <pt x="665" y="1110" on="0"/>
        <pt x="516" y="1035" on="0"/>
        <pt x="466" y="972" on="1"/>
        <pt x="363" y="843" on="0"/>
        <pt x="363" y="648" on="1"/>
        <pt x="363" y="467" on="0"/>
        <pt x="474" y="350" on="1"/>
      </contour>
      <contour>
        <pt x="615" y="255" on="1"/>
        <pt x="696" y="225" on="0"/>
        <pt x="867" y="225" on="0"/>
        <pt x="1010" y="283" on="0"/>
        <pt x="1062" y="338" on="1"/>
        <pt x="1170" y="455" on="0"/>
        <pt x="1170" y="657" on="1"/>
        <pt x="1170" y="866" on="0"/>
        <pt x="1047" y="995" on="1"/>
      </contour>
    </TTGlyph>
    <TTGlyph name="Otilde" xMin="85" yMin="-25" xMax="1450" yMax="1770">
      <contour>
        <pt x="190" y="245" on="0"/>
        <pt x="85" y="489" on="0"/>
        <pt x="85" y="780" on="0"/>
        <pt x="183" y="1040" on="0"/>
        <pt x="365" y="1238" on="0"/>
        <pt x="623" y="1355" on="0"/>
        <pt x="783" y="1355" on="1"/>
        <pt x="1059" y="1355" on="0"/>
        <pt x="1248" y="1181" on="1"/>
        <pt x="1450" y="995" on="0"/>
        <pt x="1450" y="679" on="1"/>
        <pt x="1450" y="373" on="0"/>
        <pt x="1242" y="170" on="1"/>
        <pt x="1114" y="45" on="0"/>
        <pt x="937" y="-2" on="1"/>
        <pt x="850" y="-25" on="0"/>
        <pt x="617" y="-25" on="0"/>
        <pt x="372" y="71" on="0"/>
      </contour>
      <contour>
        <pt x="363" y="648" on="1"/>
        <pt x="363" y="555" on="0"/>
        <pt x="425" y="399" on="0"/>
        <pt x="480" y="343" on="1"/>
        <pt x="597" y="225" on="0"/>
        <pt x="781" y="225" on="1"/>
        <pt x="956" y="225" on="0"/>
        <pt x="1062" y="338" on="1"/>
        <pt x="1170" y="455" on="0"/>
        <pt x="1170" y="657" on="1"/>
        <pt x="1170" y="847" on="0"/>
        <pt x="1067" y="974" on="1"/>
        <pt x="956" y="1110" on="0"/>
        <pt x="763" y="1110" on="1"/>
        <pt x="576" y="1110" on="0"/>
        <pt x="466" y="972" on="1"/>
        <pt x="363" y="843" on="0"/>
      </contour>
      <contour>
        <pt x="604" y="1565" on="1"/>
        <pt x="510" y="1565" on="0"/>
        <pt x="437" y="1490" on="1"/>
        <pt x="433" y="1491" on="1"/>
        <pt x="429" y="1690" on="1"/>
        <pt x="497" y="1770" on="0"/>
        <pt x="614" y="1770" on="1"/>
        <pt x="706" y="1770" on="0"/>
        <pt x="864" y="1661" on="0"/>
        <pt x="948" y="1661" on="1"/>
        <pt x="1067" y="1661" on="0"/>
        <pt x="1104" y="1745" on="1"/>
        <pt x="1106" y="1743" on="1"/>
        <pt x="1096" y="1527" on="1"/>
        <pt x="1079" y="1497" on="0"/>
        <pt x="991" y="1458" on="0"/>
        <pt x="895" y="1458" on="0"/>
        <pt x="836" y="1474" on="0"/>
        <pt x="786" y="1498" on="0"/>
        <pt x="743" y="1525" on="0"/>
        <pt x="719" y="1537" on="1"/>
        <pt x="663" y="1565" on="0"/>
      </contour>
    </TTGlyph>
    <TTGlyph name="P" xMin="153" yMin="0" xMax="993" yMax="1355">
      <contour>
        <pt x="153" y="1337" on="1"/>
        <pt x="292" y="1355" on="0"/>
        <pt x="438" y="1355" on="1"/>
        <pt x="710" y="1355" on="0"/>
        <pt x="993" y="1100" on="0"/>
        <pt x="993" y="846" on="1"/>
        <pt x="993" y="619" on="0"/>
        <pt x="838" y="487" on="1"/>
        <pt x="693" y="363" on="0"/>
        <pt x="465" y="363" on="1"/>
        <pt x="439" y="363" on="0"/>
        <pt x="408" y="366" on="1"/>
        <pt x="408" y="0" on="1"/>
        <pt x="153" y="0" on="1"/>
      </contour>
      <contour>
        <pt x="468" y="1114" on="1"/>
        <pt x="438" y="1114" on="0"/>
        <pt x="408" y="1112" on="1"/>
        <pt x="408" y="586" on="1"/>
        <pt x="440" y="582" on="0"/>
        <pt x="532" y="582" on="0"/>
        <pt x="632" y="621" on="0"/>
        <pt x="666" y="656" on="1"/>
        <pt x="737" y="729" on="0"/>
        <pt x="737" y="848" on="1"/>
        <pt x="737" y="1114" on="0"/>
      </contour>
    </TTGlyph>
    <TTGlyph name="Q" xMin="82" yMin="-166" xMax="1595" yMax="1355">
      <contour>
        <pt x="918" y="-6" on="1"/>
        <pt x="834" y="-25" on="0"/>
        <pt x="614" y="-25" on="0"/>
        <pt x="369" y="71" on="0"/>
        <pt x="278" y="158" on="1"/>
        <pt x="82" y="345" on="0"/>
        <pt x="82" y="637" on="1"/>
        <pt x="82" y="933" on="0"/>
        <pt x="272" y="1139" on="1"/>
        <pt x="472" y="1355" on="0"/>
        <pt x="782" y="1355" on="1"/>
        <pt x="1064" y="1355" on="0"/>
        <pt x="1250" y="1177" on="1"/>
        <pt x="1447" y="987" on="0"/>
        <pt x="1447" y="679" on="1"/>
        <pt x="1447" y="432" on="0"/>
        <pt x="1307" y="247" on="1"/>
        <pt x="1263" y="189" on="0"/>
        <pt x="1209" y="143" on="1"/>
        <pt x="1245" y="133" on="0"/>
        <pt x="1296" y="110" on="1"/>
        <pt x="1405" y="59" on="0"/>
        <pt x="1502" y="57" on="1"/>
        <pt x="1522" y="57" on="1"/>
        <pt x="1574" y="57" on="0"/>
        <pt x="1591" y="71" on="1"/>
        <pt x="1595" y="68" on="1"/>
        <pt x="1519" y="-123" on="1"/>
        <pt x="1505" y="-166" on="0"/>
        <pt x="1466" y="-166" on="1"/>
        <pt x="1409" y="-166" on="0"/>
        <pt x="1291" y="-118" on="0"/>
        <pt x="1198" y="-76" on="0"/>
        <pt x="1114" y="-44" on="0"/>
        <pt x="1076" y="-33" on="1"/>
        <pt x="1011" y="-15" on="0"/>
      </contour>
      <contour>
        <pt x="350" y="648" on="1"/>
        <pt x="350" y="555" on="0"/>
        <pt x="415" y="396" on="0"/>
        <pt x="472" y="338" on="1"/>
        <pt x="594" y="215" on="0"/>
        <pt x="778" y="215" on="1"/>
        <pt x="954" y="215" on="0"/>
        <pt x="1065" y="334" on="1"/>
        <pt x="1180" y="456" on="0"/>
        <pt x="1180" y="657" on="1"/>
        <pt x="1180" y="847" on="0"/>
        <pt x="1072" y="974" on="1"/>
        <pt x="955" y="1110" on="0"/>
        <pt x="762" y="1110" on="1"/>
        <pt x="574" y="1110" on="0"/>
        <pt x="458" y="972" on="1"/>
        <pt x="350" y="842" on="0"/>
      </contour>
    </TTGlyph>
    <TTGlyph name="R" xMin="172" yMin="-8" xMax="1144" yMax="1355">
      <contour>
        <pt x="602" y="517" on="1"/>
        <pt x="572" y="515" on="0"/>
        <pt x="504" y="515" on="0"/>
        <pt x="437" y="520" on="1"/>
        <pt x="437" y="0" on="1"/>
        <pt x="172" y="0" on="1"/>
        <pt x="172" y="1337" on="1"/>
        <pt x="312" y="1355" on="0"/>
        <pt x="516" y="1355" on="1"/>
        <pt x="794" y="1355" on="0"/>
        <pt x="1067" y="1150" on="0"/>
        <pt x="1067" y="936" on="1"/>
        <pt x="1067" y="770" on="0"/>
        <pt x="942" y="652" on="1"/>
        <pt x="901" y="614" on="0"/>
        <pt x="848" y="586" on="1"/>
        <pt x="1052" y="156" on="1"/>
        <pt x="1112" y="23" on="0"/>
        <pt x="1144" y="-2" on="1"/>
        <pt x="1139" y="-7" on="1"/>
        <pt x="1042" y="9" on="0"/>
        <pt x="834" y="-8" on="1"/>
      </contour>
      <contour>
        <pt x="535" y="1119" on="1"/>
        <pt x="484" y="1119" on="0"/>
        <pt x="437" y="1114" on="1"/>
        <pt x="437" y="732" on="1"/>
        <pt x="486" y="725" on="0"/>
        <pt x="618" y="725" on="0"/>
        <pt x="708" y="748" on="0"/>
        <pt x="741" y="772" on="1"/>
        <pt x="812" y="825" on="0"/>
        <pt x="812" y="1037" on="0"/>
        <pt x="738" y="1080" on="1"/>
        <pt x="669" y="1119" on="0"/>
      </contour>
    </TTGlyph>
    <TTGlyph name="Racute" xMin="172" yMin="-8" xMax="1144" yMax="1805">
      <contour>
        <pt x="602" y="517" on="1"/>
        <pt x="572" y="515" on="0"/>
        <pt x="504" y="515" on="0"/>
        <pt x="437" y="520" on="1"/>
        <pt x="437" y="0" on="1"/>
        <pt x="172" y="0" on="1"/>
        <pt x="172" y="1337" on="1"/>
        <pt x="312" y="1355" on="0"/>
        <pt x="516" y="1355" on="1"/>
        <pt x="794" y="1355" on="0"/>
        <pt x="1067" y="1150" on="0"/>
        <pt x="1067" y="936" on="1"/>
        <pt x="1067" y="770" on="0"/>
        <pt x="942" y="652" on="1"/>
        <pt x="901" y="614" on="0"/>
        <pt x="848" y="586" on="1"/>
        <pt x="1052" y="156" on="1"/>
        <pt x="1112" y="23" on="0"/>
        <pt x="1144" y="-2" on="1"/>
        <pt x="1139" y="-7" on="1"/>
        <pt x="1042" y="9" on="0"/>
        <pt x="834" y="-8" on="1"/>
      </contour>
      <contour>
        <pt x="535" y="1119" on="1"/>
        <pt x="484" y="1119" on="0"/>
        <pt x="437" y="1114" on="1"/>
        <pt x="437" y="732" on="1"/>
        <pt x="486" y="725" on="0"/>
        <pt x="618" y="725" on="0"/>
        <pt x="708" y="748" on="0"/>
        <pt x="741" y="772" on="1"/>
        <pt x="812" y="825" on="0"/>
        <pt x="812" y="1037" on="0"/>
        <pt x="738" y="1080" on="1"/>
        <pt x="669" y="1119" on="0"/>
      </contour>
      <contour>
        <pt x="618" y="1788" on="1"/>
        <pt x="768" y="1788" on="0"/>
        <pt x="938" y="1805" on="1"/>
        <pt x="937" y="1798" on="1"/>
        <pt x="675" y="1475" on="1"/>
        <pt x="449" y="1475" on="1"/>
      </contour>
    </TTGlyph>
    <TTGlyph name="Rcaron" xMin="172" yMin="-8" xMax="1144" yMax="1700">
      <contour>
        <pt x="602" y="517" on="1"/>
        <pt x="572" y="515" on="0"/>
        <pt x="504" y="515" on="0"/>
        <pt x="437" y="520" on="1"/>
        <pt x="437" y="0" on="1"/>
        <pt x="172" y="0" on="1"/>
        <pt x="172" y="1337" on="1"/>
        <pt x="312" y="1355" on="0"/>
        <pt x="516" y="1355" on="1"/>
        <pt x="794" y="1355" on="0"/>
        <pt x="1067" y="1150" on="0"/>
        <pt x="1067" y="936" on="1"/>
        <pt x="1067" y="770" on="0"/>
        <pt x="942" y="652" on="1"/>
        <pt x="901" y="614" on="0"/>
        <pt x="848" y="586" on="1"/>
        <pt x="1052" y="156" on="1"/>
        <pt x="1112" y="23" on="0"/>
        <pt x="1144" y="-2" on="1"/>
        <pt x="1139" y="-7" on="1"/>
        <pt x="1042" y="9" on="0"/>
        <pt x="834" y="-8" on="1"/>
      </contour>
      <contour>
        <pt x="535" y="1119" on="1"/>
        <pt x="484" y="1119" on="0"/>
        <pt x="437" y="1114" on="1"/>
        <pt x="437" y="732" on="1"/>
        <pt x="486" y="725" on="0"/>
        <pt x="618" y="725" on="0"/>
        <pt x="708" y="748" on="0"/>
        <pt x="741" y="772" on="1"/>
        <pt x="812" y="825" on="0"/>
        <pt x="812" y="1037" on="0"/>
        <pt x="738" y="1080" on="1"/>
        <pt x="669" y="1119" on="0"/>
      </contour>
      <contour>
        <pt x="685" y="1369" on="1"/>
        <pt x="634" y="1369" on="1"/>
        <pt x="592" y="1369" on="0"/>
        <pt x="568" y="1366" on="1"/>
        <pt x="326" y="1697" on="1"/>
        <pt x="329" y="1700" on="1"/>
        <pt x="377" y="1697" on="0"/>
        <pt x="592" y="1697" on="1"/>
        <pt x="689" y="1520" on="1"/>
        <pt x="802" y="1697" on="1"/>
        <pt x="1057" y="1700" on="1"/>
        <pt x="1061" y="1697" on="1"/>
        <pt x="806" y="1366" on="1"/>
      </contour>
    </TTGlyph>
    <TTGlyph name="Rcommaaccent" xMin="172" yMin="-613" xMax="1144" yMax="1355">
      <contour>
        <pt x="602" y="517" on="1"/>
        <pt x="572" y="515" on="0"/>
        <pt x="504" y="515" on="0"/>
        <pt x="437" y="520" on="1"/>
        <pt x="437" y="0" on="1"/>
        <pt x="172" y="0" on="1"/>
        <pt x="172" y="1337" on="1"/>
        <pt x="312" y="1355" on="0"/>
        <pt x="516" y="1355" on="1"/>
        <pt x="794" y="1355" on="0"/>
        <pt x="1067" y="1150" on="0"/>
        <pt x="1067" y="936" on="1"/>
        <pt x="1067" y="770" on="0"/>
        <pt x="942" y="652" on="1"/>
        <pt x="901" y="614" on="0"/>
        <pt x="848" y="586" on="1"/>
        <pt x="1052" y="156" on="1"/>
        <pt x="1112" y="23" on="0"/>
        <pt x="1144" y="-2" on="1"/>
        <pt x="1139" y="-7" on="1"/>
        <pt x="1042" y="9" on="0"/>
        <pt x="834" y="-8" on="1"/>
      </contour>
      <contour>
        <pt x="535" y="1119" on="1"/>
        <pt x="484" y="1119" on="0"/>
        <pt x="437" y="1114" on="1"/>
        <pt x="437" y="732" on="1"/>
        <pt x="486" y="725" on="0"/>
        <pt x="618" y="725" on="0"/>
        <pt x="708" y="748" on="0"/>
        <pt x="741" y="772" on="1"/>
        <pt x="812" y="825" on="0"/>
        <pt x="812" y="1037" on="0"/>
        <pt x="738" y="1080" on="1"/>
        <pt x="669" y="1119" on="0"/>
      </contour>
      <contour>
        <pt x="527" y="-607" on="1"/>
        <pt x="588" y="-499" on="0"/>
        <pt x="588" y="-271" on="0"/>
        <pt x="577" y="-191" on="1"/>
        <pt x="826" y="-151" on="1"/>
        <pt x="834" y="-202" on="1"/>
        <pt x="842" y="-258" on="0"/>
        <pt x="842" y="-377" on="0"/>
        <pt x="830" y="-450" on="0"/>
        <pt x="820" y="-476" on="1"/>
        <pt x="796" y="-534" on="0"/>
        <pt x="738" y="-558" on="1"/>
        <pt x="674" y="-584" on="0"/>
        <pt x="533" y="-613" on="1"/>
      </contour>
    </TTGlyph>
    <TTGlyph name="S" xMin="128" yMin="-25" xMax="1094" yMax="1355">
      <contour>
        <pt x="975" y="1256" on="1"/>
        <pt x="956" y="962" on="1"/>
        <pt x="949" y="960" on="1"/>
        <pt x="875" y="1071" on="0"/>
        <pt x="697" y="1104" on="1"/>
        <pt x="641" y="1115" on="0"/>
        <pt x="538" y="1115" on="0"/>
        <pt x="465" y="1097" on="0"/>
        <pt x="439" y="1080" on="1"/>
        <pt x="384" y="1044" on="0"/>
        <pt x="384" y="986" on="1"/>
        <pt x="384" y="910" on="0"/>
        <pt x="432" y="872" on="1"/>
        <pt x="492" y="826" on="0"/>
        <pt x="770" y="789" on="0"/>
        <pt x="938" y="725" on="0"/>
        <pt x="992" y="676" on="1"/>
        <pt x="1094" y="584" on="0"/>
        <pt x="1094" y="416" on="1"/>
        <pt x="1094" y="196" on="0"/>
        <pt x="928" y="77" on="1"/>
        <pt x="786" y="-25" on="0"/>
        <pt x="570" y="-25" on="1"/>
        <pt x="396" y="-25" on="0"/>
        <pt x="226" y="41" on="1"/>
        <pt x="170" y="63" on="0"/>
        <pt x="128" y="92" on="1"/>
        <pt x="139" y="426" on="1"/>
        <pt x="143" y="429" on="1"/>
        <pt x="267" y="215" on="0"/>
        <pt x="550" y="215" on="1"/>
        <pt x="751" y="215" on="0"/>
        <pt x="816" y="312" on="1"/>
        <pt x="838" y="345" on="0"/>
        <pt x="838" y="426" on="0"/>
        <pt x="812" y="479" on="0"/>
        <pt x="782" y="498" on="1"/>
        <pt x="724" y="536" on="0"/>
        <pt x="450" y="562" on="0"/>
        <pt x="276" y="634" on="0"/>
        <pt x="224" y="687" on="1"/>
        <pt x="130" y="783" on="0"/>
        <pt x="130" y="955" on="1"/>
        <pt x="130" y="1133" on="0"/>
        <pt x="255" y="1243" on="1"/>
        <pt x="382" y="1355" on="0"/>
        <pt x="813" y="1355" on="0"/>
      </contour>
    </TTGlyph>
    <TTGlyph name="Sacute" xMin="128" yMin="-25" xMax="1094" yMax="1805">
      <contour>
        <pt x="975" y="1256" on="1"/>
        <pt x="956" y="962" on="1"/>
        <pt x="949" y="960" on="1"/>
        <pt x="875" y="1071" on="0"/>
        <pt x="697" y="1104" on="1"/>
        <pt x="641" y="1115" on="0"/>
        <pt x="538" y="1115" on="0"/>
        <pt x="465" y="1097" on="0"/>
        <pt x="439" y="1080" on="1"/>
        <pt x="384" y="1044" on="0"/>
        <pt x="384" y="986" on="1"/>
        <pt x="384" y="910" on="0"/>
        <pt x="432" y="872" on="1"/>
        <pt x="492" y="826" on="0"/>
        <pt x="770" y="789" on="0"/>
        <pt x="938" y="725" on="0"/>
        <pt x="992" y="676" on="1"/>
        <pt x="1094" y="584" on="0"/>
        <pt x="1094" y="416" on="1"/>
        <pt x="1094" y="196" on="0"/>
        <pt x="928" y="77" on="1"/>
        <pt x="786" y="-25" on="0"/>
        <pt x="570" y="-25" on="1"/>
        <pt x="396" y="-25" on="0"/>
        <pt x="226" y="41" on="1"/>
        <pt x="170" y="63" on="0"/>
        <pt x="128" y="92" on="1"/>
        <pt x="139" y="426" on="1"/>
        <pt x="143" y="429" on="1"/>
        <pt x="267" y="215" on="0"/>
        <pt x="550" y="215" on="1"/>
        <pt x="751" y="215" on="0"/>
        <pt x="816" y="312" on="1"/>
        <pt x="838" y="345" on="0"/>
        <pt x="838" y="426" on="0"/>
        <pt x="812" y="479" on="0"/>
        <pt x="782" y="498" on="1"/>
        <pt x="724" y="536" on="0"/>
        <pt x="450" y="562" on="0"/>
        <pt x="276" y="634" on="0"/>
        <pt x="224" y="687" on="1"/>
        <pt x="130" y="783" on="0"/>
        <pt x="130" y="955" on="1"/>
        <pt x="130" y="1133" on="0"/>
        <pt x="255" y="1243" on="1"/>
        <pt x="382" y="1355" on="0"/>
        <pt x="813" y="1355" on="0"/>
      </contour>
      <contour>
        <pt x="521" y="1788" on="1"/>
        <pt x="671" y="1788" on="0"/>
        <pt x="841" y="1805" on="1"/>
        <pt x="840" y="1798" on="1"/>
        <pt x="578" y="1475" on="1"/>
        <pt x="352" y="1475" on="1"/>
      </contour>
    </TTGlyph>
    <TTGlyph name="Scaron" xMin="128" yMin="-25" xMax="1094" yMax="1700">
      <contour>
        <pt x="975" y="1256" on="1"/>
        <pt x="956" y="962" on="1"/>
        <pt x="949" y="960" on="1"/>
        <pt x="875" y="1071" on="0"/>
        <pt x="697" y="1104" on="1"/>
        <pt x="641" y="1115" on="0"/>
        <pt x="538" y="1115" on="0"/>
        <pt x="465" y="1097" on="0"/>
        <pt x="439" y="1080" on="1"/>
        <pt x="384" y="1044" on="0"/>
        <pt x="384" y="986" on="1"/>
        <pt x="384" y="910" on="0"/>
        <pt x="432" y="872" on="1"/>
        <pt x="492" y="826" on="0"/>
        <pt x="770" y="789" on="0"/>
        <pt x="938" y="725" on="0"/>
        <pt x="992" y="676" on="1"/>
        <pt x="1094" y="584" on="0"/>
        <pt x="1094" y="416" on="1"/>
        <pt x="1094" y="196" on="0"/>
        <pt x="928" y="77" on="1"/>
        <pt x="786" y="-25" on="0"/>
        <pt x="570" y="-25" on="1"/>
        <pt x="396" y="-25" on="0"/>
        <pt x="226" y="41" on="1"/>
        <pt x="170" y="63" on="0"/>
        <pt x="128" y="92" on="1"/>
        <pt x="139" y="426" on="1"/>
        <pt x="143" y="429" on="1"/>
        <pt x="267" y="215" on="0"/>
        <pt x="550" y="215" on="1"/>
        <pt x="751" y="215" on="0"/>
        <pt x="816" y="312" on="1"/>
        <pt x="838" y="345" on="0"/>
        <pt x="838" y="426" on="0"/>
        <pt x="812" y="479" on="0"/>
        <pt x="782" y="498" on="1"/>
        <pt x="724" y="536" on="0"/>
        <pt x="450" y="562" on="0"/>
        <pt x="276" y="634" on="0"/>
        <pt x="224" y="687" on="1"/>
        <pt x="130" y="783" on="0"/>
        <pt x="130" y="955" on="1"/>
        <pt x="130" y="1133" on="0"/>
        <pt x="255" y="1243" on="1"/>
        <pt x="382" y="1355" on="0"/>
        <pt x="813" y="1355" on="0"/>
      </contour>
      <contour>
        <pt x="588" y="1369" on="1"/>
        <pt x="537" y="1369" on="1"/>
        <pt x="495" y="1369" on="0"/>
        <pt x="471" y="1366" on="1"/>
        <pt x="229" y="1697" on="1"/>
        <pt x="232" y="1700" on="1"/>
        <pt x="280" y="1697" on="0"/>
        <pt x="495" y="1697" on="1"/>
        <pt x="592" y="1520" on="1"/>
        <pt x="705" y="1697" on="1"/>
        <pt x="960" y="1700" on="1"/>
        <pt x="964" y="1697" on="1"/>
        <pt x="709" y="1366" on="1"/>
      </contour>
    </TTGlyph>
    <TTGlyph name="Scedilla" xMin="128" yMin="-432" xMax="1094" yMax="1355">
      <contour>
        <pt x="715" y="-11" on="1"/>
        <pt x="724" y="-74" on="0"/>
        <pt x="724" y="-235" on="0"/>
        <pt x="679" y="-345" on="0"/>
        <pt x="650" y="-362" on="1"/>
        <pt x="591" y="-400" on="0"/>
        <pt x="435" y="-432" on="1"/>
        <pt x="429" y="-426" on="1"/>
        <pt x="478" y="-356" on="0"/>
        <pt x="494" y="-132" on="1"/>
        <pt x="499" y="-72" on="0"/>
        <pt x="499" y="-21" on="1"/>
        <pt x="340" y="-7" on="0"/>
        <pt x="207" y="49" on="1"/>
        <pt x="162" y="68" on="0"/>
        <pt x="128" y="92" on="1"/>
        <pt x="139" y="426" on="1"/>
        <pt x="143" y="429" on="1"/>
        <pt x="267" y="215" on="0"/>
        <pt x="550" y="215" on="1"/>
        <pt x="751" y="215" on="0"/>
        <pt x="816" y="312" on="1"/>
        <pt x="838" y="345" on="0"/>
        <pt x="838" y="426" on="0"/>
        <pt x="812" y="479" on="0"/>
        <pt x="782" y="498" on="1"/>
        <pt x="724" y="536" on="0"/>
        <pt x="450" y="562" on="0"/>
        <pt x="276" y="634" on="0"/>
        <pt x="224" y="687" on="1"/>
        <pt x="130" y="783" on="0"/>
        <pt x="130" y="955" on="1"/>
        <pt x="130" y="1133" on="0"/>
        <pt x="255" y="1243" on="1"/>
        <pt x="382" y="1355" on="0"/>
        <pt x="813" y="1355" on="0"/>
        <pt x="975" y="1256" on="1"/>
        <pt x="956" y="962" on="1"/>
        <pt x="949" y="960" on="1"/>
        <pt x="875" y="1071" on="0"/>
        <pt x="697" y="1104" on="1"/>
        <pt x="641" y="1115" on="0"/>
        <pt x="538" y="1115" on="0"/>
        <pt x="465" y="1097" on="0"/>
        <pt x="439" y="1080" on="1"/>
        <pt x="384" y="1044" on="0"/>
        <pt x="384" y="986" on="1"/>
        <pt x="384" y="910" on="0"/>
        <pt x="432" y="872" on="1"/>
        <pt x="492" y="826" on="0"/>
        <pt x="770" y="789" on="0"/>
        <pt x="938" y="725" on="0"/>
        <pt x="992" y="676" on="1"/>
        <pt x="1094" y="584" on="0"/>
        <pt x="1094" y="416" on="1"/>
        <pt x="1094" y="236" on="0"/>
        <pt x="981" y="122" on="1"/>
        <pt x="883" y="22" on="0"/>
      </contour>
    </TTGlyph>
    <TTGlyph name="Scircumflex" xMin="128" yMin="-25" xMax="1094" yMax="1804">
      <contour>
        <pt x="975" y="1256" on="1"/>
        <pt x="956" y="962" on="1"/>
        <pt x="949" y="960" on="1"/>
        <pt x="875" y="1071" on="0"/>
        <pt x="697" y="1104" on="1"/>
        <pt x="641" y="1115" on="0"/>
        <pt x="538" y="1115" on="0"/>
        <pt x="465" y="1097" on="0"/>
        <pt x="439" y="1080" on="1"/>
        <pt x="384" y="1044" on="0"/>
        <pt x="384" y="986" on="1"/>
        <pt x="384" y="910" on="0"/>
        <pt x="432" y="872" on="1"/>
        <pt x="492" y="826" on="0"/>
        <pt x="770" y="789" on="0"/>
        <pt x="938" y="725" on="0"/>
        <pt x="992" y="676" on="1"/>
        <pt x="1094" y="584" on="0"/>
        <pt x="1094" y="416" on="1"/>
        <pt x="1094" y="196" on="0"/>
        <pt x="928" y="77" on="1"/>
        <pt x="786" y="-25" on="0"/>
        <pt x="570" y="-25" on="1"/>
        <pt x="396" y="-25" on="0"/>
        <pt x="226" y="41" on="1"/>
        <pt x="170" y="63" on="0"/>
        <pt x="128" y="92" on="1"/>
        <pt x="139" y="426" on="1"/>
        <pt x="143" y="429" on="1"/>
        <pt x="267" y="215" on="0"/>
        <pt x="550" y="215" on="1"/>
        <pt x="751" y="215" on="0"/>
        <pt x="816" y="312" on="1"/>
        <pt x="838" y="345" on="0"/>
        <pt x="838" y="426" on="0"/>
        <pt x="812" y="479" on="0"/>
        <pt x="782" y="498" on="1"/>
        <pt x="724" y="536" on="0"/>
        <pt x="450" y="562" on="0"/>
        <pt x="276" y="634" on="0"/>
        <pt x="224" y="687" on="1"/>
        <pt x="130" y="783" on="0"/>
        <pt x="130" y="955" on="1"/>
        <pt x="130" y="1133" on="0"/>
        <pt x="255" y="1243" on="1"/>
        <pt x="382" y="1355" on="0"/>
        <pt x="813" y="1355" on="0"/>
      </contour>
      <contour>
        <pt x="495" y="1473" on="1"/>
        <pt x="280" y="1473" on="0"/>
        <pt x="232" y="1470" on="1"/>
        <pt x="229" y="1473" on="1"/>
        <pt x="471" y="1804" on="1"/>
        <pt x="495" y="1801" on="0"/>
        <pt x="537" y="1801" on="1"/>
        <pt x="588" y="1801" on="1"/>
        <pt x="709" y="1804" on="1"/>
        <pt x="964" y="1473" on="1"/>
        <pt x="960" y="1470" on="1"/>
        <pt x="705" y="1473" on="1"/>
        <pt x="592" y="1650" on="1"/>
      </contour>
    </TTGlyph>
    <TTGlyph name="Scommaaccent" xMin="128" yMin="-613" xMax="1094" yMax="1355">
      <contour>
        <pt x="975" y="1256" on="1"/>
        <pt x="956" y="962" on="1"/>
        <pt x="949" y="960" on="1"/>
        <pt x="875" y="1071" on="0"/>
        <pt x="697" y="1104" on="1"/>
        <pt x="641" y="1115" on="0"/>
        <pt x="538" y="1115" on="0"/>
        <pt x="465" y="1097" on="0"/>
        <pt x="439" y="1080" on="1"/>
        <pt x="384" y="1044" on="0"/>
        <pt x="384" y="986" on="1"/>
        <pt x="384" y="910" on="0"/>
        <pt x="432" y="872" on="1"/>
        <pt x="492" y="826" on="0"/>
        <pt x="770" y="789" on="0"/>
        <pt x="938" y="725" on="0"/>
        <pt x="992" y="676" on="1"/>
        <pt x="1094" y="584" on="0"/>
        <pt x="1094" y="416" on="1"/>
        <pt x="1094" y="196" on="0"/>
        <pt x="928" y="77" on="1"/>
        <pt x="786" y="-25" on="0"/>
        <pt x="570" y="-25" on="1"/>
        <pt x="396" y="-25" on="0"/>
        <pt x="226" y="41" on="1"/>
        <pt x="170" y="63" on="0"/>
        <pt x="128" y="92" on="1"/>
        <pt x="139" y="426" on="1"/>
        <pt x="143" y="429" on="1"/>
        <pt x="267" y="215" on="0"/>
        <pt x="550" y="215" on="1"/>
        <pt x="751" y="215" on="0"/>
        <pt x="816" y="312" on="1"/>
        <pt x="838" y="345" on="0"/>
        <pt x="838" y="426" on="0"/>
        <pt x="812" y="479" on="0"/>
        <pt x="782" y="498" on="1"/>
        <pt x="724" y="536" on="0"/>
        <pt x="450" y="562" on="0"/>
        <pt x="276" y="634" on="0"/>
        <pt x="224" y="687" on="1"/>
        <pt x="130" y="783" on="0"/>
        <pt x="130" y="955" on="1"/>
        <pt x="130" y="1133" on="0"/>
        <pt x="255" y="1243" on="1"/>
        <pt x="382" y="1355" on="0"/>
        <pt x="813" y="1355" on="0"/>
      </contour>
      <contour>
        <pt x="430" y="-607" on="1"/>
        <pt x="491" y="-499" on="0"/>
        <pt x="491" y="-271" on="0"/>
        <pt x="480" y="-191" on="1"/>
        <pt x="729" y="-151" on="1"/>
        <pt x="737" y="-202" on="1"/>
        <pt x="745" y="-258" on="0"/>
        <pt x="745" y="-377" on="0"/>
        <pt x="733" y="-450" on="0"/>
        <pt x="723" y="-476" on="1"/>
        <pt x="699" y="-534" on="0"/>
        <pt x="641" y="-558" on="1"/>
        <pt x="577" y="-584" on="0"/>
        <pt x="436" y="-613" on="1"/>
      </contour>
    </TTGlyph>
    <TTGlyph name="T" xMin="43" yMin="-6" xMax="983" yMax="1355">
      <contour>
        <pt x="652" y="-6" on="1"/>
        <pt x="604" y="0" on="0"/>
        <pt x="405" y="0" on="1"/>
        <pt x="373" y="0" on="1"/>
        <pt x="373" y="1106" on="1"/>
        <pt x="175" y="1106" on="1"/>
        <pt x="87" y="1106" on="0"/>
        <pt x="55" y="1088" on="0"/>
        <pt x="46" y="1081" on="1"/>
        <pt x="43" y="1082" on="1"/>
        <pt x="43" y="1338" on="1"/>
        <pt x="46" y="1341" on="1"/>
        <pt x="79" y="1330" on="0"/>
        <pt x="224" y="1330" on="1"/>
        <pt x="851" y="1330" on="1"/>
        <pt x="939" y="1330" on="0"/>
        <pt x="971" y="1348" on="0"/>
        <pt x="980" y="1355" on="1"/>
        <pt x="983" y="1354" on="1"/>
        <pt x="983" y="1098" on="1"/>
        <pt x="980" y="1095" on="1"/>
        <pt x="947" y="1106" on="0"/>
        <pt x="802" y="1106" on="1"/>
        <pt x="652" y="1106" on="1"/>
      </contour>
    </TTGlyph>
    <TTGlyph name="Tbar" xMin="43" yMin="-6" xMax="983" yMax="1355">
      <contour>
        <pt x="652" y="-6" on="1"/>
        <pt x="604" y="0" on="0"/>
        <pt x="405" y="0" on="1"/>
        <pt x="373" y="0" on="1"/>
        <pt x="373" y="649" on="1"/>
        <pt x="169" y="649" on="1"/>
        <pt x="172" y="675" on="1"/>
        <pt x="177" y="708" on="0"/>
        <pt x="177" y="739" on="0"/>
        <pt x="176" y="775" on="0"/>
        <pt x="175" y="792" on="1"/>
        <pt x="173" y="824" on="1"/>
        <pt x="172" y="840" on="0"/>
        <pt x="171" y="849" on="1"/>
        <pt x="373" y="849" on="1"/>
        <pt x="373" y="1106" on="1"/>
        <pt x="175" y="1106" on="1"/>
        <pt x="87" y="1106" on="0"/>
        <pt x="55" y="1088" on="0"/>
        <pt x="46" y="1081" on="1"/>
        <pt x="43" y="1082" on="1"/>
        <pt x="43" y="1338" on="1"/>
        <pt x="46" y="1341" on="1"/>
        <pt x="79" y="1330" on="0"/>
        <pt x="224" y="1330" on="1"/>
        <pt x="851" y="1330" on="1"/>
        <pt x="939" y="1330" on="0"/>
        <pt x="971" y="1348" on="0"/>
        <pt x="980" y="1355" on="1"/>
        <pt x="983" y="1354" on="1"/>
        <pt x="983" y="1098" on="1"/>
        <pt x="980" y="1095" on="1"/>
        <pt x="947" y="1106" on="0"/>
        <pt x="802" y="1106" on="1"/>
        <pt x="652" y="1106" on="1"/>
        <pt x="652" y="849" on="1"/>
        <pt x="844" y="849" on="1"/>
        <pt x="840" y="799" on="0"/>
        <pt x="840" y="758" on="1"/>
        <pt x="840" y="707" on="1"/>
        <pt x="840" y="701" on="0"/>
        <pt x="844" y="649" on="1"/>
        <pt x="652" y="649" on="1"/>
      </contour>
    </TTGlyph>
    <TTGlyph name="Tcaron" xMin="43" yMin="-6" xMax="983" yMax="1700">
      <contour>
        <pt x="652" y="-6" on="1"/>
        <pt x="604" y="0" on="0"/>
        <pt x="405" y="0" on="1"/>
        <pt x="373" y="0" on="1"/>
        <pt x="373" y="1106" on="1"/>
        <pt x="175" y="1106" on="1"/>
        <pt x="87" y="1106" on="0"/>
        <pt x="55" y="1088" on="0"/>
        <pt x="46" y="1081" on="1"/>
        <pt x="43" y="1082" on="1"/>
        <pt x="43" y="1338" on="1"/>
        <pt x="46" y="1341" on="1"/>
        <pt x="79" y="1330" on="0"/>
        <pt x="224" y="1330" on="1"/>
        <pt x="851" y="1330" on="1"/>
        <pt x="939" y="1330" on="0"/>
        <pt x="971" y="1348" on="0"/>
        <pt x="980" y="1355" on="1"/>
        <pt x="983" y="1354" on="1"/>
        <pt x="983" y="1098" on="1"/>
        <pt x="980" y="1095" on="1"/>
        <pt x="947" y="1106" on="0"/>
        <pt x="802" y="1106" on="1"/>
        <pt x="652" y="1106" on="1"/>
      </contour>
      <contour>
        <pt x="505" y="1369" on="1"/>
        <pt x="454" y="1369" on="1"/>
        <pt x="412" y="1369" on="0"/>
        <pt x="388" y="1366" on="1"/>
        <pt x="146" y="1697" on="1"/>
        <pt x="149" y="1700" on="1"/>
        <pt x="197" y="1697" on="0"/>
        <pt x="412" y="1697" on="1"/>
        <pt x="509" y="1520" on="1"/>
        <pt x="622" y="1697" on="1"/>
        <pt x="877" y="1700" on="1"/>
        <pt x="881" y="1697" on="1"/>
        <pt x="626" y="1366" on="1"/>
      </contour>
    </TTGlyph>
    <TTGlyph name="Tcommaaccent" xMin="43" yMin="-613" xMax="983" yMax="1355">
      <contour>
        <pt x="652" y="-6" on="1"/>
        <pt x="604" y="0" on="0"/>
        <pt x="405" y="0" on="1"/>
        <pt x="373" y="0" on="1"/>
        <pt x="373" y="1106" on="1"/>
        <pt x="175" y="1106" on="1"/>
        <pt x="87" y="1106" on="0"/>
        <pt x="55" y="1088" on="0"/>
        <pt x="46" y="1081" on="1"/>
        <pt x="43" y="1082" on="1"/>
        <pt x="43" y="1338" on="1"/>
        <pt x="46" y="1341" on="1"/>
        <pt x="79" y="1330" on="0"/>
        <pt x="224" y="1330" on="1"/>
        <pt x="851" y="1330" on="1"/>
        <pt x="939" y="1330" on="0"/>
        <pt x="971" y="1348" on="0"/>
        <pt x="980" y="1355" on="1"/>
        <pt x="983" y="1354" on="1"/>
        <pt x="983" y="1098" on="1"/>
        <pt x="980" y="1095" on="1"/>
        <pt x="947" y="1106" on="0"/>
        <pt x="802" y="1106" on="1"/>
        <pt x="652" y="1106" on="1"/>
      </contour>
      <contour>
        <pt x="347" y="-607" on="1"/>
        <pt x="408" y="-499" on="0"/>
        <pt x="408" y="-271" on="0"/>
        <pt x="397" y="-191" on="1"/>
        <pt x="646" y="-151" on="1"/>
        <pt x="654" y="-202" on="1"/>
        <pt x="662" y="-258" on="0"/>
        <pt x="662" y="-377" on="0"/>
        <pt x="650" y="-450" on="0"/>
        <pt x="640" y="-476" on="1"/>
        <pt x="616" y="-534" on="0"/>
        <pt x="558" y="-558" on="1"/>
        <pt x="494" y="-584" on="0"/>
        <pt x="353" y="-613" on="1"/>
      </contour>
    </TTGlyph>
    <TTGlyph name="Thorn" xMin="172" yMin="0" xMax="1072" yMax="1330">
      <contour>
        <pt x="846" y="254" on="0"/>
        <pt x="631" y="192" on="0"/>
        <pt x="452" y="192" on="0"/>
        <pt x="427" y="195" on="1"/>
        <pt x="427" y="0" on="1"/>
        <pt x="172" y="0" on="1"/>
        <pt x="172" y="1330" on="1"/>
        <pt x="427" y="1330" on="1"/>
        <pt x="427" y="1134" on="1"/>
        <pt x="736" y="1134" on="0"/>
        <pt x="908" y="1002" on="1"/>
        <pt x="1072" y="876" on="0"/>
        <pt x="1072" y="663" on="1"/>
        <pt x="1072" y="436" on="0"/>
        <pt x="920" y="314" on="1"/>
      </contour>
      <contour>
        <pt x="686" y="863" on="0"/>
        <pt x="571" y="904" on="0"/>
        <pt x="461" y="904" on="0"/>
        <pt x="427" y="900" on="1"/>
        <pt x="427" y="424" on="1"/>
        <pt x="466" y="421" on="0"/>
        <pt x="498" y="421" on="1"/>
        <pt x="644" y="421" on="0"/>
        <pt x="806" y="535" on="0"/>
        <pt x="806" y="642" on="1"/>
        <pt x="806" y="757" on="0"/>
        <pt x="726" y="828" on="1"/>
      </contour>
    </TTGlyph>
    <TTGlyph name="U" xMin="163" yMin="-25" xMax="1204" yMax="1338">
      <contour>
        <pt x="930" y="1335" on="1"/>
        <pt x="992" y="1330" on="0"/>
        <pt x="1033" y="1330" on="1"/>
        <pt x="1116" y="1330" on="1"/>
        <pt x="1158" y="1330" on="0"/>
        <pt x="1204" y="1338" on="1"/>
        <pt x="1204" y="511" on="1"/>
        <pt x="1204" y="265" on="0"/>
        <pt x="1055" y="116" on="1"/>
        <pt x="914" y="-25" on="0"/>
        <pt x="701" y="-25" on="1"/>
        <pt x="468" y="-25" on="0"/>
        <pt x="324" y="96" on="1"/>
        <pt x="163" y="232" on="0"/>
        <pt x="163" y="488" on="1"/>
        <pt x="163" y="1335" on="1"/>
        <pt x="246" y="1330" on="0"/>
        <pt x="393" y="1330" on="0"/>
        <pt x="441" y="1338" on="1"/>
        <pt x="441" y="475" on="1"/>
        <pt x="441" y="349" on="0"/>
        <pt x="518" y="279" on="1"/>
        <pt x="590" y="215" on="0"/>
        <pt x="698" y="215" on="1"/>
        <pt x="858" y="215" on="0"/>
        <pt x="911" y="379" on="1"/>
        <pt x="930" y="438" on="0"/>
        <pt x="930" y="525" on="1"/>
      </contour>
    </TTGlyph>
    <TTGlyph name="Uacute" xMin="163" yMin="-25" xMax="1204" yMax="1805">
      <contour>
        <pt x="930" y="1335" on="1"/>
        <pt x="992" y="1330" on="0"/>
        <pt x="1033" y="1330" on="1"/>
        <pt x="1116" y="1330" on="1"/>
        <pt x="1158" y="1330" on="0"/>
        <pt x="1204" y="1338" on="1"/>
        <pt x="1204" y="511" on="1"/>
        <pt x="1204" y="265" on="0"/>
        <pt x="1055" y="116" on="1"/>
        <pt x="914" y="-25" on="0"/>
        <pt x="701" y="-25" on="1"/>
        <pt x="468" y="-25" on="0"/>
        <pt x="324" y="96" on="1"/>
        <pt x="163" y="232" on="0"/>
        <pt x="163" y="488" on="1"/>
        <pt x="163" y="1335" on="1"/>
        <pt x="246" y="1330" on="0"/>
        <pt x="393" y="1330" on="0"/>
        <pt x="441" y="1338" on="1"/>
        <pt x="441" y="475" on="1"/>
        <pt x="441" y="349" on="0"/>
        <pt x="518" y="279" on="1"/>
        <pt x="590" y="215" on="0"/>
        <pt x="698" y="215" on="1"/>
        <pt x="858" y="215" on="0"/>
        <pt x="911" y="379" on="1"/>
        <pt x="930" y="438" on="0"/>
        <pt x="930" y="525" on="1"/>
      </contour>
      <contour>
        <pt x="608" y="1788" on="1"/>
        <pt x="758" y="1788" on="0"/>
        <pt x="928" y="1805" on="1"/>
        <pt x="927" y="1798" on="1"/>
        <pt x="665" y="1475" on="1"/>
        <pt x="439" y="1475" on="1"/>
      </contour>
    </TTGlyph>
    <TTGlyph name="Ubreve" xMin="163" yMin="-25" xMax="1204" yMax="1806">
      <contour>
        <pt x="930" y="1335" on="1"/>
        <pt x="992" y="1330" on="0"/>
        <pt x="1033" y="1330" on="1"/>
        <pt x="1116" y="1330" on="1"/>
        <pt x="1158" y="1330" on="0"/>
        <pt x="1204" y="1338" on="1"/>
        <pt x="1204" y="511" on="1"/>
        <pt x="1204" y="265" on="0"/>
        <pt x="1055" y="116" on="1"/>
        <pt x="914" y="-25" on="0"/>
        <pt x="701" y="-25" on="1"/>
        <pt x="468" y="-25" on="0"/>
        <pt x="324" y="96" on="1"/>
        <pt x="163" y="232" on="0"/>
        <pt x="163" y="488" on="1"/>
        <pt x="163" y="1335" on="1"/>
        <pt x="246" y="1330" on="0"/>
        <pt x="393" y="1330" on="0"/>
        <pt x="441" y="1338" on="1"/>
        <pt x="441" y="475" on="1"/>
        <pt x="441" y="349" on="0"/>
        <pt x="518" y="279" on="1"/>
        <pt x="590" y="215" on="0"/>
        <pt x="698" y="215" on="1"/>
        <pt x="858" y="215" on="0"/>
        <pt x="911" y="379" on="1"/>
        <pt x="930" y="438" on="0"/>
        <pt x="930" y="525" on="1"/>
      </contour>
      <contour>
        <pt x="1028" y="1806" on="1"/>
        <pt x="1038" y="1796" on="0"/>
        <pt x="1038" y="1680" on="0"/>
        <pt x="997" y="1567" on="0"/>
        <pt x="954" y="1522" on="1"/>
        <pt x="857" y="1421" on="0"/>
        <pt x="683" y="1421" on="1"/>
        <pt x="509" y="1421" on="0"/>
        <pt x="412" y="1522" on="1"/>
        <pt x="328" y="1610" on="0"/>
        <pt x="328" y="1737" on="1"/>
        <pt x="328" y="1796" on="0"/>
        <pt x="338" y="1806" on="1"/>
        <pt x="471" y="1803" on="1"/>
        <pt x="481" y="1724" on="0"/>
        <pt x="508" y="1686" on="1"/>
        <pt x="567" y="1602" on="0"/>
        <pt x="683" y="1602" on="1"/>
        <pt x="799" y="1602" on="0"/>
        <pt x="854" y="1680" on="1"/>
        <pt x="885" y="1724" on="0"/>
        <pt x="895" y="1803" on="1"/>
      </contour>
    </TTGlyph>
    <TTGlyph name="Ucircumflex" xMin="163" yMin="-25" xMax="1204" yMax="1804">
      <contour>
        <pt x="930" y="1335" on="1"/>
        <pt x="992" y="1330" on="0"/>
        <pt x="1033" y="1330" on="1"/>
        <pt x="1116" y="1330" on="1"/>
        <pt x="1158" y="1330" on="0"/>
        <pt x="1204" y="1338" on="1"/>
        <pt x="1204" y="511" on="1"/>
        <pt x="1204" y="265" on="0"/>
        <pt x="1055" y="116" on="1"/>
        <pt x="914" y="-25" on="0"/>
        <pt x="701" y="-25" on="1"/>
        <pt x="468" y="-25" on="0"/>
        <pt x="324" y="96" on="1"/>
        <pt x="163" y="232" on="0"/>
        <pt x="163" y="488" on="1"/>
        <pt x="163" y="1335" on="1"/>
        <pt x="246" y="1330" on="0"/>
        <pt x="393" y="1330" on="0"/>
        <pt x="441" y="1338" on="1"/>
        <pt x="441" y="475" on="1"/>
        <pt x="441" y="349" on="0"/>
        <pt x="518" y="279" on="1"/>
        <pt x="590" y="215" on="0"/>
        <pt x="698" y="215" on="1"/>
        <pt x="858" y="215" on="0"/>
        <pt x="911" y="379" on="1"/>
        <pt x="930" y="438" on="0"/>
        <pt x="930" y="525" on="1"/>
      </contour>
      <contour>
        <pt x="582" y="1473" on="1"/>
        <pt x="367" y="1473" on="0"/>
        <pt x="319" y="1470" on="1"/>
        <pt x="316" y="1473" on="1"/>
        <pt x="558" y="1804" on="1"/>
        <pt x="582" y="1801" on="0"/>
        <pt x="624" y="1801" on="1"/>
        <pt x="675" y="1801" on="1"/>
        <pt x="796" y="1804" on="1"/>
        <pt x="1051" y="1473" on="1"/>
        <pt x="1047" y="1470" on="1"/>
        <pt x="792" y="1473" on="1"/>
        <pt x="679" y="1650" on="1"/>
      </contour>
    </TTGlyph>
    <TTGlyph name="Udieresis" xMin="163" yMin="-25" xMax="1204" yMax="1715">
      <contour>
        <pt x="930" y="1335" on="1"/>
        <pt x="992" y="1330" on="0"/>
        <pt x="1033" y="1330" on="1"/>
        <pt x="1116" y="1330" on="1"/>
        <pt x="1158" y="1330" on="0"/>
        <pt x="1204" y="1338" on="1"/>
        <pt x="1204" y="511" on="1"/>
        <pt x="1204" y="265" on="0"/>
        <pt x="1055" y="116" on="1"/>
        <pt x="914" y="-25" on="0"/>
        <pt x="701" y="-25" on="1"/>
        <pt x="468" y="-25" on="0"/>
        <pt x="324" y="96" on="1"/>
        <pt x="163" y="232" on="0"/>
        <pt x="163" y="488" on="1"/>
        <pt x="163" y="1335" on="1"/>
        <pt x="246" y="1330" on="0"/>
        <pt x="393" y="1330" on="0"/>
        <pt x="441" y="1338" on="1"/>
        <pt x="441" y="475" on="1"/>
        <pt x="441" y="349" on="0"/>
        <pt x="518" y="279" on="1"/>
        <pt x="590" y="215" on="0"/>
        <pt x="698" y="215" on="1"/>
        <pt x="858" y="215" on="0"/>
        <pt x="911" y="379" on="1"/>
        <pt x="930" y="438" on="0"/>
        <pt x="930" y="525" on="1"/>
      </contour>
      <contour>
        <pt x="1031" y="1715" on="1"/>
        <pt x="1027" y="1665" on="0"/>
        <pt x="1027" y="1510" on="0"/>
        <pt x="1031" y="1475" on="1"/>
        <pt x="766" y="1475" on="1"/>
        <pt x="774" y="1537" on="0"/>
        <pt x="774" y="1658" on="0"/>
        <pt x="768" y="1715" on="1"/>
      </contour>
      <contour>
        <pt x="601" y="1715" on="1"/>
        <pt x="597" y="1665" on="0"/>
        <pt x="597" y="1510" on="0"/>
        <pt x="601" y="1475" on="1"/>
        <pt x="336" y="1475" on="1"/>
        <pt x="344" y="1537" on="0"/>
        <pt x="344" y="1658" on="0"/>
        <pt x="338" y="1715" on="1"/>
      </contour>
    </TTGlyph>
    <TTGlyph name="Ugrave" xMin="163" yMin="-25" xMax="1204" yMax="1805">
      <contour>
        <pt x="930" y="1335" on="1"/>
        <pt x="992" y="1330" on="0"/>
        <pt x="1033" y="1330" on="1"/>
        <pt x="1116" y="1330" on="1"/>
        <pt x="1158" y="1330" on="0"/>
        <pt x="1204" y="1338" on="1"/>
        <pt x="1204" y="511" on="1"/>
        <pt x="1204" y="265" on="0"/>
        <pt x="1055" y="116" on="1"/>
        <pt x="914" y="-25" on="0"/>
        <pt x="701" y="-25" on="1"/>
        <pt x="468" y="-25" on="0"/>
        <pt x="324" y="96" on="1"/>
        <pt x="163" y="232" on="0"/>
        <pt x="163" y="488" on="1"/>
        <pt x="163" y="1335" on="1"/>
        <pt x="246" y="1330" on="0"/>
        <pt x="393" y="1330" on="0"/>
        <pt x="441" y="1338" on="1"/>
        <pt x="441" y="475" on="1"/>
        <pt x="441" y="349" on="0"/>
        <pt x="518" y="279" on="1"/>
        <pt x="590" y="215" on="0"/>
        <pt x="698" y="215" on="1"/>
        <pt x="858" y="215" on="0"/>
        <pt x="911" y="379" on="1"/>
        <pt x="930" y="438" on="0"/>
        <pt x="930" y="525" on="1"/>
      </contour>
      <contour>
        <pt x="439" y="1805" on="1"/>
        <pt x="609" y="1788" on="0"/>
        <pt x="759" y="1788" on="1"/>
        <pt x="928" y="1475" on="1"/>
        <pt x="702" y="1475" on="1"/>
        <pt x="440" y="1798" on="1"/>
      </contour>
    </TTGlyph>
    <TTGlyph name="Uhungarumlaut" xMin="163" yMin="-25" xMax="1204" yMax="1825">
      <contour>
        <pt x="930" y="1335" on="1"/>
        <pt x="992" y="1330" on="0"/>
        <pt x="1033" y="1330" on="1"/>
        <pt x="1116" y="1330" on="1"/>
        <pt x="1158" y="1330" on="0"/>
        <pt x="1204" y="1338" on="1"/>
        <pt x="1204" y="511" on="1"/>
        <pt x="1204" y="265" on="0"/>
        <pt x="1055" y="116" on="1"/>
        <pt x="914" y="-25" on="0"/>
        <pt x="701" y="-25" on="1"/>
        <pt x="468" y="-25" on="0"/>
        <pt x="324" y="96" on="1"/>
        <pt x="163" y="232" on="0"/>
        <pt x="163" y="488" on="1"/>
        <pt x="163" y="1335" on="1"/>
        <pt x="246" y="1330" on="0"/>
        <pt x="393" y="1330" on="0"/>
        <pt x="441" y="1338" on="1"/>
        <pt x="441" y="475" on="1"/>
        <pt x="441" y="349" on="0"/>
        <pt x="518" y="279" on="1"/>
        <pt x="590" y="215" on="0"/>
        <pt x="698" y="215" on="1"/>
        <pt x="858" y="215" on="0"/>
        <pt x="911" y="379" on="1"/>
        <pt x="930" y="438" on="0"/>
        <pt x="930" y="525" on="1"/>
      </contour>
      <contour>
        <pt x="915" y="1808" on="1"/>
        <pt x="995" y="1808" on="0"/>
        <pt x="1165" y="1825" on="1"/>
        <pt x="1164" y="1818" on="1"/>
        <pt x="902" y="1495" on="1"/>
        <pt x="746" y="1495" on="1"/>
      </contour>
      <contour>
        <pt x="530" y="1808" on="1"/>
        <pt x="582" y="1808" on="0"/>
        <pt x="620" y="1812" on="1"/>
        <pt x="760" y="1825" on="1"/>
        <pt x="759" y="1818" on="1"/>
        <pt x="497" y="1495" on="1"/>
        <pt x="361" y="1495" on="1"/>
      </contour>
    </TTGlyph>
    <TTGlyph name="Umacron" xMin="163" yMin="-25" xMax="1204" yMax="1700">
      <contour>
        <pt x="930" y="1335" on="1"/>
        <pt x="992" y="1330" on="0"/>
        <pt x="1033" y="1330" on="1"/>
        <pt x="1116" y="1330" on="1"/>
        <pt x="1158" y="1330" on="0"/>
        <pt x="1204" y="1338" on="1"/>
        <pt x="1204" y="511" on="1"/>
        <pt x="1204" y="265" on="0"/>
        <pt x="1055" y="116" on="1"/>
        <pt x="914" y="-25" on="0"/>
        <pt x="701" y="-25" on="1"/>
        <pt x="468" y="-25" on="0"/>
        <pt x="324" y="96" on="1"/>
        <pt x="163" y="232" on="0"/>
        <pt x="163" y="488" on="1"/>
        <pt x="163" y="1335" on="1"/>
        <pt x="246" y="1330" on="0"/>
        <pt x="393" y="1330" on="0"/>
        <pt x="441" y="1338" on="1"/>
        <pt x="441" y="475" on="1"/>
        <pt x="441" y="349" on="0"/>
        <pt x="518" y="279" on="1"/>
        <pt x="590" y="215" on="0"/>
        <pt x="698" y="215" on="1"/>
        <pt x="858" y="215" on="0"/>
        <pt x="911" y="379" on="1"/>
        <pt x="930" y="438" on="0"/>
        <pt x="930" y="525" on="1"/>
      </contour>
      <contour>
        <pt x="1027" y="1700" on="1"/>
        <pt x="1023" y="1650" on="0"/>
        <pt x="1023" y="1624" on="1"/>
        <pt x="1023" y="1590" on="1"/>
        <pt x="1023" y="1582" on="0"/>
        <pt x="1027" y="1530" on="1"/>
        <pt x="352" y="1530" on="1"/>
        <pt x="355" y="1556" on="1"/>
        <pt x="360" y="1589" on="0"/>
        <pt x="360" y="1643" on="0"/>
        <pt x="354" y="1700" on="1"/>
      </contour>
    </TTGlyph>
    <TTGlyph name="Uogonek" xMin="163" yMin="-555" xMax="1204" yMax="1338">
      <contour>
        <pt x="893" y="-323" on="1"/>
        <pt x="930" y="-323" on="0"/>
        <pt x="952" y="-307" on="1"/>
        <pt x="954" y="-312" on="1"/>
        <pt x="900" y="-555" on="1"/>
        <pt x="726" y="-555" on="0"/>
        <pt x="600" y="-488" on="1"/>
        <pt x="447" y="-406" on="0"/>
        <pt x="447" y="-246" on="1"/>
        <pt x="447" y="-119" on="0"/>
        <pt x="557" y="-11" on="1"/>
        <pt x="281" y="46" on="0"/>
        <pt x="194" y="290" on="1"/>
        <pt x="163" y="376" on="0"/>
        <pt x="163" y="488" on="1"/>
        <pt x="163" y="1335" on="1"/>
        <pt x="246" y="1330" on="0"/>
        <pt x="393" y="1330" on="0"/>
        <pt x="441" y="1338" on="1"/>
        <pt x="441" y="475" on="1"/>
        <pt x="441" y="349" on="0"/>
        <pt x="518" y="279" on="1"/>
        <pt x="590" y="215" on="0"/>
        <pt x="698" y="215" on="1"/>
        <pt x="858" y="215" on="0"/>
        <pt x="911" y="379" on="1"/>
        <pt x="930" y="438" on="0"/>
        <pt x="930" y="525" on="1"/>
        <pt x="930" y="1335" on="1"/>
        <pt x="992" y="1330" on="0"/>
        <pt x="1033" y="1330" on="1"/>
        <pt x="1094" y="1330" on="1"/>
        <pt x="1158" y="1330" on="0"/>
        <pt x="1204" y="1338" on="1"/>
        <pt x="1204" y="511" on="1"/>
        <pt x="1204" y="262" on="0"/>
        <pt x="1053" y="114" on="1"/>
        <pt x="1006" y="68" on="0"/>
        <pt x="947" y="35" on="0"/>
        <pt x="940" y="32" on="1"/>
        <pt x="920" y="22" on="1"/>
        <pt x="907" y="15" on="0"/>
        <pt x="853" y="-11" on="0"/>
        <pt x="780" y="-63" on="0"/>
        <pt x="752" y="-92" on="1"/>
        <pt x="692" y="-157" on="0"/>
        <pt x="692" y="-218" on="1"/>
        <pt x="692" y="-323" on="0"/>
      </contour>
    </TTGlyph>
    <TTGlyph name="Uring" xMin="163" yMin="-25" xMax="1204" yMax="1843">
      <contour>
        <pt x="930" y="1335" on="1"/>
        <pt x="992" y="1330" on="0"/>
        <pt x="1033" y="1330" on="1"/>
        <pt x="1116" y="1330" on="1"/>
        <pt x="1158" y="1330" on="0"/>
        <pt x="1204" y="1338" on="1"/>
        <pt x="1204" y="511" on="1"/>
        <pt x="1204" y="265" on="0"/>
        <pt x="1055" y="116" on="1"/>
        <pt x="914" y="-25" on="0"/>
        <pt x="701" y="-25" on="1"/>
        <pt x="468" y="-25" on="0"/>
        <pt x="324" y="96" on="1"/>
        <pt x="163" y="232" on="0"/>
        <pt x="163" y="488" on="1"/>
        <pt x="163" y="1335" on="1"/>
        <pt x="246" y="1330" on="0"/>
        <pt x="393" y="1330" on="0"/>
        <pt x="441" y="1338" on="1"/>
        <pt x="441" y="475" on="1"/>
        <pt x="441" y="349" on="0"/>
        <pt x="518" y="279" on="1"/>
        <pt x="590" y="215" on="0"/>
        <pt x="698" y="215" on="1"/>
        <pt x="858" y="215" on="0"/>
        <pt x="911" y="379" on="1"/>
        <pt x="930" y="438" on="0"/>
        <pt x="930" y="525" on="1"/>
      </contour>
      <contour>
        <pt x="677" y="1367" on="1"/>
        <pt x="616" y="1367" on="0"/>
        <pt x="516" y="1399" on="0"/>
        <pt x="480" y="1429" on="1"/>
        <pt x="404" y="1492" on="0"/>
        <pt x="404" y="1601" on="1"/>
        <pt x="404" y="1708" on="0"/>
        <pt x="479" y="1774" on="1"/>
        <pt x="555" y="1843" on="0"/>
        <pt x="691" y="1843" on="1"/>
        <pt x="811" y="1843" on="0"/>
        <pt x="887" y="1774" on="1"/>
        <pt x="962" y="1707" on="0"/>
        <pt x="962" y="1606" on="1"/>
        <pt x="962" y="1496" on="0"/>
        <pt x="882" y="1431" on="1"/>
        <pt x="804" y="1367" on="0"/>
      </contour>
      <contour>
        <pt x="608" y="1524" on="0"/>
        <pt x="654" y="1508" on="0"/>
        <pt x="707" y="1508" on="0"/>
        <pt x="749" y="1523" on="0"/>
        <pt x="765" y="1536" on="1"/>
        <pt x="800" y="1566" on="0"/>
        <pt x="800" y="1625" on="0"/>
        <pt x="785" y="1660" on="0"/>
        <pt x="770" y="1674" on="1"/>
        <pt x="736" y="1707" on="0"/>
        <pt x="649" y="1707" on="0"/>
        <pt x="605" y="1689" on="0"/>
        <pt x="591" y="1674" on="1"/>
        <pt x="563" y="1647" on="0"/>
        <pt x="563" y="1587" on="0"/>
        <pt x="578" y="1551" on="0"/>
      </contour>
    </TTGlyph>
    <TTGlyph name="Utilde" xMin="163" yMin="-25" xMax="1204" yMax="1770">
      <contour>
        <pt x="930" y="1335" on="1"/>
        <pt x="992" y="1330" on="0"/>
        <pt x="1033" y="1330" on="1"/>
        <pt x="1116" y="1330" on="1"/>
        <pt x="1158" y="1330" on="0"/>
        <pt x="1204" y="1338" on="1"/>
        <pt x="1204" y="511" on="1"/>
        <pt x="1204" y="265" on="0"/>
        <pt x="1055" y="116" on="1"/>
        <pt x="914" y="-25" on="0"/>
        <pt x="701" y="-25" on="1"/>
        <pt x="468" y="-25" on="0"/>
        <pt x="324" y="96" on="1"/>
        <pt x="163" y="232" on="0"/>
        <pt x="163" y="488" on="1"/>
        <pt x="163" y="1335" on="1"/>
        <pt x="246" y="1330" on="0"/>
        <pt x="393" y="1330" on="0"/>
        <pt x="441" y="1338" on="1"/>
        <pt x="441" y="475" on="1"/>
        <pt x="441" y="349" on="0"/>
        <pt x="518" y="279" on="1"/>
        <pt x="590" y="215" on="0"/>
        <pt x="698" y="215" on="1"/>
        <pt x="858" y="215" on="0"/>
        <pt x="911" y="379" on="1"/>
        <pt x="930" y="438" on="0"/>
        <pt x="930" y="525" on="1"/>
      </contour>
      <contour>
        <pt x="520" y="1565" on="1"/>
        <pt x="426" y="1565" on="0"/>
        <pt x="353" y="1490" on="1"/>
        <pt x="349" y="1491" on="1"/>
        <pt x="345" y="1690" on="1"/>
        <pt x="413" y="1770" on="0"/>
        <pt x="530" y="1770" on="1"/>
        <pt x="622" y="1770" on="0"/>
        <pt x="780" y="1661" on="0"/>
        <pt x="864" y="1661" on="1"/>
        <pt x="983" y="1661" on="0"/>
        <pt x="1020" y="1745" on="1"/>
        <pt x="1022" y="1743" on="1"/>
        <pt x="1012" y="1527" on="1"/>
        <pt x="995" y="1497" on="0"/>
        <pt x="907" y="1458" on="0"/>
        <pt x="811" y="1458" on="0"/>
        <pt x="752" y="1474" on="0"/>
        <pt x="702" y="1498" on="0"/>
        <pt x="659" y="1525" on="0"/>
        <pt x="635" y="1537" on="1"/>
        <pt x="579" y="1565" on="0"/>
      </contour>
    </TTGlyph>
    <TTGlyph name="V" xMin="34" yMin="-4" xMax="1168" yMax="1338">
      <contour>
        <pt x="741" y="-4" on="1"/>
        <pt x="709" y="0" on="0"/>
        <pt x="636" y="0" on="1"/>
        <pt x="526" y="0" on="1"/>
        <pt x="499" y="0" on="0"/>
        <pt x="477" y="-2" on="1"/>
        <pt x="476" y="0" on="1"/>
        <pt x="480" y="7" on="0"/>
        <pt x="480" y="25" on="0"/>
        <pt x="477" y="45" on="0"/>
        <pt x="463" y="97" on="0"/>
        <pt x="448" y="146" on="1"/>
        <pt x="406" y="280" on="1"/>
        <pt x="34" y="1334" on="1"/>
        <pt x="96" y="1330" on="0"/>
        <pt x="288" y="1330" on="0"/>
        <pt x="315" y="1338" on="1"/>
        <pt x="616" y="429" on="1"/>
        <pt x="880" y="1334" on="1"/>
        <pt x="940" y="1330" on="0"/>
        <pt x="1028" y="1330" on="1"/>
        <pt x="1148" y="1330" on="0"/>
        <pt x="1168" y="1338" on="1"/>
        <pt x="803" y="283" on="1"/>
        <pt x="803" y="283" on="0"/>
        <pt x="768" y="166" on="1"/>
        <pt x="739" y="66" on="0"/>
        <pt x="739" y="7" on="0"/>
        <pt x="743" y="-1" on="1"/>
      </contour>
    </TTGlyph>
    <TTGlyph name="W" xMin="8" yMin="-4" xMax="1692" yMax="1338">
      <contour>
        <pt x="648" y="-4" on="1"/>
        <pt x="618" y="0" on="0"/>
        <pt x="546" y="0" on="1"/>
        <pt x="430" y="0" on="1"/>
        <pt x="396" y="0" on="0"/>
        <pt x="374" y="-2" on="1"/>
        <pt x="373" y="0" on="1"/>
        <pt x="377" y="7" on="0"/>
        <pt x="377" y="25" on="0"/>
        <pt x="374" y="45" on="0"/>
        <pt x="361" y="97" on="0"/>
        <pt x="348" y="146" on="1"/>
        <pt x="8" y="1334" on="1"/>
        <pt x="72" y="1330" on="0"/>
        <pt x="254" y="1330" on="0"/>
        <pt x="281" y="1338" on="1"/>
        <pt x="517" y="433" on="1"/>
        <pt x="747" y="1334" on="1"/>
        <pt x="762" y="1333" on="0"/>
        <pt x="774" y="1332" on="1"/>
        <pt x="796" y="1332" on="1"/>
        <pt x="829" y="1330" on="0"/>
        <pt x="929" y="1330" on="0"/>
        <pt x="982" y="1338" on="1"/>
        <pt x="1216" y="433" on="1"/>
        <pt x="1417" y="1334" on="1"/>
        <pt x="1477" y="1330" on="0"/>
        <pt x="1671" y="1330" on="0"/>
        <pt x="1692" y="1338" on="1"/>
        <pt x="1404" y="283" on="1"/>
        <pt x="1349" y="101" on="0"/>
        <pt x="1343" y="33" on="0"/>
        <pt x="1343" y="7" on="0"/>
        <pt x="1347" y="-1" on="1"/>
        <pt x="1345" y="-4" on="1"/>
        <pt x="1313" y="0" on="0"/>
        <pt x="1244" y="0" on="1"/>
        <pt x="1184" y="0" on="0"/>
        <pt x="1086" y="0" on="0"/>
        <pt x="1064" y="-2" on="1"/>
        <pt x="1063" y="0" on="1"/>
        <pt x="1067" y="7" on="0"/>
        <pt x="1067" y="25" on="0"/>
        <pt x="1065" y="43" on="0"/>
        <pt x="1056" y="94" on="0"/>
        <pt x="1046" y="144" on="1"/>
        <pt x="1019" y="280" on="1"/>
        <pt x="855" y="903" on="1"/>
        <pt x="699" y="283" on="1"/>
        <pt x="651" y="92" on="0"/>
        <pt x="649" y="63" on="1"/>
        <pt x="645" y="8" on="0"/>
        <pt x="650" y="-1" on="1"/>
      </contour>
    </TTGlyph>
    <TTGlyph name="Wacute" xMin="8" yMin="-4" xMax="1692" yMax="1805">
      <contour>
        <pt x="648" y="-4" on="1"/>
        <pt x="618" y="0" on="0"/>
        <pt x="546" y="0" on="1"/>
        <pt x="430" y="0" on="1"/>
        <pt x="396" y="0" on="0"/>
        <pt x="374" y="-2" on="1"/>
        <pt x="373" y="0" on="1"/>
        <pt x="377" y="7" on="0"/>
        <pt x="377" y="25" on="0"/>
        <pt x="374" y="45" on="0"/>
        <pt x="361" y="97" on="0"/>
        <pt x="348" y="146" on="1"/>
        <pt x="8" y="1334" on="1"/>
        <pt x="72" y="1330" on="0"/>
        <pt x="254" y="1330" on="0"/>
        <pt x="281" y="1338" on="1"/>
        <pt x="517" y="433" on="1"/>
        <pt x="747" y="1334" on="1"/>
        <pt x="762" y="1333" on="0"/>
        <pt x="774" y="1332" on="1"/>
        <pt x="796" y="1332" on="1"/>
        <pt x="829" y="1330" on="0"/>
        <pt x="929" y="1330" on="0"/>
        <pt x="982" y="1338" on="1"/>
        <pt x="1216" y="433" on="1"/>
        <pt x="1417" y="1334" on="1"/>
        <pt x="1477" y="1330" on="0"/>
        <pt x="1671" y="1330" on="0"/>
        <pt x="1692" y="1338" on="1"/>
        <pt x="1404" y="283" on="1"/>
        <pt x="1349" y="101" on="0"/>
        <pt x="1343" y="33" on="0"/>
        <pt x="1343" y="7" on="0"/>
        <pt x="1347" y="-1" on="1"/>
        <pt x="1345" y="-4" on="1"/>
        <pt x="1313" y="0" on="0"/>
        <pt x="1244" y="0" on="1"/>
        <pt x="1184" y="0" on="0"/>
        <pt x="1086" y="0" on="0"/>
        <pt x="1064" y="-2" on="1"/>
        <pt x="1063" y="0" on="1"/>
        <pt x="1067" y="7" on="0"/>
        <pt x="1067" y="25" on="0"/>
        <pt x="1065" y="43" on="0"/>
        <pt x="1056" y="94" on="0"/>
        <pt x="1046" y="144" on="1"/>
        <pt x="1019" y="280" on="1"/>
        <pt x="855" y="903" on="1"/>
        <pt x="699" y="283" on="1"/>
        <pt x="651" y="92" on="0"/>
        <pt x="649" y="63" on="1"/>
        <pt x="645" y="8" on="0"/>
        <pt x="650" y="-1" on="1"/>
      </contour>
      <contour>
        <pt x="780" y="1788" on="1"/>
        <pt x="930" y="1788" on="0"/>
        <pt x="1100" y="1805" on="1"/>
        <pt x="1099" y="1798" on="1"/>
        <pt x="837" y="1475" on="1"/>
        <pt x="611" y="1475" on="1"/>
      </contour>
    </TTGlyph>
    <TTGlyph name="Wcircumflex" xMin="8" yMin="-4" xMax="1692" yMax="1804">
      <contour>
        <pt x="648" y="-4" on="1"/>
        <pt x="618" y="0" on="0"/>
        <pt x="546" y="0" on="1"/>
        <pt x="430" y="0" on="1"/>
        <pt x="396" y="0" on="0"/>
        <pt x="374" y="-2" on="1"/>
        <pt x="373" y="0" on="1"/>
        <pt x="377" y="7" on="0"/>
        <pt x="377" y="25" on="0"/>
        <pt x="374" y="45" on="0"/>
        <pt x="361" y="97" on="0"/>
        <pt x="348" y="146" on="1"/>
        <pt x="8" y="1334" on="1"/>
        <pt x="72" y="1330" on="0"/>
        <pt x="254" y="1330" on="0"/>
        <pt x="281" y="1338" on="1"/>
        <pt x="517" y="433" on="1"/>
        <pt x="747" y="1334" on="1"/>
        <pt x="762" y="1333" on="0"/>
        <pt x="774" y="1332" on="1"/>
        <pt x="796" y="1332" on="1"/>
        <pt x="829" y="1330" on="0"/>
        <pt x="929" y="1330" on="0"/>
        <pt x="982" y="1338" on="1"/>
        <pt x="1216" y="433" on="1"/>
        <pt x="1417" y="1334" on="1"/>
        <pt x="1477" y="1330" on="0"/>
        <pt x="1671" y="1330" on="0"/>
        <pt x="1692" y="1338" on="1"/>
        <pt x="1404" y="283" on="1"/>
        <pt x="1349" y="101" on="0"/>
        <pt x="1343" y="33" on="0"/>
        <pt x="1343" y="7" on="0"/>
        <pt x="1347" y="-1" on="1"/>
        <pt x="1345" y="-4" on="1"/>
        <pt x="1313" y="0" on="0"/>
        <pt x="1244" y="0" on="1"/>
        <pt x="1184" y="0" on="0"/>
        <pt x="1086" y="0" on="0"/>
        <pt x="1064" y="-2" on="1"/>
        <pt x="1063" y="0" on="1"/>
        <pt x="1067" y="7" on="0"/>
        <pt x="1067" y="25" on="0"/>
        <pt x="1065" y="43" on="0"/>
        <pt x="1056" y="94" on="0"/>
        <pt x="1046" y="144" on="1"/>
        <pt x="1019" y="280" on="1"/>
        <pt x="855" y="903" on="1"/>
        <pt x="699" y="283" on="1"/>
        <pt x="651" y="92" on="0"/>
        <pt x="649" y="63" on="1"/>
        <pt x="645" y="8" on="0"/>
        <pt x="650" y="-1" on="1"/>
      </contour>
      <contour>
        <pt x="754" y="1473" on="1"/>
        <pt x="539" y="1473" on="0"/>
        <pt x="491" y="1470" on="1"/>
        <pt x="488" y="1473" on="1"/>
        <pt x="730" y="1804" on="1"/>
        <pt x="754" y="1801" on="0"/>
        <pt x="796" y="1801" on="1"/>
        <pt x="847" y="1801" on="1"/>
        <pt x="968" y="1804" on="1"/>
        <pt x="1223" y="1473" on="1"/>
        <pt x="1219" y="1470" on="1"/>
        <pt x="964" y="1473" on="1"/>
        <pt x="851" y="1650" on="1"/>
      </contour>
    </TTGlyph>
    <TTGlyph name="Wdieresis" xMin="8" yMin="-4" xMax="1692" yMax="1715">
      <contour>
        <pt x="648" y="-4" on="1"/>
        <pt x="618" y="0" on="0"/>
        <pt x="546" y="0" on="1"/>
        <pt x="430" y="0" on="1"/>
        <pt x="396" y="0" on="0"/>
        <pt x="374" y="-2" on="1"/>
        <pt x="373" y="0" on="1"/>
        <pt x="377" y="7" on="0"/>
        <pt x="377" y="25" on="0"/>
        <pt x="374" y="45" on="0"/>
        <pt x="361" y="97" on="0"/>
        <pt x="348" y="146" on="1"/>
        <pt x="8" y="1334" on="1"/>
        <pt x="72" y="1330" on="0"/>
        <pt x="254" y="1330" on="0"/>
        <pt x="281" y="1338" on="1"/>
        <pt x="517" y="433" on="1"/>
        <pt x="747" y="1334" on="1"/>
        <pt x="762" y="1333" on="0"/>
        <pt x="774" y="1332" on="1"/>
        <pt x="796" y="1332" on="1"/>
        <pt x="829" y="1330" on="0"/>
        <pt x="929" y="1330" on="0"/>
        <pt x="982" y="1338" on="1"/>
        <pt x="1216" y="433" on="1"/>
        <pt x="1417" y="1334" on="1"/>
        <pt x="1477" y="1330" on="0"/>
        <pt x="1671" y="1330" on="0"/>
        <pt x="1692" y="1338" on="1"/>
        <pt x="1404" y="283" on="1"/>
        <pt x="1349" y="101" on="0"/>
        <pt x="1343" y="33" on="0"/>
        <pt x="1343" y="7" on="0"/>
        <pt x="1347" y="-1" on="1"/>
        <pt x="1345" y="-4" on="1"/>
        <pt x="1313" y="0" on="0"/>
        <pt x="1244" y="0" on="1"/>
        <pt x="1184" y="0" on="0"/>
        <pt x="1086" y="0" on="0"/>
        <pt x="1064" y="-2" on="1"/>
        <pt x="1063" y="0" on="1"/>
        <pt x="1067" y="7" on="0"/>
        <pt x="1067" y="25" on="0"/>
        <pt x="1065" y="43" on="0"/>
        <pt x="1056" y="94" on="0"/>
        <pt x="1046" y="144" on="1"/>
        <pt x="1019" y="280" on="1"/>
        <pt x="855" y="903" on="1"/>
        <pt x="699" y="283" on="1"/>
        <pt x="651" y="92" on="0"/>
        <pt x="649" y="63" on="1"/>
        <pt x="645" y="8" on="0"/>
        <pt x="650" y="-1" on="1"/>
      </contour>
      <contour>
        <pt x="1203" y="1715" on="1"/>
        <pt x="1199" y="1665" on="0"/>
        <pt x="1199" y="1510" on="0"/>
        <pt x="1203" y="1475" on="1"/>
        <pt x="938" y="1475" on="1"/>
        <pt x="946" y="1537" on="0"/>
        <pt x="946" y="1658" on="0"/>
        <pt x="940" y="1715" on="1"/>
      </contour>
      <contour>
        <pt x="773" y="1715" on="1"/>
        <pt x="769" y="1665" on="0"/>
        <pt x="769" y="1510" on="0"/>
        <pt x="773" y="1475" on="1"/>
        <pt x="508" y="1475" on="1"/>
        <pt x="516" y="1537" on="0"/>
        <pt x="516" y="1658" on="0"/>
        <pt x="510" y="1715" on="1"/>
      </contour>
    </TTGlyph>
    <TTGlyph name="Wgrave" xMin="8" yMin="-4" xMax="1692" yMax="1805">
      <contour>
        <pt x="648" y="-4" on="1"/>
        <pt x="618" y="0" on="0"/>
        <pt x="546" y="0" on="1"/>
        <pt x="430" y="0" on="1"/>
        <pt x="396" y="0" on="0"/>
        <pt x="374" y="-2" on="1"/>
        <pt x="373" y="0" on="1"/>
        <pt x="377" y="7" on="0"/>
        <pt x="377" y="25" on="0"/>
        <pt x="374" y="45" on="0"/>
        <pt x="361" y="97" on="0"/>
        <pt x="348" y="146" on="1"/>
        <pt x="8" y="1334" on="1"/>
        <pt x="72" y="1330" on="0"/>
        <pt x="254" y="1330" on="0"/>
        <pt x="281" y="1338" on="1"/>
        <pt x="517" y="433" on="1"/>
        <pt x="747" y="1334" on="1"/>
        <pt x="762" y="1333" on="0"/>
        <pt x="774" y="1332" on="1"/>
        <pt x="796" y="1332" on="1"/>
        <pt x="829" y="1330" on="0"/>
        <pt x="929" y="1330" on="0"/>
        <pt x="982" y="1338" on="1"/>
        <pt x="1216" y="433" on="1"/>
        <pt x="1417" y="1334" on="1"/>
        <pt x="1477" y="1330" on="0"/>
        <pt x="1671" y="1330" on="0"/>
        <pt x="1692" y="1338" on="1"/>
        <pt x="1404" y="283" on="1"/>
        <pt x="1349" y="101" on="0"/>
        <pt x="1343" y="33" on="0"/>
        <pt x="1343" y="7" on="0"/>
        <pt x="1347" y="-1" on="1"/>
        <pt x="1345" y="-4" on="1"/>
        <pt x="1313" y="0" on="0"/>
        <pt x="1244" y="0" on="1"/>
        <pt x="1184" y="0" on="0"/>
        <pt x="1086" y="0" on="0"/>
        <pt x="1064" y="-2" on="1"/>
        <pt x="1063" y="0" on="1"/>
        <pt x="1067" y="7" on="0"/>
        <pt x="1067" y="25" on="0"/>
        <pt x="1065" y="43" on="0"/>
        <pt x="1056" y="94" on="0"/>
        <pt x="1046" y="144" on="1"/>
        <pt x="1019" y="280" on="1"/>
        <pt x="855" y="903" on="1"/>
        <pt x="699" y="283" on="1"/>
        <pt x="651" y="92" on="0"/>
        <pt x="649" y="63" on="1"/>
        <pt x="645" y="8" on="0"/>
        <pt x="650" y="-1" on="1"/>
      </contour>
      <contour>
        <pt x="611" y="1805" on="1"/>
        <pt x="781" y="1788" on="0"/>
        <pt x="931" y="1788" on="1"/>
        <pt x="1100" y="1475" on="1"/>
        <pt x="874" y="1475" on="1"/>
        <pt x="612" y="1798" on="1"/>
      </contour>
    </TTGlyph>
    <TTGlyph name="X" xMin="36" yMin="0" xMax="1156" yMax="1330">
      <contour>
        <pt x="779" y="1233" on="1"/>
        <pt x="800" y="1277" on="0"/>
        <pt x="800" y="1320" on="0"/>
        <pt x="796" y="1330" on="1"/>
        <pt x="1156" y="1330" on="1"/>
        <pt x="1145" y="1318" on="0"/>
        <pt x="1111" y="1285" on="0"/>
        <pt x="1090" y="1262" on="1"/>
        <pt x="1040" y="1206" on="0"/>
        <pt x="998" y="1132" on="1"/>
        <pt x="757" y="692" on="1"/>
        <pt x="982" y="269" on="1"/>
        <pt x="1009" y="214" on="1"/>
        <pt x="1085" y="56" on="0"/>
        <pt x="1138" y="0" on="1"/>
        <pt x="812" y="0" on="1"/>
        <pt x="808" y="35" on="0"/>
        <pt x="778" y="94" on="1"/>
        <pt x="582" y="470" on="1"/>
        <pt x="375" y="51" on="0"/>
        <pt x="370" y="38" on="1"/>
        <pt x="365" y="21" on="0"/>
        <pt x="362" y="0" on="1"/>
        <pt x="36" y="0" on="1"/>
        <pt x="73" y="38" on="0"/>
        <pt x="112" y="107" on="1"/>
        <pt x="232" y="320" on="1"/>
        <pt x="445" y="681" on="1"/>
        <pt x="165" y="1208" on="1"/>
        <pt x="120" y="1293" on="0"/>
        <pt x="86" y="1330" on="1"/>
        <pt x="422" y="1330" on="1"/>
        <pt x="418" y="1320" on="0"/>
        <pt x="418" y="1308" on="1"/>
        <pt x="418" y="1281" on="0"/>
        <pt x="443" y="1233" on="1"/>
        <pt x="610" y="899" on="1"/>
      </contour>
    </TTGlyph>
    <TTGlyph name="Y" xMin="-7" yMin="0" xMax="1201" yMax="1330">
      <contour>
        <pt x="451" y="0" on="1"/>
        <pt x="464" y="39" on="0"/>
        <pt x="464" y="182" on="1"/>
        <pt x="464" y="460" on="1"/>
        <pt x="291" y="841" on="0"/>
        <pt x="195" y="1030" on="0"/>
        <pt x="162" y="1085" on="1"/>
        <pt x="58" y="1261" on="0"/>
        <pt x="15" y="1313" on="0"/>
        <pt x="-7" y="1330" on="1"/>
        <pt x="338" y="1330" on="1"/>
        <pt x="349" y="1310" on="0"/>
        <pt x="368" y="1271" on="1"/>
        <pt x="610" y="760" on="1"/>
        <pt x="627" y="802" on="0"/>
        <pt x="650" y="854" on="1"/>
        <pt x="868" y="1323" on="0"/>
        <pt x="871" y="1330" on="1"/>
        <pt x="1201" y="1330" on="1"/>
        <pt x="1150" y="1289" on="0"/>
        <pt x="1076" y="1158" on="1"/>
        <pt x="1053" y="1119" on="0"/>
        <pt x="1030" y="1069" on="1"/>
        <pt x="804" y="598" on="1"/>
        <pt x="766" y="513" on="0"/>
        <pt x="739" y="445" on="1"/>
        <pt x="739" y="158" on="1"/>
        <pt x="739" y="58" on="0"/>
        <pt x="751" y="0" on="1"/>
      </contour>
    </TTGlyph>
    <TTGlyph name="Yacute" xMin="-7" yMin="0" xMax="1201" yMax="1805">
      <contour>
        <pt x="451" y="0" on="1"/>
        <pt x="464" y="39" on="0"/>
        <pt x="464" y="182" on="1"/>
        <pt x="464" y="460" on="1"/>
        <pt x="291" y="841" on="0"/>
        <pt x="195" y="1030" on="0"/>
        <pt x="162" y="1085" on="1"/>
        <pt x="58" y="1261" on="0"/>
        <pt x="15" y="1313" on="0"/>
        <pt x="-7" y="1330" on="1"/>
        <pt x="338" y="1330" on="1"/>
        <pt x="349" y="1310" on="0"/>
        <pt x="368" y="1271" on="1"/>
        <pt x="610" y="760" on="1"/>
        <pt x="627" y="802" on="0"/>
        <pt x="650" y="854" on="1"/>
        <pt x="868" y="1323" on="0"/>
        <pt x="871" y="1330" on="1"/>
        <pt x="1201" y="1330" on="1"/>
        <pt x="1150" y="1289" on="0"/>
        <pt x="1076" y="1158" on="1"/>
        <pt x="1053" y="1119" on="0"/>
        <pt x="1030" y="1069" on="1"/>
        <pt x="804" y="598" on="1"/>
        <pt x="766" y="513" on="0"/>
        <pt x="739" y="445" on="1"/>
        <pt x="739" y="158" on="1"/>
        <pt x="739" y="58" on="0"/>
        <pt x="751" y="0" on="1"/>
      </contour>
      <contour>
        <pt x="521" y="1788" on="1"/>
        <pt x="671" y="1788" on="0"/>
        <pt x="841" y="1805" on="1"/>
        <pt x="840" y="1798" on="1"/>
        <pt x="578" y="1475" on="1"/>
        <pt x="352" y="1475" on="1"/>
      </contour>
    </TTGlyph>
</ttFont>
